<?xml version="1.0" encoding="utf-8"?>
<!-- Generator: Adobe Illustrator 27.3.1, SVG Export Plug-In . SVG Version: 6.00 Build 0)  -->
<svg version="1.1" id="Layer_1" xmlns="http://www.w3.org/2000/svg" xmlns:xlink="http://www.w3.org/1999/xlink" x="0px" y="0px"
	 viewBox="0 0 799 334" style="enable-background:new 0 0 799 334;" xml:space="preserve">
<style type="text/css">
	.st0{clip-path:url(#SVGID_00000134971756580694107930000002059436685344517540_);fill:#FFFFFF;}
	.st1{clip-path:url(#SVGID_00000086658990406101842660000016775357538299606938_);fill:#FFFFFF;}
	.st2{clip-path:url(#SVGID_00000096040302275875815330000003321968673251850168_);fill:#FFFFFF;}
	.st3{clip-path:url(#SVGID_00000170960117628065673770000011386444906146748823_);fill:#FFFFFF;}
	.st4{fill:#FFFFFF;}
</style>
<g>
	<g>
		<g>
			<defs>
				<path id="SVGID_1_" d="M88.19,222.65c0.84,4.87,5.15,7.91,10.3,10.48c19.29,9.64,50.65,9.95,69.01,0.58
					c2.4-1.23,4.77-2.66,6.57-4.34c6.69-6.27,2.87-15.1-7.69-16.37c-7.04-0.85-14.51-0.3-21.72,0.19
					c-14.22,0.96-28.33,3.19-42.72,1.69c-12.77-1.33-24.33-4.82-33.95-11.27c-13.59-9.12-14.33-21.78-2.11-31.85
					c7.62-6.28,16.91-10.8,27.36-14.07c1.4-0.44,2.8-0.87,3.88-1.2c-0.9-2.39-0.97-5.06-2.79-6.62c-1.58-1.35-5.09-1.76-7.83-1.95
					c-2.52-0.17-5.15,0.5-8.26,0.16c1.67-1,3.34-2,5.02-3c-14.45,4.38-28.92,0.62-43.51,0.16c5.02-1.47,10.05-2.94,15.07-4.41
					c-0.08-0.18-0.17-0.35-0.25-0.53c-7.42,1.03-14.84,2.06-22.26,3.09c0-0.15,0-0.3-0.01-0.45c33.55-8.51,67.1-17.03,100.65-25.54
					c-0.16-0.53-0.33-1.07-0.49-1.6c-2.83,0.22-5.74,0.19-8.47,0.7c-6.47,1.2-11.84-0.75-15.56-5c-1.83-2.09-2-4.22-2.95-6.21
					c-1.04-2.2-1.73-4.74-3.12-6.63c-3.17-4.31-0.46-9.69-5.5-13.52c-1.76-1.34-2.33-3.53-3.44-5.33c-0.41,0.03-0.81,0.06-1.22,0.09
					c0.88-1.15,1.77-2.29,2.81-3.64c-2.23-2.68-4.48-5.49-6.91-8.21c-0.53-0.59-1.7-0.93-2.65-1.25
					c-9.83-3.36-19.8-6.51-29.47-10.11c-5.38-2-10.92-4.15-13.81-8.95c11.87,2.92,23.73,5.85,35.6,8.77
					c-13.83-6.93-31.78-8.27-43.28-18.03c0.18-0.29,0.37-0.59,0.55-0.88c12.9,3.2,25.8,6.41,38.7,9.61
					C63.42,41.15,49.49,38.34,44.6,26.9c10.87,4.02,20.88,7.73,30.9,11.43c0.12-0.12,0.25-0.23,0.37-0.35
					c-3.92-2.81-8.35-5.32-11.6-8.5c-3.08-3.01-4.91-6.73-7.28-10.13c0.44-0.17,0.88-0.34,1.32-0.51c6.9,4.08,13.8,8.15,20.69,12.23
					c0.21-0.18,0.43-0.36,0.64-0.54c-2.2-3.02-4.4-6.04-6.6-9.06c0.38-0.19,0.75-0.38,1.13-0.57c3.84,2.75,7.52,5.64,11.57,8.21
					c3.48,2.22,7.29,4.18,11.16,6.01c0.87,0.41,2.6-0.16,5.06-0.38c4.04,4.49,11.88,5.34,19.81,6.24
					c-5.91-3.21-12.09-6.19-17.65-9.7c-5.66-3.57-11-7.47-15.9-11.61c-1.74-1.48-1.76-4.07-2.56-6.16c0.54-0.28,1.08-0.57,1.62-0.85
					c13.76,7.76,27.52,15.53,41.28,23.29c0.33-0.25,0.66-0.51,0.99-0.76c-6.91-6.8-19.64-10.66-20.52-20.51c0.5-0.35,1-0.7,1.5-1.05
					c10.38,7.06,20.76,14.13,31.13,21.19c0.29-0.18,0.59-0.36,0.88-0.54c-0.64-1.01-1.29-2.01-1.93-3.02
					c0.33-0.25,0.65-0.5,0.98-0.75c6.01,3.51,12.29,6.79,17.96,10.58c7.15,4.77,13.79,9.96,20.66,14.96
					c0.77,0.56,1.45,1.38,2.38,1.62c12.49,3.23,17.61,11.99,25.4,18.7c1.28,1.11,1.01,3.49,0.76,5.23
					c-0.73,5.18-1.77,10.34-2.75,15.5c-0.5,2.62,1.28,3.39,4.5,3.53c11.74,0.52,22.85,2.36,32.49,7.89
					c3.12,1.79,7.34,2.49,10.74,4.06c3.68,1.7,6.98,3.85,9.8,6.42c-3.96-1.34-7.91-2.69-11.87-4.03c-0.17,0.26-0.35,0.52-0.52,0.77
					c3.4,1.3,6.8,2.6,10.2,3.9c-0.09,0.27-0.19,0.55-0.28,0.82c-2.41-0.37-4.9-0.58-7.22-1.15c-4.22-1.04-8.23-1.46-12.71-0.43
					c-2.83,0.65-6.27,0.62-9.2,0.12c-6.39-1.08-12.45-0.46-18.25,1.36c-7.43,2.32-14.56,5.18-22,7.48
					c-7.38,2.29-14.99,4.17-22.48,6.27c-3.47,0.97-6.85,2.11-10.34,3.04c-5.24,1.41-10.58,2.61-15.8,4.06
					c-8.26,2.29-15.21,6.02-22.28,11.4c2.59,0,4.01,0.01,5.44,0c16.53-0.14,33.07,0.17,48.86,4.2c6.21,1.58,12.32,3.93,17.61,6.8
					c8.13,4.41,11.66,10.87,11.58,18.67c-1.24,0.13-2.4,0.35-3.57,0.35c-9.64,0.03-19.29,0.06-28.93-0.02
					c-1.4-0.01-3.4-0.28-4.1-0.99c-6.41-6.47-15.7-8.99-25.72-9.98c-10.68-1.06-21.44-0.72-31.85,1.71
					c-5.67,1.32-10.42,3.59-12.48,8.08c-2.72,5.93,0.19,10.69,8.22,12.6c9.4,2.23,19.01,2.08,28.54,0.37
					c12.73-2.28,25.53-4.38,38.69-3.66c6.27,0.34,12.77,1.08,18.61,2.72c19.52,5.47,27.99,20.05,19.39,34.12
					c-3.18,5.2-8.14,10.2-13.78,14.11c-21.64,15-47.72,20.98-77.14,19.17c-13.11-0.8-25.83-2.74-37.64-7.25
					c-10.56-4.03-19.47-9.47-25.92-16.95c-3.65-4.22-5.86-8.81-6.03-14.05C63.16,222.65,75.56,222.65,88.19,222.65z M118.64,138.33
					c-10.57,0.02-16.33,7.83-25.69,8.41c2.59,1.95,5.02,3.79,7.41,5.6c-0.18-0.78-0.39-1.73-0.83-3.7c2.03,2.17,3.29,3.51,4.81,5.13
					c2.77-2.36,7.11-4.41,7.6-6.88C112.7,143.12,115.25,140.94,118.64,138.33z M107.42,153.72c10.12,0.18,15.28-2.86,12.86-7.33
					C116.19,148.72,112.26,150.96,107.42,153.72z"/>
			</defs>
			<use xlink:href="#SVGID_1_"  style="overflow:visible;fill:#FFFFFF;"/>
			<clipPath id="SVGID_00000168103791634121797090000008116513923562914443_">
				<use xlink:href="#SVGID_1_"  style="overflow:visible;"/>
			</clipPath>
			
				<rect x="107.42" y="146.39" style="clip-path:url(#SVGID_00000168103791634121797090000008116513923562914443_);fill:#FFFFFF;" width="15.28" height="7.51"/>
			
				<rect x="92.95" y="138.33" style="clip-path:url(#SVGID_00000168103791634121797090000008116513923562914443_);fill:#FFFFFF;" width="25.69" height="15.44"/>
			
				<rect x="32.3" y="12.68" style="clip-path:url(#SVGID_00000168103791634121797090000008116513923562914443_);fill:#FFFFFF;" width="0.13" height="250.02"/>
			
				<rect x="32.43" y="12.68" style="clip-path:url(#SVGID_00000168103791634121797090000008116513923562914443_);fill:#FFFFFF;" width="230.06" height="250.02"/>
			
				<rect x="262.49" y="12.68" style="clip-path:url(#SVGID_00000168103791634121797090000008116513923562914443_);fill:#FFFFFF;" width="1.03" height="250.02"/>
		</g>
	</g>
	<g>
		<g>
			<defs>
				<path id="SVGID_00000021821349229989412540000012763834841285427842_" d="M651.78,243.99c-13.6,8.57-28.59,14.25-45.77,16.07
					c-26.33,2.79-51.52,0.81-72.32-12.89c-19.57-12.88-25.88-29.37-20.5-48.22c2.01-7.05,7.5-12.83,14.26-17.93
					c1.62-1.22,3.29-2.41,5.21-3.81c-13.61-5.33-19.8-13.78-20.62-24.99c11.95,0,23.66,0,35.38,0c1.53,7.37,12.08,12.03,22.26,11.12
					c11.83-1.05,20.58-5.11,27.7-11.82c2.3-2.17,5.09-4.04,7.63-6.07c12.13-9.72,27.45-12.03,44.29-10.08
					c8.4,0.97,8.96,1.89,8.93,8.15c-0.02,4.49-0.09,8.99-0.16,13.48c0,0.2-0.25,0.41-0.58,0.91c-14.44-4.64-27.71-2.63-40.57,4.66
					c2.03,0.48,3.56,0.81,5.06,1.2c24.65,6.38,42.56,17.61,49.53,37.07c3.09,8.65,6.53,17.26,10.65,25.66
					c5.1,10.43,18.64,15.59,32.06,12.54c3.59-0.82,7.17-2.36,10-4.2c15.69-10.23,19.31-28.79,8.45-42.03
					c-6.67-8.13-16.48-12.29-29.3-12.54c-3.54-0.07-7.08-0.01-10.87-0.01c0-6.26,0-12.19,0-18.24c24.85-2.1,46.13,2.28,61.65,17.59
					c26.2,25.84,17.39,68.05-34.79,79.68c-13.58,3.03-27.41,2.46-40.96-0.42C667.24,256.48,658.36,251.64,651.78,243.99z
					 M592.46,181.25c-5.04,0.62-10.19,0.91-15.09,1.91c-17.47,3.56-29.58,14.18-30.36,26.25c-0.84,12.96,8.3,24.18,24.6,28.49
					c20.04,5.31,39.09,3.23,55.61-6.95c16.8-10.35,16.81-29.31,0.59-40.2C617.82,184.04,605.66,181.81,592.46,181.25z"/>
			</defs>
			<use xlink:href="#SVGID_00000021821349229989412540000012763834841285427842_"  style="overflow:visible;fill:#FFFFFF;"/>
			<clipPath id="SVGID_00000095314236420162913800000003938751872129809292_">
				<use xlink:href="#SVGID_00000021821349229989412540000012763834841285427842_"  style="overflow:visible;"/>
			</clipPath>
			
				<rect x="546.17" y="181.25" style="clip-path:url(#SVGID_00000095314236420162913800000003938751872129809292_);fill:#FFFFFF;" width="97.86" height="61.96"/>
			
				<rect x="507.81" y="133.42" style="clip-path:url(#SVGID_00000095314236420162913800000003938751872129809292_);fill:#FFFFFF;" width="3.69" height="129.44"/>
			
				<rect x="511.49" y="133.42" style="clip-path:url(#SVGID_00000095314236420162913800000003938751872129809292_);fill:#FFFFFF;" width="255.8" height="129.44"/>
			
				<rect x="767.29" y="133.42" style="clip-path:url(#SVGID_00000095314236420162913800000003938751872129809292_);fill:#FFFFFF;" width="13.05" height="129.44"/>
		</g>
	</g>
	<g>
		<g>
			<defs>
				<path id="SVGID_00000183230246084340134590000008029316786097903774_" d="M388.18,247.19c-9.73,6.01-20.81,10.06-33.36,11.45
					c-6.42,0.71-12.99,1.01-19.48,0.99c-6.02-0.02-11.58-1.5-16.16-4.64c-2.39-1.64-4.97-3.11-7.76-4.84
					c-7.98,4.79-16.69,8.4-26.77,9.92c-11.98,1.81-23.89,1.73-35.32-1.67c-14.97-4.45-23.88-12.69-25.35-24.72
					c-1.46-11.98,4.37-21.92,18.9-27.49c10.49-4.02,22.23-6.28,33.47-9.18c6.89-1.78,10.26-5.66,8-10.67
					c-0.84-1.86-3.07-3.99-5.4-4.74c-7.22-2.34-15.13-2.29-21.26,1.32c-3.84,2.25-5.62,6.43-8.86,10.4c-7.3,0-16.29,0-25.92,0
					c0.02-9.76,3.04-18.43,13.93-24.7c7.37-4.24,16.06-5.88,25.15-6.59c10.78-0.85,21.45-0.73,31.67,2.37
					c23.58,7.16,29.54,31.43,10.44,42.58c-2.15,1.26-4.72,2.22-7.28,2.98c-8.5,2.53-17.2,4.71-25.57,7.45
					c-4.02,1.31-8.06,3.17-11.05,5.51c-5.75,4.5-4.49,10.74,2.19,14.48c7.2,4.03,19.89,4.13,27.24,0.18
					c3.76-2.03,5.73-4.82,5.91-8.24c0.12-2.39,0.02-4.79,0.02-7.35c10.74,0,21.41,0,32.39,0c0.11,0.68,0.39,1.34,0.3,1.97
					c-1.03,7.25,3.87,11.77,12.22,14.74c8.78,3.13,16.98,2.16,24.44-2.2c7.62-4.45,12-10.5,14.32-17.37
					c3.66-10.83,0.78-20.59-9.5-28.88c-8.08-6.52-18.08-9.1-29.94-7.33c-1.81,0.27-3.62,0.52-5.66,0.82c0-7.19,0-14.19,0-21.79
					c7.23,0,14.49-0.44,21.61,0.08c30.18,2.21,51.16,21.9,53.64,41.96c0.96,7.73,2.31,15.23,6.54,22.41
					c4.29,7.28,11.01,12.26,21.97,13.27c10.61,0.98,18.78-2.34,24.88-8.58c11.47-11.74,13.88-24.24,4.52-37.29
					c-6.36-8.88-16.76-13.32-30.37-13.51c-3.39-0.05-6.78-0.01-10.47-0.01c0-6.21,0-12.14,0-18.07c27.74-2.91,53.51,3.3,68.54,25.8
					c12.92,19.35,11.02,46.03-19.66,63.53C452.18,264.73,406.94,265.03,388.18,247.19z"/>
			</defs>
			<use xlink:href="#SVGID_00000183230246084340134590000008029316786097903774_"  style="overflow:visible;fill:#FFFFFF;"/>
			<clipPath id="SVGID_00000124874812729968735350000012638242605013179052_">
				<use xlink:href="#SVGID_00000183230246084340134590000008029316786097903774_"  style="overflow:visible;"/>
			</clipPath>
			
				<rect x="222.53" y="159.28" style="clip-path:url(#SVGID_00000124874812729968735350000012638242605013179052_);fill:#FFFFFF;" width="0.55" height="105.75"/>
			
				<rect x="223.08" y="159.28" style="clip-path:url(#SVGID_00000124874812729968735350000012638242605013179052_);fill:#FFFFFF;" width="278.24" height="105.75"/>
			
				<rect x="501.32" y="159.28" style="clip-path:url(#SVGID_00000124874812729968735350000012638242605013179052_);fill:#FFFFFF;" width="6.63" height="105.75"/>
		</g>
	</g>
	<g>
		<g>
			<defs>
				<path id="SVGID_00000141442908820689856340000010118110583463300750_" d="M723.11,302.23c0.9-16.16-2.64-20.15-17.48-20.35
					c-14.08-0.19-18.3,4.37-18.32,20.37c-4.57,0-9.18,0-13.78,0c-4.5,0-8.99,0-13.97,0c0.08-6.44,1.56-13.18-6.71-17.44
					c-5.59-2.88-12.08-2.72-18.45-1.73c-11.55,1.8-14.14,6.84-10.03,19.39c-10.39,0-20.74,0-31.07,0
					c-5.41-9.3-1.89-20.74,8.98-27.17c14.84-8.77,32.01-11.31,50.49-9.04c7.63,0.93,11.64,3.51,20.14,11.29
					c0.55-0.34,1.21-0.61,1.62-1.02c9.06-9.15,21.93-11.43,36.27-11.07c20.06,0.5,37.77,10.47,42.36,24.18
					c1.1,3.29,1.06,6.82,1.08,10.25c0.01,0.78-1.87,2.23-2.92,2.25C742.04,302.31,732.74,302.23,723.11,302.23z"/>
			</defs>
			<use xlink:href="#SVGID_00000141442908820689856340000010118110583463300750_"  style="overflow:visible;fill:#FFFFFF;"/>
			<clipPath id="SVGID_00000048465840456621402530000007339076808322868365_">
				<use xlink:href="#SVGID_00000141442908820689856340000010118110583463300750_"  style="overflow:visible;"/>
			</clipPath>
			
				<rect x="587.91" y="263.98" style="clip-path:url(#SVGID_00000048465840456621402530000007339076808322868365_);fill:#FFFFFF;" width="2.99" height="38.48"/>
			
				<rect x="590.9" y="263.98" style="clip-path:url(#SVGID_00000048465840456621402530000007339076808322868365_);fill:#FFFFFF;" width="162.61" height="38.48"/>
			
				<rect x="753.51" y="263.98" style="clip-path:url(#SVGID_00000048465840456621402530000007339076808322868365_);fill:#FFFFFF;" width="0.75" height="38.48"/>
		</g>
	</g>
</g>
<g>
	<path class="st4" d="M214.49,301.85c-1.52,0-3.05-0.56-4.61-1.68c-0.97-0.75-1.75-1.12-2.33-1.12c-0.62,0-1.5,0.36-2.62,1.07
		c-2.1,1.15-3.99,1.73-5.66,1.73c-4.55,0-6.82-1.71-6.82-5.14c0-1.59,0.9-3,2.71-4.23c1.81-1.23,4-1.85,6.56-1.85
		c3.42,0,5.13,1.03,5.13,3.09c0,0.84-0.44,1.53-1.31,2.06c-0.87,0.53-1.9,0.8-3.06,0.8c-1.56,0-2.33-0.37-2.33-1.12
		c1.13,0,1.69-0.42,1.69-1.26c0-0.9-0.6-1.36-1.81-1.36c-0.66,0-1.23,0.23-1.72,0.68c-0.49,0.45-0.73,0.96-0.73,1.52
		c0,2.12,1.42,3.18,4.26,3.18c1.24,0,2.74-0.65,4.49-1.96c1.13-0.87,1.96-1.31,2.51-1.31c0.97,0,1.67,0.48,2.1,1.45l0.35,0.8
		c0.5,0.81,1.36,1.22,2.57,1.22c4.16,0,6.24-2.04,6.24-6.12c0-1.71-1.29-3.18-3.88-4.39c-2.59-1.21-5.71-1.82-9.36-1.82h-4.26
		c-3.15,0-5.41-0.39-6.77-1.17c-1.36-0.78-2.04-2.23-2.04-4.35c0-1.03,0.89-2.2,2.68-3.5c2.57-1.93,6.07-2.9,10.5-2.9
		c1.44,0,2.37-0.06,2.8-0.19c0.66-0.22,0.99-0.67,0.99-1.36c0-0.28-0.15-0.56-0.44-0.84c-0.29-0.28-0.73-0.42-1.31-0.42
		c-0.31,0.03-0.53,0.08-0.64,0.14c-0.27,0-0.51-0.08-0.7-0.23c-0.08-0.16-0.12-0.3-0.12-0.42c0-0.72,0.56-1.08,1.69-1.08
		c1.17,0,2.22,0.31,3.15,0.93c1.05,0.72,1.58,1.59,1.58,2.62c0,1.65-1.58,2.84-4.72,3.55c-4.47,1-7.66,2.42-9.57,4.25
		c-0.27,0.34-0.41,0.58-0.41,0.7c0,0.56,0.39,0.99,1.17,1.29c0.78,0.3,1.69,0.46,2.74,0.49l3.85,0.05c5.52,0,9.92,0.86,13.21,2.57
		c3.29,1.71,4.93,4.02,4.93,6.92c0,1-0.21,1.95-0.64,2.85c1.2,1.43,3.13,2.15,5.77,2.15c1.94,0,3.61-0.7,4.99-2.1
		c1.38-1.4,2.07-3.07,2.07-5c0-1.5-0.47-2.76-1.4-3.79c-0.93-1.03-2.06-1.54-3.38-1.54c-0.43,0-0.82,0.08-1.17,0.26
		c-0.35,0.17-0.65,0.51-0.9,1.03c-0.25,0.51-0.44,0.77-0.55,0.77c-0.74,0-1.41-0.2-2.01-0.58c-0.6-0.39-0.9-0.9-0.9-1.52
		c0-0.56,0.42-1.04,1.25-1.43c0.84-0.39,1.84-0.58,3-0.58c2.95,0,5.54,0.87,7.76,2.62c2.22,1.75,3.32,3.96,3.32,6.64
		c0,2.43-1.19,4.51-3.56,6.24c-2.37,1.73-5.21,2.59-8.52,2.59c-2.22,0-4.14-0.42-5.77-1.26c-1.01-0.5-1.71-1.09-2.1-1.78l-0.58,0.47
		C219.62,300.95,217.17,301.85,214.49,301.85z"/>
	<path class="st4" d="M249.95,307.56c-1.44,0-2.64-0.52-3.59-1.57c-0.95-1.04-1.43-2.42-1.43-4.14c0-1.78,1.11-3.77,3.32-5.98
		c2.1-2.12,3.93-3.18,5.48-3.18l0.99,1.12c2.45,2.71,5.21,4.07,8.28,4.07c2.18,0,4.08-0.44,5.72-1.31c2.06-1.18,3.09-2.87,3.09-5.05
		c0-1.53-1.14-2.82-3.41-3.88c-2.28-1.06-4.99-1.59-8.14-1.59h-3.32c-3.69,0-6.2-0.43-7.52-1.28c-1.32-0.86-1.98-2.27-1.98-4.23
		c0-1.28,1.23-2.66,3.7-4.16c2.47-1.5,5.63-2.24,9.48-2.24c1.52,0,2.53-0.13,3.03-0.4c0.5-0.27,0.76-0.65,0.76-1.14
		c0-0.84-0.52-1.26-1.58-1.26c-0.27,0-0.54,0.05-0.82,0.14c-0.51,0-0.76-0.22-0.76-0.65c0-0.72,0.54-1.08,1.63-1.08
		c1.2,0,2.3,0.33,3.3,1c0.99,0.67,1.49,1.52,1.49,2.55c0,1.59-1.59,2.77-4.78,3.55c-4.43,0.97-7.62,2.38-9.57,4.25
		c-0.16,0.28-0.25,0.59-0.29,0.93c0,1.06,2.35,1.59,7.06,1.59c5.13,0,9.23,0.87,12.31,2.62c3.07,1.75,4.61,4.07,4.61,6.97
		c0,2.65-1.32,4.8-3.97,6.45c-2.64,1.65-6.05,2.48-10.21,2.48c-1.98,0-4.18-0.69-6.59-2.06c-2.06-1.25-3.29-2.37-3.67-3.37
		c-0.55,0-1.03,0.41-1.46,1.22c-0.51,0.75-0.76,1.5-0.76,2.24c0,1.74,0.17,2.91,0.52,3.51c0.54,0.78,1.65,1.17,3.33,1.17
		c0,0.9-0.49,1.59-1.46,2.06C251.98,307.34,251.04,307.56,249.95,307.56z"/>
	<path class="st4" d="M323.16,301.85c-1.71,0-3.71-0.72-6.01-2.15c-1.4-0.87-2.41-1.31-3.03-1.31c-0.86,0-1.81,0.53-2.86,1.59
		c-1.21,1.25-2.39,1.87-3.56,1.87c-2.3,0-4.28-0.82-5.95-2.48c-1.67-1.65-2.51-3.38-2.51-5.19c0-0.87,0.16-1.93,0.47-3.18h-3.91
		c-2.99,0-4.49-0.84-4.49-2.52c0-0.53,0.35-0.97,1.05-1.33c0.7-0.36,1.46-0.54,2.27-0.54c0.51,0.9,1.16,1.48,1.95,1.73
		c0.8,0.25,2.46,0.37,4.99,0.37c0.23-0.34,0.64-0.75,1.22-1.22l0.29-0.33c3.73-2.9,8.54-4.35,14.41-4.35c3.19,0,5.88,0.3,8.08,0.91
		c2.2,0.61,3.3,1.39,3.3,2.36c0,1.12-1.32,1.68-3.97,1.68c-0.78,0-1.52-0.06-2.22-0.19c0-1.71-1.98-2.57-5.95-2.57
		c-4.9,0-8.24,1.23-10.03,3.69l5.6-0.05l30.86,0.09c0.86-0.53,1.28-1.39,1.28-2.57c0-0.84-0.24-1.57-0.73-2.17
		c-0.49-0.61-1.12-0.91-1.9-0.91c-1.09,0-1.63,0.64-1.63,1.92c0,0.81,0.39,1.31,1.17,1.5l-1.46,1.5c-1.44,0-2.74-0.27-3.91-0.8
		c-1.17-0.53-1.75-1.26-1.75-2.2c0-1.15,0.85-2.12,2.57-2.9c1.71-0.78,3.67-1.17,5.89-1.17c5.13,0,7.7,1.45,7.7,4.35
		c0,1.21-1.3,2.51-3.91,3.88c3.34,0.87,5.02,2.42,5.02,4.63c0,1.53-0.91,2.8-2.74,3.83c-1.83,1.03-3.95,1.54-6.36,1.54
		c-2.22,0-4.11-0.39-5.69-1.17c-1.57-0.78-2.36-1.76-2.36-2.95c0-1.71,0.89-3.04,2.68-3.97h-5.37c0.66,0.87,0.99,2.04,0.99,3.51
		c0,1.84-0.97,3.5-2.92,5C327.8,301.1,325.61,301.85,323.16,301.85z M321.99,298.25c1.28,0,2.6-0.54,3.94-1.61
		c1.34-1.08,2.01-2.3,2.01-3.67c0-1.43-0.62-2.15-1.87-2.15c-1.28,0-1.92,0.56-1.92,1.68c0,0.72,0.37,1.08,1.11,1.08
		c0.31,0,0.68-0.11,1.11-0.33v0.28c0,1.74-1.07,2.62-3.21,2.62c-3.34,0-5.02-1.18-5.02-3.55c0-0.75,0.23-1.31,0.7-1.68l-13.36,0.14
		l-0.12,1.54c0,3.3,1.26,4.96,3.79,4.96c1.05,0,2.02-0.75,2.92-2.24c0.78-1.4,1.61-2.1,2.51-2.1c1.24,0,2.28,0.78,3.09,2.34
		C318.37,297.35,319.81,298.25,321.99,298.25z M312.31,282.5l-0.82-0.94c-1.75-1.74-2.62-3.1-2.62-4.07c0-0.59,0.28-1.14,0.85-1.66
		c0.56-0.51,1.29-0.77,2.19-0.77c0.93,0,1.73,0.23,2.39,0.7c0.66,0.47,0.99,1.04,0.99,1.73
		C315.28,278.56,314.29,280.23,312.31,282.5z M319.36,282.5c-2.45-1.74-3.67-3.35-3.67-4.81c0-1.71,1.09-2.57,3.27-2.57
		c2.02,0,3.03,0.86,3.03,2.57C321.99,278.81,321.11,280.41,319.36,282.5z M343.22,296.85c1.67,0,2.51-0.86,2.51-2.57
		c0-1.87-1.01-2.8-3.03-2.8h-0.29c-1.17,0.78-1.75,1.62-1.75,2.52c0,0.81,0.26,1.49,0.79,2.03
		C341.97,296.58,342.56,296.85,343.22,296.85z"/>
	<path class="st4" d="M368.3,301.85c-4.98,0-8.87-0.95-11.67-2.85c-2.02-1.53-3.03-3.18-3.03-4.96c0-2.65,1.44-4.42,4.32-5.33
		c-2.33-0.78-3.5-2.01-3.5-3.69c0-1.68,1.05-3.02,3.15-4.02c2.1-1,5.02-1.5,8.75-1.5c5.99,0,10.4,1.04,13.24,3.13
		c2.84,2.09,4.26,4.72,4.26,7.9c0,3.46-1.38,6.21-4.14,8.25C376.91,300.83,373.12,301.85,368.3,301.85z M368.3,299.51
		c3.27,0,5.68-0.92,7.23-2.76c1.55-1.84,2.33-3.8,2.33-5.89c0-2.74-0.9-4.98-2.71-6.73c-1.81-1.74-4.5-2.62-8.08-2.62
		c-4.43,0-6.65,1.26-6.65,3.79c0,0.53,0.21,1.04,0.64,1.52c0.43,0.48,0.91,0.72,1.46,0.72c1.44,0,2.16-0.58,2.16-1.73
		c0-1.15-0.47-1.73-1.4-1.73c0.97-0.62,1.83-0.93,2.57-0.93c1.01,0,1.84,0.26,2.48,0.77c0.64,0.51,0.96,1.14,0.96,1.89
		c0,0.93-0.71,1.76-2.13,2.48c-1.42,0.72-3.14,1.08-5.16,1.08c-1.48,0.9-2.22,2.26-2.22,4.07c0,1.65,0.84,3.08,2.51,4.28
		S365.97,299.51,368.3,299.51z"/>
	<path class="st4" d="M421.26,301.85c-1.52,0-3.05-0.56-4.61-1.68c-0.97-0.75-1.75-1.12-2.33-1.12c-0.62,0-1.5,0.36-2.62,1.07
		c-2.1,1.15-3.99,1.73-5.66,1.73c-4.55,0-6.82-1.71-6.82-5.14c0-1.59,0.9-3,2.71-4.23c1.81-1.23,4-1.85,6.56-1.85
		c3.42,0,5.13,1.03,5.13,3.09c0,0.84-0.44,1.53-1.31,2.06c-0.87,0.53-1.9,0.8-3.06,0.8c-1.56,0-2.33-0.37-2.33-1.12
		c1.13,0,1.69-0.42,1.69-1.26c0-0.9-0.6-1.36-1.81-1.36c-0.66,0-1.23,0.23-1.72,0.68c-0.49,0.45-0.73,0.96-0.73,1.52
		c0,2.12,1.42,3.18,4.26,3.18c1.24,0,2.74-0.65,4.49-1.96c1.13-0.87,1.96-1.31,2.51-1.31c0.97,0,1.67,0.48,2.1,1.45l0.35,0.8
		c0.5,0.81,1.36,1.22,2.57,1.22c4.16,0,6.24-2.04,6.24-6.12c0-1.71-1.29-3.18-3.88-4.39c-2.59-1.21-5.71-1.82-9.36-1.82h-2.8
		c-4.12,0-6.86-0.39-8.22-1.17c-1.36-0.78-2.04-2.23-2.04-4.35c0-1.03,0.89-2.2,2.68-3.5c2.57-1.93,6.07-2.9,10.5-2.9
		c1.44,0,2.37-0.06,2.8-0.19c0.66-0.22,0.99-0.67,0.99-1.36c0-0.28-0.15-0.56-0.44-0.84c-0.29-0.28-0.73-0.42-1.31-0.42
		c-0.31,0.03-0.53,0.08-0.64,0.14c-0.27,0-0.51-0.08-0.7-0.23c-0.08-0.16-0.12-0.3-0.12-0.42c0-0.72,0.56-1.08,1.69-1.08
		c1.17,0,2.22,0.31,3.15,0.93c1.05,0.72,1.58,1.59,1.58,2.62c0,1.65-1.58,2.84-4.72,3.55c-4.47,1-7.66,2.42-9.57,4.25
		c-0.19,0.28-0.31,0.59-0.35,0.93c0,0.41,0.38,0.76,1.14,1.05c0.76,0.3,1.66,0.44,2.71,0.44l3.85,0.09c5.52,0,9.92,0.86,13.21,2.57
		c3.29,1.71,4.93,4.02,4.93,6.92c0,1.03-0.23,2.01-0.7,2.94c1.32,1.31,2.92,1.96,4.78,1.96c1.36,0,2.43-0.44,3.21-1.31
		c0.58-0.53,0.87-1.09,0.87-1.68c0-0.84-0.82-2.31-2.45-4.39c-0.66-0.84-0.99-1.42-0.99-1.73c0-0.56,0.33-1.04,0.99-1.43
		c0.66-0.39,1.44-0.58,2.33-0.58c0.54,0,1.01,0.11,1.4,0.33c0.39,0.22,0.58,0.47,0.58,0.75c0,0.84,0.39,2.03,1.17,3.55
		c0.89,1.56,1.34,2.74,1.34,3.55c0.39,0.69,0.97,1.29,1.75,1.82c1.09,0.69,2.31,1.03,3.67,1.03c1.4,0,2.7-0.59,3.91-1.78
		c1.4-1.4,2.1-3.12,2.1-5.14c0-1.5-0.49-2.76-1.46-3.79c-0.97-1.03-2.12-1.54-3.44-1.54c-1.01,0-1.63,0.34-1.87,1.03
		c-0.19,0.12-0.36,0.33-0.5,0.61c-0.14,0.28-0.24,0.42-0.32,0.42c-0.78,0-1.45-0.2-2.01-0.61c-0.56-0.4-0.85-0.9-0.85-1.49
		c0-1.03,0.93-1.7,2.8-2.01c0.54-0.06,1.09-0.09,1.63-0.09c4.08,0,7.14,1.37,9.16,4.11c1.17,1.59,1.75,3.37,1.75,5.33
		c0,2.43-1.02,4.51-3.06,6.24c-2.04,1.73-4.5,2.59-7.38,2.59c-1.44,0-2.81-0.27-4.11-0.82c-1.3-0.54-2.36-1.31-3.18-2.31
		c-0.7,1-1.61,1.77-2.74,2.31c-1.13,0.55-2.31,0.82-3.56,0.82c-3.07,0-5.5-1.14-7.29-3.41C426.96,300.7,424.22,301.85,421.26,301.85
		z"/>
	<path class="st4" d="M483.32,285.96c-2.14,0-3.97-0.57-5.48-1.71c-1.52-1.14-2.28-2.5-2.28-4.09c0-1.59,0.7-2.87,2.1-3.83
		c2.57-1.81,5.95-2.71,10.15-2.71c1.48,0,2.49-0.11,3.03-0.33c0.54-0.22,0.82-0.64,0.82-1.26c0-0.93-0.52-1.4-1.57-1.4h-0.41
		l-0.47,0.19c-0.55,0-0.82-0.25-0.82-0.75c0-0.72,0.58-1.08,1.75-1.08c1.2,0,2.3,0.33,3.3,1.01c0.99,0.67,1.49,1.57,1.49,2.69
		c0,1.68-1.59,2.92-4.78,3.69c-2.57,0.47-4.93,1.17-7.09,2.1c-2.16,0.94-3.24,1.93-3.24,2.99c0,0.56,0.35,1.04,1.05,1.43
		c0.7,0.39,1.54,0.58,2.51,0.58l2.45,0.05c5.4,0.12,9.68,1.01,12.83,2.66c3.34,1.78,5.02,4.3,5.02,7.57c0,2.18-1.1,4.07-3.3,5.66
		c-2.2,1.59-4.66,2.38-7.38,2.38c-1.91,0-3.85-0.73-5.83-2.2c-1.17-0.87-2.08-1.31-2.74-1.31c-0.78,0-1.67,0.51-2.68,1.54
		c-1.28,1.31-2.59,1.96-3.91,1.96c-1.56,0-3.12-0.55-4.7-1.64c-1.58-1.09-2.36-2.55-2.36-4.39c0-2.8,2.22-4.75,6.65-5.84l-5.48,0.42
		c-2.84,0.31-4.26,1.46-4.26,3.46c-2.84-1.34-4.26-2.55-4.26-3.65c0-1.65,1.34-2.48,4.02-2.48l13.12,0.37
		c1.75,0,2.62,0.44,2.62,1.31c0,0.47-0.64,0.84-1.92,1.12c-2.8,0.68-4.2,2.04-4.2,4.07c0,2.18,0.89,3.27,2.68,3.27
		c1.01,0,1.94-0.78,2.8-2.34c0.82-1.37,1.61-2.06,2.39-2.06c0.82,0,1.67,0.7,2.57,2.1c1.2,2.03,2.66,3.04,4.37,3.04
		c0.7,0,1.47-0.21,2.3-0.63c0.84-0.42,1.49-0.96,1.95-1.64c0.47-0.67,0.7-1.75,0.7-3.25c0-4.74-4.08-7.1-12.25-7.1H483.32z"/>
	<path class="st4" d="M502.63,313.77c-1.4,0-2.59-0.4-3.59-1.19c-0.99-0.8-1.49-1.75-1.49-2.87c0-1.9,1.32-3.27,3.97-4.11h-0.47
		c-3.54,0.19-5.31,0.81-5.31,1.87l0.06,1.08c-0.78-0.25-1.55-0.68-2.3-1.29c-0.76-0.61-1.14-1.13-1.14-1.57
		c0-1.12,0.82-1.68,2.45-1.68h9.62c1.25,0,1.87,0.4,1.87,1.22c0,0.4-0.17,0.79-0.52,1.17l-0.76-0.51l-0.23-0.05
		c-0.78,0-1.42,0.27-1.92,0.82c-0.5,0.55-0.76,1.21-0.76,1.99c0,1.49,0.58,2.24,1.75,2.24c0.78,0,1.48-0.58,2.1-1.73
		c0.58-0.87,1.09-1.31,1.52-1.31c0.58,0,1.22,0.47,1.92,1.4c0.85,1.15,1.83,1.73,2.92,1.73c1.24,0,2.29-0.58,3.15-1.75
		c0.85-1.17,1.28-2.59,1.28-4.28c0-1.99-0.62-3.74-1.87-5.23c-1.24-1.5-2.72-2.24-4.43-2.24c-0.55,0-1.09,0.08-1.63,0.23
		c-0.55,0.16-0.97,0.23-1.28,0.23c-0.47,0-0.7-0.17-0.7-0.51c0-0.59,0.33-1.28,0.99-2.06c0.66-0.78,1.65-1.17,2.97-1.17
		c1.24,0,2.57,0.47,3.97,1.4c4.24,2.87,6.36,6.34,6.36,10.42c0,2.06-0.82,3.81-2.45,5.26c-1.63,1.45-3.6,2.17-5.89,2.17
		c-1.01,0-2.22-0.45-3.62-1.36l-1.05-0.65c-0.31-0.16-0.58-0.23-0.82-0.23c-0.51,0-1.09,0.36-1.75,1.08
		C504.58,313.27,503.6,313.77,502.63,313.77z"/>
	<path class="st4" d="M556.23,295.59c0.31,0.5,0.84,0.97,1.58,1.4c1.17,0.75,2.66,1.12,4.49,1.12c1.94,0,3.62-0.7,5.02-2.1
		c1.4-1.4,2.1-3.07,2.1-5c0-1.5-0.48-2.76-1.43-3.79c-0.95-1.03-2.09-1.54-3.41-1.54c-0.39,0-0.76,0.08-1.11,0.26
		c-0.35,0.17-0.66,0.51-0.93,1.03c-0.27,0.51-0.45,0.77-0.53,0.77c-0.78,0-1.46-0.2-2.04-0.58c-0.58-0.39-0.88-0.9-0.88-1.52
		c0-0.56,0.43-1.04,1.28-1.43c0.85-0.39,1.83-0.58,2.92-0.58c2.95,0,5.53,0.87,7.73,2.62c2.2,1.75,3.3,3.96,3.3,6.64
		c0,2.43-1.17,4.51-3.5,6.24c-2.33,1.73-5.17,2.59-8.52,2.59c-2.22,0-4.14-0.42-5.77-1.26c-1.09-0.56-1.81-1.25-2.16-2.06
		c-0.27,0.28-0.56,0.55-0.88,0.79c-2.18,1.78-4.51,2.66-7,2.66c-1.95,0-3.89-0.87-5.83-2.62c-1.01-0.9-1.77-1.36-2.28-1.36
		c-0.62,0-1.42,0.5-2.39,1.5c-1.75,1.65-3.46,2.48-5.13,2.48c-1.63,0-3.38-0.78-5.25-2.34c-1.87-1.56-2.8-3.55-2.8-5.98
		c0-2.77,0.94-5.13,2.83-7.08c1.89-1.95,4.25-2.92,7.09-2.92c4.16,0,6.24,1.49,6.24,4.49c0,3.21-2.02,4.81-6.07,4.81
		c-2.3,0-3.44-0.86-3.44-2.57c0-1.21,0.53-1.82,1.58-1.82l-0.06,0.33c0,0.75,0.5,1.12,1.52,1.12c0.89,0,1.34-0.45,1.34-1.36
		c0-1.31-0.72-1.96-2.16-1.96c-1.13,0-2.05,0.5-2.77,1.5c-0.72,1-1.08,2.13-1.08,3.41c0,1.59,0.52,2.96,1.57,4.11
		c1.05,1.15,2.37,1.73,3.97,1.73c1.59,0,2.88-0.78,3.85-2.34c0.54-0.96,1.13-1.45,1.75-1.45c0.66,0,1.38,0.62,2.16,1.87
		c1.28,2.12,2.94,3.18,4.96,3.18c3.54,0,5.31-2.46,5.31-7.39c0-1.43-0.36-2.66-1.08-3.69c-0.72-1.03-1.8-1.54-3.24-1.54
		c-0.97,0-1.63,0.31-1.98,0.93l-0.12,0.47c-0.12,0.44-0.31,0.65-0.58,0.65c-1.87,0-2.8-0.72-2.8-2.15c0-1.31,0.97-2.02,2.92-2.15
		l0.82-0.09c1.55,0,3.23,0.31,5.02,0.94c4.24,1.53,6.36,4.38,6.36,8.55C556.7,293.98,556.54,294.81,556.23,295.59z M532.03,282.97
		l0.06-0.28c0-0.37-0.41-0.84-1.23-1.4c-1.24-0.75-1.87-1.48-1.87-2.2c0-1.25,1.05-1.87,3.15-1.87c0.89,0,1.69-0.28,2.39-0.84
		l0.12,0.05c0.23,0.13,0.35,0.33,0.35,0.61c0,0.56-0.22,1.22-0.67,1.99c-0.45,0.76-0.67,1.5-0.67,2.22c0,0.72-0.1,1.19-0.29,1.4
		C533.17,282.86,532.73,282.97,532.03,282.97z"/>
	<path class="st4" d="M537.86,312.84c-1.01,0-1.93-0.43-2.77-1.28c-0.84-0.86-1.25-1.86-1.25-3.02c0-1.34,0.55-2.44,1.66-3.3
		c1.11-0.86,2.69-1.29,4.75-1.29c2.3,0,4.04,0.9,5.25,2.71c0.35-0.81,1.04-1.46,2.07-1.96c1.03-0.5,2.19-0.75,3.47-0.75
		c1.75,0,3.14,0.4,4.17,1.22c1.03,0.81,1.55,1.87,1.55,3.18c0,1.34-0.53,2.4-1.58,3.18c-1.05,0.78-2.33,1.17-3.85,1.17
		c-1.52,0-2.27-0.56-2.27-1.68c0.86,0,1.69-0.21,2.51-0.63c0.82-0.42,1.22-1.08,1.22-1.99c0-1.56-0.84-2.34-2.51-2.34
		c-1.05,0-1.91,0.25-2.6,0.75c-0.68,0.5-1.02,1.18-1.02,2.06s-0.49,1.31-1.46,1.31c-1.05,0-1.58-0.78-1.58-2.34
		c0-1.09-0.84-1.64-2.51-1.64c-0.89,0-1.67,0.29-2.33,0.86c-0.66,0.58-0.99,1.33-0.99,2.27c0,1.37,0.7,2.06,2.1,2.06
		C539.9,312.35,539.22,312.84,537.86,312.84z"/>
</g>
</svg>
