<?xml version="1.0" encoding="utf-8"?>
<!-- Generator: Adobe Illustrator 27.3.1, SVG Export Plug-In . SVG Version: 6.00 Build 0)  -->
<svg version="1.1" id="Layer_1" xmlns="http://www.w3.org/2000/svg" xmlns:xlink="http://www.w3.org/1999/xlink" x="0px" y="0px"
	 viewBox="0 0 512 512" style="enable-background:new 0 0 512 512;" xml:space="preserve">
<g>
	<path d="M262.88,381.97c-13.8,10.54-29.1,15.7-46.17,15.23c-17-0.47-31.83-6.82-45.14-17.08c-0.73,0.77-0.59,1.73-0.71,2.62
		c-0.76,5.56-3.89,8.84-9.44,9.42c-6.25,0.65-12.53,1.07-18.8,1.51c-11.63,0.82-23.25,1.66-34.89,2.34
		c-4.17,0.24-8.36,0.9-12.55,0.23c-5.44-0.86-10.59-5.27-9.98-11.46c0.21-2.08,0.42-4.16,0.7-6.24c0.77-5.72,1.2-11.51,2.44-17.13
		c2.22-10.03,3.09-20.25,4.7-30.36c1.61-10.15,2.86-20.36,4.29-30.54c1.23-8.78,2.47-17.56,3.73-26.33
		c0.58-4.05,0.96-8.16,1.85-12.14c0.8-3.59,1.68-7.34,5.54-9.21c0.95-0.46,1.49-1.27,1.62-2.38c0.33-2.82,2.25-3.7,4.77-3.77
		c1.43-0.04,2.86-0.1,4.28,0.02c1.77,0.16,1.97-0.75,1.72-2.14c-0.25-1.45-1-2.69-1.8-3.85c-4.44-6.48-7.86-13.56-12.13-20.13
		c-1.59-2.44-1.84-4.9-0.7-7.6c0.71-1.68,1.32-3.43,1.23-5.34c-0.1-2.06-0.96-3.05-3.15-2.89c-4.13,0.29-7.64,2.4-11.32,3.91
		c-7.28,2.99-14.73,5.34-22.41,7.05c-0.47,0.1-0.97,0.21-0.91-0.29c0.42-3.17-1.95-1.31-2.57-1.16c-5.29,1.27-10.57,1.72-15.95,0.75
		c-0.16-0.03-0.34-0.01-0.5-0.05c-0.96-0.29-2.28-0.39-2.61-1.27c-0.42-1.12,1.44-0.84,1.76-1.99c-1.79-0.46-3.59-0.89-5.37-1.4
		c-0.88-0.25-1.75-0.58-2.56-1c-1.08-0.57-1.96-1.4-1.89-2.74c0.07-1.35,1.25-1.71,2.25-2.08c5.16-1.92,10.36-3.74,15.52-5.68
		c9.79-3.68,19.34-7.88,28.77-12.39c6.37-3.05,12.25-6.81,18.04-10.76c0.17-0.12,0.24-0.39,0.48-0.79c-3.44-0.2-6.57-0.81-8.86-3.51
		c-0.83-0.99-1.81-2.11-1.73-3.25c0.18-2.8-1.48-3.84-3.46-5.31c-3.01-2.24-3.42-4.14-2.48-6.94c0.31-0.93,0.27-1.32-0.57-1.74
		c-4-1.98-5.23-4.67-3.94-8.85c0.37-1.19,0.57-1.77-0.89-2.47c-2.89-1.37-3.74-4.68-2.27-8.3c0.61-1.5,0.92-2.32-0.92-3.26
		c-2.72-1.38-3.36-4.25-3.02-6.94c0.27-2.16-0.74-2.94-2.25-3.59c-4.91-2.12-9.1-5.29-13.09-8.76c-1.13-0.99-2.16-2.07-3.04-3.68
		c4.48-0.08,8.57,1.37,12.91,1.34c-11.18-4.73-22.27-9.52-25.45-23c10.69,4.83,21.43,9.25,32.78,12.08c-2.1-1.91-4.8-2.75-7.11-4.26
		c-4.5-2.94-8.61-6.34-12.64-9.91c-3.4-3.01-5.69-6.45-7.07-10.66c-0.46-1.4-0.47-2.77-0.34-4.68C62.8,77.18,74.28,84.19,87.4,89.62
		c-1.21-1.26-1.92-2.12-2.74-2.84c-4.8-4.14-8.49-9.21-11.64-14.62c-2.31-3.98-3.04-8.47-2.37-13.09c0.08-0.54,0.35-1.25,0.76-1.48
		c0.63-0.35,0.98,0.41,1.36,0.82c4.09,4.41,7.38,9.55,12.07,13.38c6.37,5.19,12.81,10.32,20.39,13.85
		c-2.83-2.24-5.04-4.96-7.05-7.88c-2.87-4.15-4.56-8.72-5.31-13.66c-0.11-0.74-0.12-1.51-0.07-2.26c0.13-1.75,0.01-4.11,1.73-4.65
		c1.47-0.47,1.99,1.9,2.77,3.06c5.39,8.07,11.87,15.2,19.3,21.33c9.88,8.15,20.94,14.63,32.16,20.8c5.57,3.06,10.98,6.48,15.89,10.5
		c8.13,6.65,10.4,15.25,7.5,25.26c-0.68,2.36-1.04,4.75-0.78,7.19c0.41,3.78,2.21,5.28,5.97,5.27c3.4,0,6.58-1.15,9.87-1.7
		c8.97-1.49,17.12,0.25,24.45,5.67c1.92,1.42,3.68,3.09,4.67,5.2c1.33,2.84,3.69,3.94,6.39,4.73c4.68,1.37,8.78,3.76,12.12,7.29
		c1.74,1.84,3.45,3.8,4.25,6.32c0.32,0.99,0.28,1.95,0.06,3.31c-21.57-8.78-41.72-8.36-59.9,8.88c4.33,0,8.15,0,11.97,0
		c3.53,0,7.06-0.15,10.58,0.05c3.27,0.19,6.35,1.31,7.97,4.37c1.65,3.12,1.07,6.37-0.71,9.35c-0.87,1.46-2.77,2.16-3.29,4.56
		c5.85-2.31,11.49-4.03,17.61-3.89c6.12,0.14,11.61,2.05,17.39,4.79c0-2.56-0.07-4.93,0.02-7.28c0.09-2.67-0.32-5.37,0.58-7.98
		c1.12-3.25,3.91-5.41,7.35-5.47c4.03-0.07,8.06-0.1,12.09-0.01c5.04,0.1,9.1,4.2,9.23,9.23c0.06,2.26,0.05,4.53,0.01,6.8
		c-0.02,1.13,0.08,1.58,1.53,1.26c3.02-0.67,6.11-0.87,9.25-0.55c4.12,0.43,7.79,1.81,10.95,4.5c0.67,0.57,1.36,1.03,2.09,0.01
		c2.71-3.76,6.8-4.24,10.94-4.46c2.43-0.13,4.87-0.1,7.3-0.07c4.54,0.05,8.21,1.55,9.89,6.19c0.2-0.05,0.41-0.04,0.44-0.11
		c1.85-4.52,5.55-5.96,10.06-6.04c3.61-0.06,7.34-0.7,10.77,0.38c3.04,0.96,5.64,0.98,8.71,0.11c3.95-1.12,8.34-1.25,12.23-0.3
		c3.48,0.85,6.31,0.43,9.38-0.84c2.23-0.92,4.65-0.63,6.97-0.46c1.65,0.12,1.98-0.48,1.98-1.96c0-2.34-0.25-4.68,0.28-7.02
		c0.92-4.08,3.55-6.53,7.67-6.64c4.53-0.12,9.07-0.11,13.6,0c4.01,0.1,7.31,3.48,7.55,7.67c0.15,2.59,0.11,5.2,0.04,7.8
		c-0.04,1.36,0.2,1.91,1.8,1.74c3-0.33,6.03-0.47,9.04-0.5c5.33-0.05,8.11,1.52,10.99,5.99c0.14-0.04,0.38-0.04,0.43-0.13
		c2.02-4.19,5.57-5.81,9.99-5.89c3.27-0.06,6.55-0.03,9.82-0.05c5.07-0.03,9.2,5.13,9.22,9.18c0.08,14.01,0.06,28.02,0.07,42.03
		c0,0.33,0.08,0.77-0.1,0.99c-2.07,2.52-0.32,4.78,0.35,7.16c0.83,2.96,0.3,5.99,0.09,9c-0.44,6.57-2.24,12.94-2.97,19.47
		c-0.34,3.02-2.29,5.37-4.16,7.61c-7.2,8.6-14.24,17.35-21.8,25.63c-5.54,6.06-10.64,12.46-15.99,18.67
		c-0.88,1.02-2.54,1.4-2.62,3.14c1.38,0.7,2.79,0.24,4.19,0.18c7.88-0.38,15.76-0.71,23.63-1.11c6.85-0.35,13.08,3.59,11.75,13.27
		c-1.21,8.87-2.53,17.72-3.74,26.59c-0.86,6.29-5.3,9.36-11.25,9.84c-13.55,1.09-27.13,1.74-40.69,2.64
		c-13.89,0.93-27.77,1.97-41.65,2.89c-3.09,0.21-6.21,0.24-9.31,0.12c-5.35-0.2-8.77-2.8-10.38-7.85c-0.43-1.36-1.06-1.87-2.47-1.78
		c-9.29,0.63-18.58,1.21-27.87,1.8c-11.13,0.71-22.26,1.56-33.4,2.06c-5.5,0.25-9.62-2.67-11.28-7.17
		C262.52,387.38,263.32,384.83,262.88,381.97z M408.02,299.16c-2.19,2.74-4.3,4.96-6.25,7.29c-10.47,12.49-21.01,24.92-31.67,37.24
		c-4,4.63-7.63,9.61-11.9,13.97c-3.73,3.8-6.98,7.6-7.38,13.15c-0.1,1.33-0.25,2.67-0.42,3.99c-0.67,5.39-1.4,10.78-2.02,16.17
		c-0.21,1.8,0.51,2.88,2.58,2.71c3.34-0.26,6.7-0.37,10.04-0.63c12.28-0.94,24.55-1.93,36.83-2.86c13.7-1.03,27.41-2.05,41.12-2.98
		c1.97-0.13,2.81-0.86,3.06-2.81c1.07-8.29,2.23-16.57,3.4-24.85c0.25-1.79-0.48-2.42-2.21-2.35c-4.44,0.19-8.89,0.3-13.33,0.47
		c-11.06,0.41-22.13,0.85-33.19,1.24c-0.69,0.02-1.69,0.42-2.03-0.4c-0.33-0.78,0.62-1.28,1.07-1.84c2.77-3.43,5.52-6.88,8.54-10.12
		c4.78-5.13,8.81-10.9,13.58-16.07c5.76-6.25,10.66-13.27,16.54-19.46c4.89-5.15,8.73-11.22,13.94-16.12
		c1.55-1.46,2.56-3.21,2.77-5.46c0.59-6.5,1.31-12.98,2.01-19.47c0.43-3.97,0.11-4.44-3.88-4.25c-11.14,0.52-22.29,1.07-33.42,1.69
		c-16.49,0.92-32.98,1.94-49.48,2.84c-5.78,0.32-6.07,0.19-6.73,5.7c-0.94,7.94-2.68,15.77-3.19,23.76c-0.1,1.62,0.41,2.55,2.27,2.4
		c3.18-0.25,6.36-0.36,9.54-0.59c8.53-0.6,17.05-1.33,25.58-1.79C398.37,299.52,402.94,298.7,408.02,299.16z M277.38,345.07
		c7.25-28.99-2.22-53.74-23.39-68.16c-22.13-15.08-53.83-15.13-76.38,4.24c-18.94,16.26-26.13,41.11-18.91,64.74
		c2.37-4.54,6.12-7.48,9.78-10.49c1.56-1.28,3.28-2.31,5.07-3.24c1.55-0.81,2.17-0.3,2.28,1.29c0.1,1.42,0.22,2.83,0.32,4.25
		c0.32,4.51,1.01,9.03,0.19,13.54c-0.75,4.14-2.12,7.98-6.44,9.83c-1.76,0.75-0.73,1.78-0.15,2.56c2.8,3.75,5.81,7.23,9.5,10.26
		c9.97,8.19,21.34,12.62,34.08,13.88c15.34,1.51,29.16-2.7,41.76-11.21c5.31-3.59,9.21-8.71,13.22-13.64
		c0.44-0.54,0.68-1.09-0.33-1.52c-5.59-2.36-6.94-7.3-7.45-12.65c-0.51-5.3,0.58-10.52,0.99-15.77c0.12-1.49,0.91-1.43,1.86-0.87
		c2.08,1.23,4.18,2.44,6.16,3.81C272.81,338.18,274.88,341.56,277.38,345.07z M134.37,353.35c0,0.02,0,0.04,0,0.06
		c-0.59,0-1.17-0.01-1.76,0c-3.03,0.03-3.56-0.35-3.01-3.26c1.67-8.9,2.17-17.98,4.34-26.83c1.38-5.65,1.82-11.54,2.65-17.32
		c1.44-10.01,2.88-20.01,4.29-30.02c0.48-3.4,1.02-6.79,1.3-10.21c0.26-3.13-0.63-3.85-3.7-3.73c-7.46,0.28-14.92,0.56-22.38,0.72
		c-2.29,0.05-3.33,1.06-3.66,3.23c-3.3,21.59-5.53,43.33-9.57,64.81c-1.7,9.02-2.7,18.18-3.99,27.28
		c-1.22,8.61-2.46,17.21-3.59,25.84c-0.39,2.96,0.15,3.27,3.2,3.03c10.36-0.8,20.72-1.59,31.08-2.27c9.7-0.63,19.4-1.07,29.08-1.99
		c1.8-0.17,2.53-0.9,2.69-2.59c0.38-4.09,0.81-8.17,1.22-12.25c0.14-1.38-0.4-2.53-1.48-3.28c-3.55-2.48-5.69-5.89-6.52-10.06
		c-0.39-1.95-1.39-2.27-3.11-2.16C145.75,352.74,140.06,353.03,134.37,353.35z M302.03,267.91c0,0.14,0,0.28,0,0.43
		c-4.53,0-9.06,0.03-13.59-0.02c-1.79-0.02-2.49,0.79-2.72,2.52c-1.28,9.66-1.18,19.49-3.54,29.01c-0.54,2.19,0.87,3.74,1.45,5.57
		c3.37,10.63,4.14,21.48,2.5,32.49c-1.19,8.02-4.08,15.42-8.88,21.97c-1.21,1.65-1.86,3.3-2.06,5.25
		c-0.55,5.33-1.09,10.66-1.7,15.98c-0.79,6.91-0.58,6.99,6.42,6.45c14.03-1.09,28.08-1.98,42.13-2.97
		c5.02-0.35,10.03-0.79,15.05-1.08c1.75-0.1,2.54-0.81,2.72-2.56c0.28-2.74,0.75-5.46,1.09-8.2c0.63-5.01,1.38-10,2.6-14.92
		c0.72-2.89,0.14-3.49-2.8-3.47c-3.27,0.03-6.54,0.18-9.81,0.35c-7.62,0.38-15.24,0.8-22.86,1.21c-1.25,0.07-2.38,0.13-2.12-1.76
		c0.9-6.45,1.61-12.94,2.62-19.38c1.75-11.19,2.6-22.5,4.88-33.61c0.92-4.49,1.3-9.1,1.89-13.65c0.73-5.64,1.4-11.28,2.15-16.92
		c0.28-2.07-0.42-2.82-2.59-2.74C310.59,268.02,306.31,267.91,302.03,267.91z M168.07,222.09c-0.2-0.09-0.4-0.19-0.6-0.28
		c0-0.48,0-0.95,0-1.43c0.01-6.12-0.01-12.24,0.07-18.36c0.02-1.68-0.47-2.42-2.29-2.33c-2.68,0.14-5.37,0.13-8.05,0.01
		c-1.7-0.08-2.18,0.64-2.16,2.19c0.06,3.86,0.03,7.71,0.04,11.57c0.03,13.5,0.09,27,0.04,40.5c-0.01,1.94,0.5,2.69,2.51,2.59
		c2.59-0.13,5.2-0.05,7.8,0.02c1.83,0.05,2.41-0.66,2.38-2.54c-0.12-6.29-0.06-12.58-0.04-18.87c0-0.53-0.27-1.25,0.51-1.5
		c0.62-0.2,1.16,0.07,1.59,0.51c0.47,0.48,0.95,0.95,1.35,1.49c4.46,5.93,9.04,11.78,13.29,17.85c1.7,2.43,3.52,3.4,6.42,3.08
		c3.37-0.38,6.8,0.24,10.56-0.36c-3.32-4.09-5.76-8.31-8.89-12.13c-4.71-5.75-8.7-12.09-13.04-18.15c-0.72-1.01-0.06-1.55,0.48-2.14
		c4.82-5.23,8.84-11.13,13.95-16.12c2.03-1.98,3.68-4.34,5.47-6.56c0.77-0.96,1.12-1.79-0.75-1.74c-3.61,0.09-7.22,0.05-10.82,0.14
		c-0.98,0.02-2.04,0.06-2.7,1.04c-2.54,3.72-5.44,7.16-8.39,10.57C173.73,214.66,170.96,218.43,168.07,222.09z M260.83,252.6
		c2.93,2.29,5.37,3.95,8.4,4.57c10.66,2.2,20.38-1.78,23.6-13.41c1.6-5.78,1.56-11.6,0.05-17.35c-1.71-6.5-5.63-10.88-12.55-12.07
		c-3.58-0.62-7.09-0.67-10.65,0.35c-3.2,0.91-5.83,2.66-8.2,4.84c-0.61-0.53-0.39-1.06-0.4-1.53c-0.02-6.03-0.08-12.07,0.01-18.1
		c0.03-1.88-0.67-2.58-2.47-2.53c-2.18,0.05-4.37,0.1-6.54-0.04c-2-0.12-2.61,0.67-2.61,2.62c0.06,18.19,0.05,36.37,0.01,54.56
		c0,1.48,0.36,2.15,1.96,2.08c1.92-0.09,3.86-0.02,5.78,0.07C259.67,256.75,262.01,256.81,260.83,252.6z M331.67,251.02
		c0,1.42,0.12,2.28-0.02,3.08c-0.36,2.01,0.66,2.46,2.37,2.4c2.35-0.08,4.7-0.17,7.04-0.09c2,0.07,2.78-0.53,2.67-2.7
		c-0.2-4.01-0.09-8.05-0.09-12.07c-0.01-8.13-0.05-16.27,0.01-24.4c0.02-2.01-0.61-2.96-2.74-2.82c-1.92,0.13-3.86,0.03-5.79,0.04
		c-3.24,0.02-3.42,0.14-3.44,3.38c-0.05,6.54-0.01,13.08-0.04,19.62c-0.01,1.58,0.12,3.19-0.35,4.74
		c-1.29,4.25-5.63,6.62-10.88,5.97c-3.94-0.49-6.44-3.62-6.46-8.25c-0.04-7.71-0.07-15.43,0.03-23.14c0.02-1.9-0.56-2.49-2.43-2.36
		c-2.34,0.16-4.7,0.06-7.04,0.03c-1.75-0.02-2.63,0.69-2.63,2.53c0.03,8.89-0.15,17.78,0.06,26.66c0.12,5,1.55,9.58,6.46,12.23
		C314.8,259.33,326.31,258.18,331.67,251.02z M229.79,251.85c0,1.14,0.08,1.8-0.02,2.43c-0.32,2.02,0.51,2.66,2.49,2.47
		c2.25-0.22,4.52-0.24,6.79-0.22c1.64,0.01,2.19-0.71,2.18-2.28c-0.08-8.97-0.15-17.94-0.13-26.91c0.01-6.25-3.89-9.76-8.97-11.7
		c-6.75-2.58-13.8-2.36-20.64,0.18c-5.35,1.98-5.33,2.04-5.45,7.63c-0.01,0.42-0.01,0.84-0.06,1.26c-0.2,1.55,0.13,2.36,1.85,1.39
		c0.5-0.28,1.09-0.42,1.6-0.68c4.5-2.31,9.23-2.98,14.14-1.79c3.17,0.76,5.26,2.83,6.14,6c0.41,1.48,0.34,2.37-1.8,2.22
		c-6.73-0.48-13.33-0.24-19.52,3.21c-3.67,2.05-5.6,4.92-5.83,8.95c-0.26,4.64,1.24,8.71,5.28,11.24
		C214.55,259.43,223.37,258.63,229.79,251.85z M442.32,251.27c0,1.14,0.08,1.81-0.02,2.46c-0.32,2.12,0.55,2.79,2.64,2.6
		c2.25-0.21,4.53-0.12,6.79-0.14c1.25-0.01,1.76-0.57,1.76-1.85c-0.03-12.66-0.04-25.32-0.02-37.99c0-1.41-0.58-1.96-1.95-1.93
		c-2.1,0.05-4.21,0.18-6.29,0c-2.4-0.22-2.98,0.74-2.94,3.01c0.13,7.21,0.12,14.42,0.01,21.63c-0.08,5.65-4,9.21-9.77,9.13
		c-4.95-0.06-7.79-3.31-7.89-9.02c-0.01-0.92,0-1.84,0-2.77c0-6.21,0.02-12.41,0-18.62c-0.01-3.13-0.23-3.34-3.22-3.35
		c-2.1,0-4.2,0.04-6.29,0.01c-1.8-0.03-2.52,0.77-2.51,2.6c0.06,8.89-0.01,17.78,0.07,26.66c0.03,3.89,1.09,7.61,4.07,10.22
		c5.09,4.47,15.64,4.91,21.29,1.11C439.48,254.09,440.66,252.76,442.32,251.27z M365.02,220.67c0-1.31,0.01-2.63,0-3.94
		c-0.01-1.46-0.48-2.37-2.21-2.29c-2.51,0.11-5.03,0.08-7.54,0.09c-1.39,0-2.1,0.45-2.1,2.06c0.06,12.65,0.06,25.3,0.01,37.95
		c-0.01,1.46,0.55,1.91,1.91,1.87c2.6-0.06,5.21-0.18,7.79,0.01c2.12,0.16,2.5-0.68,2.46-2.58c-0.11-5.78-0.09-11.56-0.04-17.34
		c0.06-5.99,3.55-10.44,9.26-11.8c2.93-0.7,5.82,0.07,8.88,0.75c0-3.5-0.04-6.84,0.02-10.18c0.03-1.36-0.85-1.41-1.78-1.56
		C374.75,212.63,369.1,214.49,365.02,220.67z M391.96,226.95c-0.01,0-0.01,0-0.02,0c0,9.06,0.03,18.11-0.03,27.17
		c-0.01,1.6,0.22,2.56,2.14,2.44c2.51-0.16,5.03-0.2,7.54-0.17c1.58,0.02,1.97-0.74,1.97-2.17c-0.05-18.2-0.09-36.4-0.06-54.59
		c0-1.56-0.68-2.15-2.05-2.18c-2.26-0.06-4.54,0.04-6.79-0.11c-2.05-0.13-2.77,0.56-2.75,2.69
		C392.02,209,391.96,217.98,391.96,226.95z M135.74,246.72c0.5,0,1.01-0.02,1.51,0c3.46,0.18,3.45,0.18,1.87-3.02
		c-3.39-6.88-7.76-13.18-11.86-19.62c-2.39-3.76-3.79-7.41-1.59-11.69c0.19-0.36,0.3-0.79,0.32-1.2c0.03-0.8,0.37-1.76-0.64-2.22
		c-0.95-0.43-1.6,0.23-2.16,0.86c-1.59,1.82-3.07,3.75-4.75,5.49c-1.73,1.79-2.28,3.67-1.68,6.13c0.53,2.16,1.91,3.82,2.79,5.76
		c2,4.41,4.18,8.74,6.11,13.18C127.61,244.84,130.5,247.57,135.74,246.72z M145.24,242.59c0.14,0,0.29-0.01,0.43-0.01
		c0-9.96,0.02-19.92-0.03-29.88c0-0.95,0.68-2.37-0.95-2.72c-1.4-0.3-2.92-0.46-3.9,0.96c-1.23,1.79-2.48,3.59-3.52,5.49
		c-1.4,2.55-1.56,5.13-0.25,7.91C139.87,230.37,142.51,236.5,145.24,242.59z M200.91,162.97c-0.03,1.99,1.43,3.56,3.22,3.66
		c1.7,0.1,3-1.28,3.03-3.19c0.03-2.04-1.19-3.37-3.11-3.38C201.99,160.06,201.11,161.28,200.91,162.97z"/>
	<path d="M218.18,373.06c-8.75-0.27-16.47-2.69-23.38-8.13c-8.78-6.92-12.87-16.22-14.78-26.75c-0.84-4.65,1.05-6.62,5.73-6.38
		c12.65,0.63,25.29,1.62,37.96,1.36c9.13-0.19,18.26-0.8,27.38-1.47c4.43-0.32,7.19,2.09,6.32,7.16
		c-1.85,10.76-7.24,19.54-15.55,26.36C235.06,370.8,226.83,373,218.18,373.06z M189.25,338.46c0.33,1.52,1.38,2.54,2.55,3.29
		c2.95,1.88,5.82,3.93,9.18,5.08c13.25,4.51,26.32,3.66,39.21-1.46c2.83-1.12,5.35-2.78,7.36-5.11c0.42-0.48,1.13-0.93,0.77-1.7
		c-0.32-0.69-1.04-0.36-1.58-0.34c-3.1,0.09-6.2,0.19-9.3,0.35c-11.9,0.63-23.8,0.5-35.71-0.07
		C197.59,338.29,193.43,338.46,189.25,338.46z"/>
	<path d="M250.17,293.57c2.37-0.05,4.88,1.74,5.38,3.71c0.59,2.32-1.13,3.25-2.65,4.27c-3.54,2.37-7.05,4.78-10.65,7.06
		c-1.23,0.78-1.05,1.32-0.08,2c3.5,2.44,6.96,4.95,10.55,7.24c1.84,1.17,3.8,2.13,2.98,4.74c-0.72,2.29-4.3,3.84-6.68,3.06
		c-0.55-0.18-1.09-0.45-1.56-0.79c-5.6-3.94-11.22-7.86-16.76-11.87c-2.76-2-2.89-4.75-0.14-6.88c5.74-4.46,12.06-8.09,18.16-12.02
		C249.2,293.78,249.82,293.69,250.17,293.57z"/>
	<path d="M196.08,309.59c-4.04-2.77-7.87-5.31-11.6-7.99c-3.01-2.17-3.25-3.44-1.49-5.96c1.69-2.41,3.45-2.7,6.23-0.85
		c5.44,3.6,10.93,7.12,16.23,10.91c4.34,3.11,4.21,4.49-0.06,7.84c-5.18,4.07-10.86,7.52-16.28,11.29c-2.02,1.4-3.88,1.71-5.88-0.06
		c-2.52-2.23-2.57-4.68,0.22-6.67c3.26-2.33,6.37-4.9,10.02-6.66C194.35,311,195.1,310.29,196.08,309.59z"/>
	<path d="M261.43,235.67c0.14-1.98-0.29-4.42,0.6-6.78c1.69-4.49,6.02-6.66,11.77-5.85c4.36,0.62,7.74,4.27,7.94,8.71
		c0.11,2.51,0.06,5.02,0.06,7.53c-0.01,6.33-5.96,10.07-11.83,9.22c-6.18-0.89-8.51-3.71-8.53-9.9
		C261.43,237.77,261.43,236.93,261.43,235.67z"/>
	<path d="M224.8,238.24c0.33,0,0.67,0,1,0c4.21,0.01,4.83,0.82,3.86,5.03c-1.28,5.55-9.45,8.35-13.81,4.7
		c-1.38-1.16-1.89-2.71-1.45-4.51c0.61-2.51,2.3-4.03,4.67-4.78C220.93,238.1,222.88,238.2,224.8,238.24z"/>
</g>
</svg>
