<?xml version="1.0" encoding="utf-8"?>
<!-- Generator: Adobe Illustrator 27.3.1, SVG Export Plug-In . SVG Version: 6.00 Build 0)  -->
<svg version="1.1" id="Layer_1" xmlns="http://www.w3.org/2000/svg" xmlns:xlink="http://www.w3.org/1999/xlink" x="0px" y="0px"
	 viewBox="0 0 512 272" style="enable-background:new 0 0 512 272;" xml:space="preserve">
<style type="text/css">
	.st0{fill:#FF9933;}
</style>
<g>
	<path class="st0" d="M43.1,127.9h23.5v32.7l24.6-32.7h31.3l-27.8,32.6l29,53.8H94.8l-16-35.6l-12.1,14.5v21.1H43.1V127.9z"/>
	<path class="st0" d="M149.4,172l-20.2-2.4c0.8-4,1.9-7.2,3.3-9.5c1.4-2.3,3.5-4.3,6.2-6c1.9-1.2,4.6-2.2,8-2.8c3.4-0.7,7.1-1,11-1
		c6.3,0,11.4,0.4,15.3,1.2c3.8,0.8,7,2.5,9.6,5c1.8,1.8,3.2,4.3,4.3,7.5s1.6,6.3,1.6,9.3V201c0,2.9,0.2,5.3,0.5,6.9
		c0.3,1.7,1,3.8,2.2,6.4h-19.8c-0.8-1.6-1.3-2.8-1.6-3.7c-0.2-0.8-0.5-2.2-0.7-4c-2.8,3-5.5,5.2-8.3,6.5c-3.7,1.7-8.1,2.6-13,2.6
		c-6.6,0-11.6-1.7-15-5.2c-3.4-3.5-5.1-7.7-5.1-12.8c0-4.8,1.2-8.7,3.7-11.7c2.5-3.1,7-5.3,13.6-6.8c7.9-1.8,13.1-3.1,15.4-3.8
		c2.4-0.7,4.8-1.7,7.5-2.9c0-2.9-0.5-5-1.6-6.2c-1.1-1.2-3-1.8-5.7-1.8c-3.5,0-6.1,0.6-7.8,1.9C151.3,167.4,150.2,169.3,149.4,172z
		 M167.7,184.6c-2.9,1.2-5.9,2.2-9.1,3.1c-4.3,1.3-7,2.6-8.1,3.8c-1.2,1.3-1.8,2.8-1.8,4.4c0,1.9,0.6,3.4,1.7,4.6
		c1.2,1.2,2.9,1.8,5.1,1.8c2.4,0,4.5-0.6,6.6-1.9c2-1.3,3.5-2.9,4.3-4.7c0.8-1.9,1.3-4.3,1.3-7.3V184.6z"/>
	<path class="st0" d="M202.2,127.9h21.3v30c2.1-2.5,4.5-4.4,7.2-5.7c2.7-1.3,5.6-1.9,8.9-1.9c6.7,0,12.3,2.7,16.7,8.2
		c4.4,5.5,6.6,13.4,6.6,23.6c0,6.8-1,12.9-3,18.1c-2,5.2-4.8,9.1-8.3,11.7c-3.5,2.6-7.5,3.9-11.8,3.9c-3.7,0-7.1-0.9-10.2-2.7
		c-2.3-1.4-4.8-4.1-7.6-8v9.3h-19.8V127.9z M223.3,182.8c0,5.4,0.9,9.3,2.7,11.7c1.8,2.4,4,3.6,6.8,3.6c2.5,0,4.6-1.2,6.4-3.6
		c1.7-2.4,2.6-6.4,2.6-12c0-5-0.8-8.6-2.5-10.9c-1.7-2.3-3.7-3.5-6.1-3.5c-2.9,0-5.2,1.2-7,3.6S223.3,177.9,223.3,182.8z"/>
	<path class="st0" d="M331,214.3h-19.7v-10.1c-2.9,4.2-5.9,7.1-8.9,8.9c-3,1.8-6.7,2.7-11,2.7c-5.8,0-10.4-2-13.7-5.9
		c-3.3-4-5-10-5-18.3v-39.9H294v34.4c0,3.9,0.6,6.7,1.9,8.4c1.3,1.7,3.1,2.5,5.4,2.5c2.5,0,4.6-1.1,6.2-3.3
		c1.6-2.2,2.4-6.2,2.4-11.9v-30.1H331V214.3z"/>
	<path class="st0" d="M344.1,151.7h19.8V162c1.9-4.4,3.9-7.5,5.9-9.2c2-1.7,4.5-2.5,7.5-2.5c3.1,0,6.5,1.1,10.2,3.3l-6.5,17.1
		c-2.5-1.2-4.5-1.8-5.9-1.8c-2.8,0-4.9,1.3-6.4,3.9c-2.2,3.7-3.3,10.5-3.3,20.5v21h-21.2V151.7z"/>
	<path class="st0" d="M395.3,127.9h21.2v86.5h-21.2V127.9z"/>
	<path class="st0" d="M488,214.3h-19.7v-10.1c-2.9,4.2-5.9,7.1-8.9,8.9c-3,1.8-6.7,2.7-11,2.7c-5.8,0-10.4-2-13.7-5.9
		c-3.3-4-5-10-5-18.3v-39.9h21.2v34.4c0,3.9,0.6,6.7,1.9,8.4c1.3,1.7,3.1,2.5,5.4,2.5c2.5,0,4.6-1.1,6.2-3.3
		c1.6-2.2,2.4-6.2,2.4-11.9v-30.1H488V214.3z"/>
</g>
<g>
	<path class="st0" d="M83.9,20.1c0-1.4,1-1.6,1.9-1.9c10.2-3.6,20.2,1.4,24.5,12.1c0.9,2.3,1.4,4.7,2.1,7.1c0-0.8,0.1-1.7,0.1-2.7
		c0.5,0.4,0.5,0.8,0.5,1.2c0.2,2.6,1,4.9,2.7,6.6c3.7,3.9,4.2,8.8,4.1,14c-0.2,6.7-2,12.8-5.3,18.4c-2,3.4-5,5.9-7.2,9.1
		c0,0.1-0.2,0-0.4,0.1c0.9-3.1,1.3-6.3,1.4-9.5c0.1-3.2,0-6.3-0.6-9.8c-0.4,2.1-0.3,3.8-0.4,5.6c-0.2,3.5-0.3,7.2-2.3,10.2
		c-3,4.5-6.8,8.2-11.2,10.7c-3.1,1.7-6.1,3.9-9.7,4.5c-0.5,0.1-0.9,0.4-1.3,0.9c-1.6,1.8-3.2,3.6-4.8,5.4c-0.5,0.5-0.6,0.9-0.1,1.5
		c3.3,3.8,6.1,8,8.1,12.8c0.3,0.7,0.9,0.7,1.4,0.8c5.6,0.6,11.3,1.3,16.7,3.1c4.4,1.5,9.1,2.3,13.3,4.4c0.2,0.1,0.3,0.2,0.7,0.4
		c-6.2-1.2-12.1-2.2-18.1-2.8c-6.1-0.6-12.1-0.9-18.2-0.8c-6,0.1-12.1,0.4-18.1,1.1c-6,0.8-12.1,1.3-18,2.7c2.1-1.4,4.3-2.6,6.6-3.2
		c5.1-1.4,10.2-3.5,15.5-4.2c0.8-0.1,1.6-0.3,2.4-0.4c1.1-0.1,1-0.6,0.5-1.4c-1.8-2.6-4.1-4.8-6.4-6.9c-1.4-1.3-3.3-2.2-3.1-4.8
		c0-0.4-0.3-0.5-0.6-0.3c-0.1,0.1-0.3,0.1-0.4,0.2c-8.6,5-16.7,10.6-25,16.1c-1.3,0.8-2.9,0.5-4,1.8c-0.4,0.5-1,1-1.9,1.2
		c0.8-1.3,1.4-2.3,2-3.4c0.4-0.7,0.8-1.5,1.3-2.2c0.3-0.5,0.4-1.6,1.4-0.9c0.1,0,0.3-0.1,0.3-0.2c1.2-2.1,2.5-4.1,3.7-6.2
		c-0.3-0.1-0.4-0.2-0.4-0.2c-3.5,2.6-7.8,3.7-11.1,6.8c-0.5,0.5-1.1,0.6-1.2-0.4c-0.6-2.8-1.3-5.6-1-8.5c0.2-1.5,0.6-2.9,1.6-3.9
		c2.3-2.3,4.4-5,7.1-6.7c3-1.9,5.1-4.8,7.5-7.3c1.2-1.3,2.1-2.8,2.8-4.5c0.7-1.8,0.5-2.5-1-3.4c-0.8-0.5-0.8-1-0.5-1.8
		c0.8-2.3,2-4.4,3.2-6.4c2.6-4.6,5.5-9,8.6-13.3c0.2-0.3,0.5-0.7,0.7-0.7c1.5,0.2,1.8-1.2,2.2-2.2c2.8-7.8,8.3-12.8,15.1-15.9
		c3.8-1.8,7.9-2.9,11.9-4.3c1-0.4,1.5,0.2,1.7,1.3c0.4,2.2,0.2,4.4,0.4,6.6c0.5-0.1,0.4-0.6,0.5-1c0.9-5.2-0.1-9.8-3.7-13.4
		c-2.6-2.6-5.4-4.8-9.1-5.2c-0.2,0-0.4-0.1-0.5-0.2c-0.4-0.1-0.8-0.3-0.8-0.8c0-0.5,0.5-0.5,0.9-0.5c2.6-0.1,5.2-0.1,7.8,0.6
		c0.9,0.3,1.8,0.5,2.8,0.7c0.1-0.9-0.5-1-0.9-1.1c-4.3-1.7-8.6-2.2-12.9-0.3c-0.3,0.1-0.7,0.6-1,0.1c-0.2-0.3,0.1-0.7,0.4-0.9
		c0.9-1.3,2.1-2.4,3.5-2.8c3.2-0.8,6.3-1.3,9.6-1.1C82.6,19.7,83.2,20.2,83.9,20.1c-0.4,0.8-0.1,1.3,0.6,1.5
		c0.6,0.1,1.2,0.3,1.8,0.3c0.9,0,1.8,0.1,2.4-0.9c0.2-0.3,0.1-0.7-0.2-0.8c-0.9-0.5-1.7-0.4-2.5,0.1C85.3,20.7,84.6,20.9,83.9,20.1z
		 M79.3,116.7C79.3,116.6,79.3,116.6,79.3,116.7c0.9-0.1,1.8-0.1,2.7-0.1c0.3,0,0.7,0.2,0.9-0.2c0.1-0.4-0.2-0.6-0.4-0.9
		c-2-2.9-4.3-5.5-6.7-8c-0.7-0.7-1.4-1.3-2.4-1.6c-1.9-0.7-2.5-2.2-1.8-4.3c0.2-0.5,0.4-1,0.6-1.6c0.1-0.3,0.3-0.6,0-0.8
		c-0.3-0.2-0.5,0.1-0.8,0.3c-1.3,1.2-2.5,2.4-3.6,3.8c-0.6,0.8-0.6,1.3-0.1,2.1c1.9,2.8,3.9,5.5,5.3,8.7c0.1,0.3,0.4,0.8,0.7,0.3
		c0.7-1.1,0.8-0.3,1.1,0.3c0.8,2.2,0.8,2.2,3.1,2.1C78.3,116.6,78.8,116.7,79.3,116.7z"/>
</g>
<g>
	<path d="M45,240.9l5.8-0.4c0.3,1.3,1,2.3,2.1,2.9c1.1,0.6,2.5,0.9,4.3,0.9c1.9,0,3.3-0.3,4.3-0.8c1-0.5,1.4-1.2,1.4-1.9
		c0-0.5-0.2-0.9-0.6-1.2c-0.4-0.3-1.1-0.6-2.1-0.9c-0.7-0.2-2.3-0.5-4.7-0.9c-3.2-0.5-5.4-1.2-6.7-2c-1.8-1.1-2.7-2.4-2.7-4
		c0-1,0.4-2,1.3-2.8c0.8-0.9,2.1-1.5,3.7-2c1.6-0.5,3.5-0.7,5.8-0.7c3.7,0,6.4,0.5,8.3,1.6s2.8,2.5,2.9,4.4l-5.9,0.2
		c-0.3-1-0.8-1.8-1.6-2.2c-0.8-0.4-2.1-0.7-3.7-0.7c-1.7,0-3.1,0.2-4,0.7c-0.6,0.3-0.9,0.7-0.9,1.2c0,0.5,0.3,0.9,0.9,1.2
		c0.7,0.4,2.6,0.9,5.4,1.3c2.9,0.5,5,0.9,6.4,1.4c1.4,0.5,2.5,1.2,3.2,2c0.8,0.9,1.2,1.9,1.2,3.2c0,1.1-0.5,2.2-1.4,3.2
		c-0.9,1-2.3,1.7-4,2.2c-1.7,0.5-3.8,0.7-6.4,0.7c-3.7,0-6.5-0.6-8.5-1.7C46.6,244.8,45.4,243.1,45,240.9z"/>
	<path d="M83.5,233v3h-3.8v5.8c0,1.2,0,1.9,0.1,2c0.1,0.2,0.2,0.4,0.5,0.5c0.3,0.1,0.6,0.2,0.9,0.2c0.5,0,1.3-0.1,2.3-0.4l0.5,2.9
		c-1.3,0.4-2.8,0.6-4.4,0.6c-1,0-1.9-0.1-2.7-0.3c-0.8-0.2-1.4-0.5-1.8-0.9c-0.4-0.4-0.6-0.9-0.8-1.5c-0.1-0.4-0.2-1.3-0.2-2.7V236
		h-2.6v-3H74v-2.9l5.6-2.2v5.1H83.5z"/>
	<path d="M86.1,240c0-1.3,0.5-2.5,1.4-3.7c0.9-1.2,2.2-2.1,3.9-2.7c1.7-0.6,3.6-0.9,5.6-0.9c3.2,0,5.8,0.7,7.9,2.1
		c2.1,1.4,3.1,3.2,3.1,5.3c0,2.2-1,4-3.1,5.4c-2.1,1.4-4.7,2.1-7.8,2.1c-1.9,0-3.8-0.3-5.6-0.9c-1.8-0.6-3.1-1.5-4-2.6
		C86.5,243,86.1,241.6,86.1,240z M91.8,240.2c0,1.4,0.5,2.5,1.5,3.3c1,0.8,2.2,1.1,3.7,1.1c1.5,0,2.7-0.4,3.7-1.1
		c1-0.8,1.5-1.9,1.5-3.3c0-1.4-0.5-2.5-1.5-3.2c-1-0.8-2.2-1.1-3.7-1.1c-1.5,0-2.7,0.4-3.7,1.1C92.3,237.6,91.8,238.7,91.8,240.2z"
		/>
	<path d="M117.7,247.3h-5.6V233h5.2v2c0.9-1,1.7-1.6,2.4-1.9c0.7-0.3,1.5-0.5,2.4-0.5c1.3,0,2.5,0.2,3.7,0.7l-1.7,3.3
		c-0.9-0.4-1.8-0.6-2.6-0.6c-0.8,0-1.5,0.1-2,0.4c-0.5,0.3-1,0.8-1.3,1.6c-0.3,0.8-0.5,2.4-0.5,4.8V247.3z"/>
	<path d="M128.3,231v-3.5h5.6v3.5H128.3z M128.3,247.3V233h5.6v14.4H128.3z"/>
	<path d="M151.9,242.8l5.6,0.6c-0.7,1.4-1.9,2.4-3.4,3.2c-1.6,0.7-3.5,1.1-5.8,1.1c-3.7,0-6.4-0.8-8.2-2.4c-1.4-1.3-2.1-3-2.1-4.9
		c0-2.4,0.9-4.2,2.8-5.6c1.8-1.3,4.2-2,7-2c3.2,0,5.6,0.7,7.5,2.1c1.8,1.4,2.7,3.6,2.6,6.5h-14.1c0,1.1,0.5,2,1.4,2.6
		c0.9,0.6,1.9,0.9,3.2,0.9c0.9,0,1.6-0.2,2.2-0.5C151.2,244,151.6,243.5,151.9,242.8z M152.2,238.9c0-1.1-0.5-1.9-1.3-2.5
		c-0.8-0.6-1.8-0.9-2.9-0.9c-1.2,0-2.2,0.3-3,0.9c-0.8,0.6-1.2,1.4-1.2,2.5H152.2z"/>
	<path d="M160.4,243.2l5.6-0.6c0.2,0.7,0.7,1.3,1.5,1.7c0.7,0.4,1.8,0.6,3.1,0.6c1.5,0,2.5-0.2,3.3-0.5c0.5-0.3,0.7-0.6,0.7-1
		c0-0.3-0.1-0.5-0.4-0.7c-0.3-0.2-0.9-0.3-1.9-0.5c-4.5-0.7-7.4-1.3-8.6-1.9c-1.7-0.8-2.5-1.9-2.5-3.2c0-1.2,0.7-2.3,2.2-3.1
		c1.5-0.8,3.7-1.3,6.8-1.3c2.9,0,5.1,0.3,6.5,1c1.4,0.6,2.4,1.6,2.9,2.8l-5.3,0.7c-0.2-0.6-0.7-1-1.3-1.3c-0.6-0.3-1.5-0.4-2.7-0.4
		c-1.5,0-2.5,0.1-3.2,0.4c-0.4,0.2-0.6,0.5-0.6,0.8c0,0.3,0.2,0.5,0.6,0.7c0.5,0.3,2.3,0.6,5.2,1.1c3,0.5,5.1,1,6.3,1.7
		c1.2,0.7,1.8,1.6,1.8,2.8c0,1.3-0.8,2.4-2.4,3.4c-1.6,0.9-4,1.4-7.2,1.4c-2.9,0-5.2-0.4-6.9-1.2C162,245.7,160.9,244.6,160.4,243.2
		z"/>
	<path d="M194.1,233h3.1v-1.1c0-1.2,0.2-2.1,0.6-2.7s1.1-1.1,2.1-1.5c1-0.4,2.3-0.6,3.9-0.6c1.6,0,3.2,0.2,4.7,0.5l-0.8,2.6
		c-0.9-0.1-1.8-0.2-2.6-0.2c-0.8,0-1.4,0.1-1.7,0.4c-0.4,0.3-0.5,0.8-0.5,1.5v1h4.2v3h-4.2v11.4h-5.6V236h-3.1V233z"/>
	<path d="M215.5,247.3h-5.6V233h5.2v2c0.9-1,1.7-1.6,2.4-1.9c0.7-0.3,1.5-0.5,2.4-0.5c1.3,0,2.5,0.2,3.7,0.7l-1.7,3.3
		c-0.9-0.4-1.8-0.6-2.6-0.6c-0.8,0-1.5,0.1-2,0.4c-0.5,0.3-1,0.8-1.3,1.6c-0.3,0.8-0.5,2.4-0.5,4.8V247.3z"/>
	<path d="M224.8,240c0-1.3,0.5-2.5,1.4-3.7c0.9-1.2,2.2-2.1,3.9-2.7c1.7-0.6,3.6-0.9,5.6-0.9c3.2,0,5.8,0.7,7.9,2.1
		c2.1,1.4,3.1,3.2,3.1,5.3c0,2.2-1,4-3.1,5.4c-2.1,1.4-4.7,2.1-7.8,2.1c-1.9,0-3.8-0.3-5.6-0.9c-1.8-0.6-3.1-1.5-4-2.6
		C225.2,243,224.8,241.6,224.8,240z M230.5,240.2c0,1.4,0.5,2.5,1.5,3.3c1,0.8,2.2,1.1,3.7,1.1c1.5,0,2.7-0.4,3.7-1.1
		c1-0.8,1.5-1.9,1.5-3.3c0-1.4-0.5-2.5-1.5-3.2c-1-0.8-2.2-1.1-3.7-1.1c-1.5,0-2.7,0.4-3.7,1.1C231,237.6,230.5,238.7,230.5,240.2z"
		/>
	<path d="M250.6,233h5.2v2c1.9-1.5,4.1-2.3,6.6-2.3c1.4,0,2.5,0.2,3.5,0.6c1,0.4,1.8,1,2.5,1.7c0.9-0.8,1.9-1.3,3-1.7
		c1.1-0.4,2.2-0.6,3.5-0.6c1.6,0,2.9,0.2,4,0.6c1.1,0.4,1.9,1.1,2.4,1.9c0.4,0.6,0.6,1.6,0.6,3v9.2h-5.6v-8.2c0-1.4-0.2-2.3-0.6-2.8
		c-0.5-0.5-1.3-0.8-2.4-0.8c-0.8,0-1.5,0.2-2.2,0.5c-0.7,0.3-1.2,0.8-1.5,1.4c-0.3,0.6-0.5,1.6-0.5,3v6.9h-5.6v-7.9
		c0-1.4-0.1-2.3-0.3-2.7c-0.2-0.4-0.5-0.7-0.9-0.9s-1-0.3-1.7-0.3c-0.9,0-1.6,0.2-2.3,0.5c-0.7,0.3-1.2,0.8-1.5,1.4s-0.4,1.6-0.4,3
		v7h-5.6V233z"/>
	<path d="M297.7,237.5c0-2,0.4-3.7,1.3-5.1c0.7-1,1.6-1.9,2.7-2.7c1.2-0.8,2.4-1.4,3.8-1.8c1.8-0.5,3.9-0.8,6.3-0.8
		c4.3,0,7.8,0.9,10.4,2.7c2.6,1.8,3.9,4.3,3.9,7.6c0,3.2-1.3,5.7-3.9,7.5c-2.6,1.8-6,2.7-10.3,2.7c-4.4,0-7.8-0.9-10.4-2.7
		C298.9,243.2,297.7,240.7,297.7,237.5z M303.7,237.4c0,2.2,0.8,3.9,2.3,5.1c1.5,1.2,3.5,1.7,5.8,1.7c2.4,0,4.3-0.6,5.8-1.7
		c1.5-1.1,2.3-2.9,2.3-5.2c0-2.3-0.7-4-2.2-5.1c-1.5-1.1-3.4-1.7-5.9-1.7c-2.4,0-4.4,0.6-5.9,1.7
		C304.5,233.4,303.7,235.1,303.7,237.4z"/>
	<path d="M344.6,247.3v-2.1c-0.8,0.8-1.8,1.4-3,1.8s-2.6,0.7-4,0.7c-1.4,0-2.7-0.2-3.8-0.6c-1.1-0.4-2-1-2.5-1.8
		c-0.5-0.8-0.8-1.8-0.8-3.2V233h5.6v6.6c0,2,0.1,3.3,0.3,3.7c0.2,0.5,0.6,0.8,1.1,1.1c0.5,0.3,1.2,0.4,2.1,0.4c1,0,1.8-0.2,2.6-0.5
		c0.8-0.4,1.3-0.8,1.6-1.3c0.3-0.5,0.4-1.8,0.4-3.9V233h5.6v14.4H344.6z"/>
	<path d="M361,247.3h-5.6V233h5.2v2c0.9-1,1.7-1.6,2.4-1.9c0.7-0.3,1.5-0.5,2.4-0.5c1.3,0,2.5,0.2,3.7,0.7l-1.7,3.3
		c-0.9-0.4-1.8-0.6-2.6-0.6c-0.8,0-1.5,0.1-2,0.4c-0.5,0.3-1,0.8-1.3,1.6c-0.3,0.8-0.5,2.4-0.5,4.8V247.3z"/>
	<path d="M389.6,247.3v-16.5h-8.7v-3.4h23.3v3.4h-8.7v16.5H389.6z"/>
	<path d="M403.6,240c0-1.3,0.5-2.5,1.4-3.7c0.9-1.2,2.2-2.1,3.9-2.7c1.7-0.6,3.6-0.9,5.6-0.9c3.2,0,5.8,0.7,7.9,2.1
		c2.1,1.4,3.1,3.2,3.1,5.3c0,2.2-1,4-3.1,5.4c-2.1,1.4-4.7,2.1-7.8,2.1c-1.9,0-3.8-0.3-5.6-0.9c-1.8-0.6-3.1-1.5-4-2.6
		C404,243,403.6,241.6,403.6,240z M409.3,240.2c0,1.4,0.5,2.5,1.5,3.3c1,0.8,2.2,1.1,3.7,1.1c1.5,0,2.7-0.4,3.7-1.1
		c1-0.8,1.5-1.9,1.5-3.3c0-1.4-0.5-2.5-1.5-3.2c-1-0.8-2.2-1.1-3.7-1.1c-1.5,0-2.7,0.4-3.7,1.1C409.8,237.6,409.3,238.7,409.3,240.2
		z"/>
	<path d="M433.8,247.3l-6.7-14.4h5.5l4,9.4l3.7-9.4h5.4l3.5,9.4l4.1-9.4h5.5l-6.8,14.4h-5.4l-3.7-9.2l-3.6,9.2H433.8z"/>
	<path d="M481,247.3h-5.6V240c0-1.5-0.1-2.6-0.4-3c-0.2-0.5-0.6-0.8-1.2-1.1c-0.5-0.3-1.2-0.4-1.9-0.4c-1,0-1.8,0.2-2.6,0.5
		s-1.3,0.8-1.6,1.4c-0.3,0.6-0.4,1.7-0.4,3.3v6.5h-5.6V233h5.2v2.1c1.9-1.6,4.2-2.4,7-2.4c1.2,0,2.4,0.2,3.4,0.5
		c1,0.3,1.8,0.7,2.3,1.2c0.5,0.5,0.9,1,1.1,1.6c0.2,0.6,0.3,1.4,0.3,2.6V247.3z"/>
</g>
</svg>
