<?xml version="1.0" encoding="utf-8"?>
<!-- Generator: Adobe Illustrator 27.3.1, SVG Export Plug-In . SVG Version: 6.00 Build 0)  -->
<svg version="1.1" id="Layer_1" xmlns="http://www.w3.org/2000/svg" xmlns:xlink="http://www.w3.org/1999/xlink" x="0px" y="0px"
	 viewBox="0 0 512 272" style="enable-background:new 0 0 512 272;" xml:space="preserve">
<style type="text/css">
	.st0{fill:#FF9933;}
</style>
<g>
	<path class="st0" d="M102.7,15.9c0-1.2,1.1-1.4,2-1.7c10.6-3.1,20.9,1.2,25.4,10.5c0.9,2,1.5,4.1,2.2,6.1c0-0.7,0.1-1.5,0.2-2.3
		c0.5,0.3,0.5,0.7,0.5,1.1c0.2,2.2,1.1,4.2,2.8,5.7c3.8,3.4,4.4,7.6,4.2,12.1c-0.2,5.8-2.1,11.1-5.5,15.9c-2.1,2.9-5.2,5.1-7.4,7.9
		c0,0-0.2,0-0.4,0.1c0.9-2.7,1.3-5.5,1.4-8.3c0.1-2.8,0-5.5-0.6-8.5c-0.4,1.8-0.3,3.3-0.4,4.9c-0.2,3.1-0.3,6.2-2.3,8.8
		c-3.1,3.9-7,7.1-11.6,9.2c-3.2,1.5-6.4,3.4-10.1,3.9c-0.5,0.1-1,0.4-1.4,0.8c-1.6,1.6-3.3,3.1-5,4.7c-0.5,0.5-0.7,0.8-0.1,1.3
		c3.4,3.3,6.3,6.9,8.4,11.1c0.3,0.6,0.9,0.6,1.5,0.7c5.8,0.5,11.7,1.1,17.3,2.7c4.6,1.3,9.4,2,13.8,3.8c0.2,0.1,0.3,0.2,0.8,0.4
		c-6.4-1-12.6-1.9-18.8-2.4c-6.3-0.5-12.6-0.8-18.9-0.7c-6.3,0.1-12.5,0.3-18.7,1c-6.2,0.7-12.5,1.1-18.7,2.3
		c2.2-1.2,4.4-2.2,6.9-2.8c5.3-1.2,10.5-3,16-3.6c0.8-0.1,1.6-0.3,2.5-0.3c1.2-0.1,1-0.5,0.5-1.2c-1.9-2.3-4.2-4.2-6.6-6
		c-1.5-1.1-3.5-1.9-3.3-4.2c0-0.3-0.3-0.4-0.6-0.3c-0.1,0.1-0.3,0.1-0.4,0.2c-8.9,4.3-17.4,9.2-25.9,13.9c-1.3,0.7-3,0.5-4.1,1.6
		c-0.4,0.4-1,0.9-2,1.1c0.8-1.1,1.4-2,2.1-2.9c0.5-0.6,0.9-1.3,1.4-1.9c0.3-0.4,0.4-1.4,1.4-0.8c0.1,0,0.3-0.1,0.3-0.2
		c1.3-1.8,2.5-3.6,3.8-5.4c-0.3-0.1-0.4-0.2-0.4-0.1c-3.7,2.3-8.1,3.2-11.5,5.9c-0.5,0.4-1.1,0.5-1.3-0.3c-0.6-2.4-1.3-4.8-1-7.4
		c0.2-1.3,0.6-2.5,1.6-3.4c2.4-2,4.6-4.4,7.4-5.8c3.1-1.7,5.3-4.1,7.7-6.4c1.2-1.1,2.2-2.4,2.9-3.9c0.7-1.6,0.5-2.2-1.1-3
		c-0.8-0.4-0.9-0.9-0.6-1.5c0.9-2,2.1-3.8,3.3-5.6c2.7-4,5.7-7.8,8.9-11.5c0.2-0.2,0.5-0.6,0.7-0.6c1.6,0.1,1.9-1,2.3-1.9
		c2.9-6.8,8.6-11.1,15.6-13.8c4-1.5,8.2-2.5,12.3-3.7c1-0.3,1.5,0.1,1.7,1.1c0.4,1.9,0.2,3.8,0.4,5.7c0.6-0.1,0.4-0.6,0.5-0.8
		c1-4.5-0.1-8.5-3.8-11.6c-2.7-2.2-5.6-4.1-9.4-4.5c-0.2,0-0.4-0.1-0.6-0.1c-0.4-0.1-0.9-0.2-0.8-0.7c0-0.5,0.6-0.4,0.9-0.5
		c2.7-0.1,5.4-0.1,8.1,0.5c0.9,0.2,1.9,0.4,2.9,0.6c0.1-0.8-0.5-0.8-0.9-1c-4.4-1.4-8.9-1.9-13.4-0.2c-0.3,0.1-0.7,0.5-1,0.1
		c-0.2-0.3,0.2-0.6,0.4-0.8c1-1.1,2.1-2.1,3.7-2.4c3.3-0.7,6.6-1.1,10-0.9C101.3,15.5,102,16,102.7,15.9c-0.4,0.7-0.1,1.1,0.7,1.3
		c0.6,0.1,1.3,0.2,1.9,0.2c0.9,0,1.9,0.1,2.5-0.7c0.2-0.2,0.1-0.6-0.2-0.7c-0.9-0.5-1.8-0.3-2.6,0.1
		C104.2,16.4,103.4,16.6,102.7,15.9z M97.9,99.7C97.9,99.6,97.9,99.6,97.9,99.7c0.9-0.1,1.9-0.1,2.8-0.1c0.3,0,0.8,0.2,0.9-0.2
		c0.1-0.3-0.2-0.6-0.4-0.8c-2.1-2.5-4.5-4.8-7-7c-0.7-0.6-1.5-1.1-2.5-1.4c-2-0.6-2.6-1.9-1.9-3.7c0.2-0.5,0.4-0.9,0.6-1.4
		c0.1-0.2,0.4-0.5,0-0.7c-0.3-0.2-0.6,0-0.8,0.2c-1.3,1-2.6,2.1-3.7,3.3c-0.7,0.7-0.7,1.2-0.1,1.9c2,2.4,4.1,4.8,5.5,7.5
		c0.1,0.2,0.4,0.7,0.7,0.3c0.7-1,0.9-0.3,1.1,0.3c0.9,1.9,0.9,1.9,3.2,1.8C96.9,99.6,97.4,99.7,97.9,99.7z"/>
	<path class="st0" d="M182,107.1v16.4h-54.8v19.2c2.4-1.5,4.8-2.6,7.1-3.2c2.3-0.7,4.9-1,7.7-1c3.7,0,7.1,0.6,10.1,1.8
		c3,1.2,5.6,2.9,7.7,5.1c2.1,2.2,3.8,4.8,4.9,7.9c1.1,3.1,1.7,6.6,1.7,10.4c0,2.4-0.4,4.9-1.1,7.5c-0.7,2.6-1.7,5.2-3,7.7
		c-1.3,2.6-2.7,5-4.4,7.4c-1.7,2.4-3.4,4.5-5.3,6.5l-11.3-13.6c1-1,1.9-2.2,2.9-3.5c1-1.4,1.8-2.8,2.6-4.2c0.7-1.4,1.4-2.9,1.8-4.3
		c0.5-1.4,0.7-2.6,0.7-3.7c0-1.6-0.3-3-0.8-4.1c-0.6-1.1-1.2-2-2.1-2.7c-0.8-0.7-1.7-1.2-2.6-1.5c-0.9-0.3-1.7-0.5-2.4-0.5
		c-1.3,0-2.6,0.2-3.8,0.6c-1.2,0.4-2.3,1-3.4,1.7c-1.1,0.7-2.2,1.6-3.3,2.6c-1.1,1-2.3,2.1-3.5,3.3v36.6h-18.2v-24.7
		c-2.3,1.2-4.9,2.3-7.8,3.3c-2.9,1-5.9,1.5-8.8,1.5c-4.9,0-9-0.7-12.4-2.2c-3.4-1.5-6.1-3.4-8.2-5.7c-2.1-2.3-3.5-4.9-4.5-7.7
		c-0.9-2.8-1.4-5.5-1.4-8.2c0-3.4,0.7-6.6,2-9.5c1.3-2.9,3.2-5.3,5.6-7.4c2.4-2.1,5.3-3.7,8.6-4.9c3.4-1.2,7-1.7,11.1-1.7
		c3.4,0,6.3,0.3,8.9,1c2.6,0.7,4.9,1.4,6.8,2.2v-12H61.8v-16.4H182z M101.6,203.2l-11.2,10.7l-11.4-10.7l11.4-11L101.6,203.2z
		 M108.9,153.4c-0.8-0.4-1.8-0.9-2.8-1.4c-1.1-0.5-2.3-1-3.6-1.5c-1.3-0.5-2.8-0.9-4.3-1.2c-1.6-0.3-3.2-0.5-5-0.5
		c-6.2,0-9.3,2.1-9.3,6.2c0,2.7,0.8,4.7,2.3,6c1.5,1.3,3.5,2,6,2c1.3,0,2.8-0.3,4.3-0.8c1.5-0.5,3-1.2,4.5-2
		c1.5-0.8,2.9-1.6,4.3-2.5c1.4-0.9,2.6-1.8,3.6-2.6V153.4z"/>
	<path class="st0" d="M270.2,123.5h-20.9v75.9H231v-17.6c-3.1,1.8-6.2,3.1-9.5,4c-3.3,0.9-6.5,1.3-9.8,1.3c-4,0-7.8-0.7-11.4-2.2
		c-3.6-1.5-6.7-3.5-9.4-6.1c-2.7-2.6-4.8-5.6-6.4-9c-1.6-3.4-2.3-7.1-2.3-11c0-4.1,0.8-7.8,2.5-11.1c1.7-3.4,4-6.2,6.9-8.7
		c2.9-2.4,6.4-4.3,10.4-5.6c4-1.3,8.2-2,12.8-2c3.4,0,6.4,0.3,9.1,0.9c2.7,0.6,5.1,1.3,7.1,2.1v-10.8h-54.1v-16.4h93.2V123.5z
		 M200.1,155.3c-0.2,0.6-0.4,1.3-0.6,2c-0.1,0.7-0.2,1.4-0.2,2c0,1.7,0.4,3.2,1.1,4.7c0.7,1.4,1.7,2.7,2.9,3.8
		c1.2,1.1,2.7,1.9,4.3,2.5c1.7,0.6,3.4,0.9,5.2,0.9c0.2,0,0.5,0,0.8,0c0.3,0,0.6,0,0.8-0.1L200.1,155.3z M231,151.3
		c-1.1-0.5-2.3-1-3.6-1.5c-1.3-0.5-2.7-1-4.1-1.4c-1.4-0.4-2.8-0.8-4.2-1c-1.4-0.3-2.7-0.4-4-0.4c-0.4,0-0.8,0-1.3,0
		c-0.5,0-0.9,0-1.3,0.1c2.6,2.8,5.2,5.6,7.7,8.4c2.5,2.8,5.2,5.7,8,8.8l2.6-2V151.3z"/>
	<path class="st0" d="M265.7,230.9c0,8.8-3.3,15.6-9.8,20.6c-5.9,4.5-13.3,6.7-22.3,6.7c-9.5,0-21.9-4.2-37-12.5l7.4-13.8
		c13.3,7.2,23.3,10.8,30,10.8c4.6,0,8.2-0.9,11.1-2.8c3.3-2.1,4.9-5,4.9-8.9c0-2.6-0.9-4.7-2.6-6.4c-1.7-1.7-3.9-2.6-6.4-2.6
		c-4.8,0-9.5,1.9-14.1,5.6l-6.5-13.7c5.8-5,12.6-7.6,20.3-7.6c7,0,12.9,2.4,17.7,7.3C263.3,218.5,265.7,224.2,265.7,230.9z"/>
	<path class="st0" d="M339.1,123.5h-26.3v17.1c0,4.3-0.2,8.1-0.7,11.2c-0.5,3.1-1.1,5.7-2,7.9c-0.9,2.1-2.1,3.9-3.4,5.1
		c-1.4,1.3-3,2.3-4.9,3l25.1,28.7L313,207.9L266.4,155l14-11.3l8.9,10.2c3.5,0,5.2-3.4,5.2-10.1v-20.2h-29.5v-16.4h74V123.5z"/>
	<path class="st0" d="M446.6,123.5h-22.5v75.9h-18.2v-34.1l-24,12.9l-9.1-14.3l9.6-5.4c-1.2-1.7-2.7-3-4.4-3.8
		c-1.7-0.8-3.7-1.2-6-1.2c-6.7,0-10.1,3.2-10.1,9.6c0,6.8,6.9,17.5,20.8,32.3l-16.3,7c-3.7-4-6.9-7.4-9.6-10.4
		c-2.6-3-4.7-5.5-6.1-7.6c-2.5-3.6-4.5-7.3-5.9-10.9c-1.4-3.6-2.1-6.9-2.1-9.9c0-8.6,2.9-15.5,8.6-20.5c5.3-4.8,12.2-7.1,20.5-7.1
		c2.6,0,5.1,0.4,7.6,1.1c2.5,0.7,4.8,1.7,7,3c2.2,1.3,4.2,2.8,6,4.5c1.8,1.7,3.3,3.6,4.5,5.7l8.8-4.6v-22.2h-71.8v-16.4h112.5V123.5
		z"/>
	<path class="st0" d="M466.9,243.5l-11.9,10.6l-25-26.9c-1.5-1.6-3.3-3.5-5.2-5.5c-1.8-1.5-3.8-2.2-5.8-2.2c-3.6,0-5.4,1.8-5.4,5.5
		c0,3.7,3.1,5.5,9.3,5.5l-3,12.8c-5.8,0-10.5-1.4-14.2-4.1c-4.6-3.7-6.9-8.8-6.9-15.2c0-6,2.3-10.9,6.9-14.8
		c3.9-3.2,8.3-4.8,13.2-4.8c3.7,0,7.4,0.9,10.9,2.7c3.5,1.8,6.8,4.2,9.8,7.4L466.9,243.5z"/>
	<g>
		<path d="M159.9,75.5h-6.5v5.6h-8.8c-0.4,0-0.7,0.1-1,0.4c-0.3,0.2-0.4,0.5-0.4,0.9c0,0.4,0.1,0.7,0.4,1c0.6-0.3,1.2-0.5,1.9-0.6
			c0.7-0.2,1.5-0.2,2.3-0.2c1.3,0,2.4,0.2,3.3,0.5c1,0.3,1.7,0.8,2.4,1.3c0.6,0.6,1.1,1.2,1.4,1.9c0.3,0.7,0.5,1.4,0.5,2.2
			c0,0.6-0.1,1.1-0.4,1.7c-0.2,0.5-0.5,1-0.9,1.5c-0.4,0.5-0.7,0.9-1.1,1.2c-0.4,0.4-0.7,0.7-0.9,0.9l-3.4-2.9l0.9-0.8
			c0.2-0.2,0.4-0.4,0.7-0.6c0.2-0.2,0.4-0.5,0.4-0.8c0-0.2,0-0.4-0.1-0.6c-0.1-0.2-0.2-0.4-0.4-0.6c-0.2-0.2-0.5-0.4-0.9-0.5
			c-0.4-0.1-0.9-0.2-1.5-0.2c-0.5,0-1.1,0.1-1.5,0.2c-0.5,0.1-0.9,0.3-1.3,0.6c-0.4,0.3-0.7,0.6-0.9,1s-0.3,0.8-0.3,1.3
			c0,0.6,0.1,1.1,0.3,1.5c0.2,0.5,0.5,0.9,0.9,1.3c0.4,0.4,0.8,0.8,1.3,1.1c0.5,0.3,1,0.6,1.6,0.9c0.5,0.3,1.1,0.5,1.7,0.8
			c0.6,0.2,1.1,0.5,1.7,0.7l-2.2,3.5c-1.1-0.3-2.3-0.7-3.5-1.2c-1.2-0.5-2.3-1.2-3.2-2c-1-0.8-1.8-1.7-2.4-2.8
			c-0.6-1.1-0.9-2.3-0.9-3.7c0-0.5,0.1-1.1,0.3-1.7c0.2-0.6,0.5-1.3,1-2c-0.5-0.5-1-1.1-1.3-1.7c-0.3-0.6-0.5-1.3-0.5-2
			c0-0.7,0.1-1.4,0.4-2c0.3-0.6,0.7-1.2,1.2-1.7c0.5-0.5,1.1-0.9,1.8-1.1c0.7-0.3,1.4-0.4,2.3-0.4h4.5v-1.6h-11.4v-4h22.8V75.5z"/>
		<path d="M188.5,75.5h-6v18.7h-4.9v-8.7h-7c0,1-0.2,1.9-0.4,2.6c-0.3,0.7-0.6,1.4-1.1,1.8c-0.5,0.5-1.1,0.8-1.8,1.1
			c-0.7,0.2-1.5,0.4-2.4,0.4c-0.8,0-1.5-0.1-2.1-0.4c-0.6-0.3-1.2-0.6-1.6-1.1c-0.4-0.5-0.8-1-1-1.6c-0.2-0.6-0.3-1.3-0.3-2
			c0-0.6,0.1-1.1,0.4-1.7c0.2-0.6,0.6-1.1,1.1-1.6c0.5-0.5,1.1-0.8,1.9-1.1c0.8-0.3,1.7-0.4,2.7-0.4v-5.9h-7.2v-4h29.9V75.5z
			 M165.8,85.5c-0.7,0-1.1,0.1-1.4,0.3c-0.2,0.2-0.4,0.5-0.4,0.8c0,0.3,0.1,0.5,0.2,0.7c0.1,0.2,0.3,0.3,0.6,0.3
			c0.2,0,0.4-0.1,0.5-0.2c0.1-0.1,0.2-0.3,0.3-0.4c0.1-0.1,0.1-0.3,0.1-0.6c0-0.2,0-0.4,0-0.7V85.5z M177.7,81.5v-5.9h-7v5.9H177.7z
			"/>
		<path d="M198.7,75.5h-4.5v18.7h-4.9V75.5h-2.2v-4h11.5V75.5z"/>
		<path d="M217.1,75.5h-7v4.2c0,1.1-0.1,2-0.2,2.7c-0.1,0.8-0.3,1.4-0.5,1.9c-0.2,0.5-0.5,0.9-0.9,1.3c-0.4,0.3-0.8,0.6-1.3,0.7
			l6.7,7.1l-3.7,2.8l-12.4-13l3.7-2.8l2.4,2.5c0.9,0,1.4-0.8,1.4-2.5v-5h-7.8v-4h19.7V75.5z"/>
		<path d="M210.1,71.6l-2.7,2.1l-10.5-8.2l3.1-2.8L210.1,71.6z"/>
		<path d="M263.9,75.5H258v18.7h-4.9V75.5h-4.2v7.9c0,2.1-0.5,3.8-1.5,4.8c-1,1.1-2.6,1.6-4.8,1.6c-0.8,0-1.6-0.1-2.2-0.4
			c-0.7-0.2-1.2-0.6-1.7-1c-0.5-0.5-0.8-1-1.1-1.6c-0.3-0.6-0.4-1.3-0.4-2.1c0-0.7,0.1-1.3,0.4-1.9c0.3-0.6,0.7-1.1,1.2-1.5
			c0.5-0.4,1.1-0.8,1.8-1c0.7-0.2,1.4-0.4,2.2-0.4c0.2,0,0.4,0,0.6,0c0.2,0,0.4,0,0.6,0.1v-4.5h-8.7v-4h28.6V75.5z M242.7,85.7
			c0.4,0,0.8-0.1,1-0.4c0.2-0.3,0.4-0.7,0.4-1.5c-0.3-0.1-0.7-0.2-1.1-0.2c-0.3,0-0.6,0.1-0.9,0.3c-0.2,0.2-0.4,0.4-0.4,0.7
			c0,0.3,0.1,0.5,0.3,0.7C242.2,85.6,242.4,85.7,242.7,85.7z"/>
		<path d="M274.1,75.5h-4.5v18.7h-4.9V75.5h-2.2v-4h11.5V75.5z"/>
		<path d="M274.8,60.7c0,2.5-0.7,4.5-2.1,5.9c-1.5,1.5-3.5,2.2-5.9,2.2c-2.5,0-4.4-0.7-5.9-2.2c-1.4-1.4-2.1-3.4-2.1-5.9h3.6
			c0,1.7,0.4,2.9,1.2,3.8c0.8,0.8,1.9,1.3,3.3,1.3c1.4,0,2.5-0.4,3.3-1.3c0.8-0.8,1.2-2.1,1.2-3.8H274.8z M269.2,62.4l-2.4,2.2
			l-2.4-2.2l2.4-2.2L269.2,62.4z"/>
		<path d="M297.6,75.5H292v18.7h-4.9v-4.1c-0.8,0.4-1.7,0.7-2.5,0.8c-0.9,0.1-1.7,0.2-2.6,0.2c-1.1,0-2.1-0.2-3-0.6
			c-0.9-0.4-1.8-0.9-2.4-1.5c-0.7-0.6-1.2-1.4-1.6-2.2c-0.4-0.8-0.6-1.8-0.6-2.7c0-1,0.2-1.9,0.6-2.7c0.4-0.8,1-1.5,1.8-2.1
			c0.8-0.6,1.7-1.1,2.7-1.4c1-0.3,2.2-0.5,3.4-0.5c0.9,0,1.7,0.1,2.4,0.2c0.7,0.1,1.3,0.3,1.9,0.5v-2.7h-14.4v-4h24.8V75.5z
			 M287.1,82.4c-0.3-0.1-0.6-0.3-1-0.4c-0.4-0.1-0.7-0.2-1.1-0.3c-0.4-0.1-0.7-0.2-1.1-0.2c-0.4-0.1-0.7-0.1-1.1-0.1
			c-0.6,0-1.2,0.1-1.6,0.2c-0.4,0.1-0.8,0.2-1.1,0.4c-0.3,0.2-0.5,0.4-0.7,0.6c-0.2,0.2-0.3,0.4-0.4,0.7c-0.1,0.2-0.2,0.4-0.2,0.7
			c0,0.2,0,0.4,0,0.6c0,0.4,0.1,0.8,0.3,1.2c0.2,0.4,0.4,0.7,0.7,0.9c0.3,0.3,0.7,0.5,1.1,0.6c0.4,0.1,0.9,0.2,1.4,0.2
			c0.6,0,1.1-0.1,1.7-0.2s1-0.3,1.4-0.5c0.4-0.2,0.8-0.4,1.1-0.6c0.3-0.2,0.5-0.4,0.7-0.5V82.4z"/>
		<path d="M347.7,71.5v4h-14.6v4.7c0.6-0.4,1.3-0.6,1.9-0.8c0.6-0.2,1.3-0.2,2-0.2c1,0,1.9,0.1,2.7,0.4c0.8,0.3,1.5,0.7,2.1,1.3
			c0.6,0.5,1,1.2,1.3,2c0.3,0.8,0.4,1.6,0.4,2.6c0,0.6-0.1,1.2-0.3,1.8c-0.2,0.6-0.5,1.3-0.8,1.9c-0.3,0.6-0.7,1.2-1.2,1.8
			c-0.4,0.6-0.9,1.1-1.4,1.6l-3-3.4c0.3-0.2,0.5-0.5,0.8-0.9c0.3-0.3,0.5-0.7,0.7-1c0.2-0.4,0.4-0.7,0.5-1c0.1-0.3,0.2-0.6,0.2-0.9
			c0-0.4-0.1-0.7-0.2-1c-0.1-0.3-0.3-0.5-0.6-0.7c-0.2-0.2-0.5-0.3-0.7-0.4c-0.2-0.1-0.5-0.1-0.6-0.1c-0.4,0-0.7,0-1,0.1
			c-0.3,0.1-0.6,0.2-0.9,0.4c-0.3,0.2-0.6,0.4-0.9,0.6c-0.3,0.2-0.6,0.5-0.9,0.8v9h-4.9v-6.1c-0.6,0.3-1.3,0.6-2.1,0.8
			c-0.8,0.2-1.6,0.4-2.3,0.4c-1.3,0-2.4-0.2-3.3-0.6c-0.9-0.4-1.6-0.8-2.2-1.4c-0.5-0.6-0.9-1.2-1.2-1.9c-0.2-0.7-0.4-1.4-0.4-2
			c0-0.8,0.2-1.6,0.5-2.3c0.4-0.7,0.9-1.3,1.5-1.8c0.6-0.5,1.4-0.9,2.3-1.2c0.9-0.3,1.9-0.4,2.9-0.4c0.9,0,1.7,0.1,2.4,0.2
			c0.7,0.2,1.3,0.3,1.8,0.5v-2.9h-12.5v-4H347.7z M328.3,82.9c-0.2-0.1-0.5-0.2-0.8-0.4c-0.3-0.1-0.6-0.3-1-0.4
			c-0.4-0.1-0.7-0.2-1.1-0.3c-0.4-0.1-0.9-0.1-1.3-0.1c-1.6,0-2.5,0.5-2.5,1.5c0,0.7,0.2,1.1,0.6,1.5c0.4,0.3,0.9,0.5,1.6,0.5
			c0.4,0,0.7-0.1,1.1-0.2c0.4-0.1,0.8-0.3,1.2-0.5c0.4-0.2,0.8-0.4,1.1-0.6c0.4-0.2,0.7-0.4,1-0.6V82.9z"/>
		<path d="M357.9,75.5h-4.5v18.7h-4.9V75.5h-2.2v-3.3l-2.6-2.2c-0.6-0.5-1.2-1-1.7-1.4c-0.5-0.4-1.1-0.8-1.6-1.1
			c-0.5-0.3-1-0.5-1.5-0.7c-0.5-0.2-1-0.2-1.5-0.2c-0.5,0-0.9,0.1-1.3,0.2c-0.4,0.1-0.7,0.3-1,0.5c-0.3,0.2-0.5,0.5-0.7,0.8
			c-0.2,0.3-0.2,0.7-0.2,1.1c0,0.8,0.7,1.7,2,2.8l-2.8,3c-2.6-2-3.9-4.1-3.9-6.2c0-0.9,0.2-1.8,0.6-2.6c0.4-0.8,0.9-1.5,1.6-2
			c0.7-0.6,1.5-1,2.5-1.4c1-0.3,2-0.5,3.2-0.5c0.9,0,1.8,0.1,2.5,0.3c0.8,0.2,1.5,0.5,2.1,0.9c0.7,0.4,1.3,0.8,1.9,1.2
			c0.6,0.5,1.3,0.9,1.9,1.4c0.6,0.5,1.4,1.2,2.4,2.1c1,0.9,2.1,2,3.5,3.4h5.9V75.5z"/>
		<path d="M400.9,75.5h-5.6v18.7h-4.9v-4.3c-0.8,0.4-1.7,0.8-2.5,1c-0.9,0.2-1.7,0.3-2.6,0.3c-1.1,0-2.1-0.2-3-0.6
			c-0.9-0.4-1.8-0.9-2.5-1.5c-0.7-0.6-1.3-1.4-1.7-2.2c-0.4-0.8-0.6-1.8-0.6-2.7c0-1,0.2-1.9,0.7-2.7c0.4-0.8,1.1-1.5,1.8-2.1
			c0.8-0.6,1.7-1.1,2.8-1.4c1.1-0.3,2.2-0.5,3.4-0.5c0.9,0,1.7,0.1,2.4,0.2c0.7,0.1,1.3,0.3,1.9,0.5v-2.7h-14.4v-4h24.8V75.5z
			 M382.3,83.4c-0.1,0.1-0.1,0.3-0.2,0.5c0,0.2-0.1,0.3-0.1,0.5c0,0.4,0.1,0.8,0.3,1.2c0.2,0.4,0.5,0.7,0.8,0.9
			c0.3,0.3,0.7,0.5,1.2,0.6c0.4,0.1,0.9,0.2,1.4,0.2c0.1,0,0.1,0,0.2,0c0.1,0,0.2,0,0.2,0L382.3,83.4z M390.5,82.4
			c-0.3-0.1-0.6-0.3-1-0.4c-0.4-0.1-0.7-0.2-1.1-0.3c-0.4-0.1-0.7-0.2-1.1-0.2c-0.4-0.1-0.7-0.1-1.1-0.1c-0.1,0-0.2,0-0.3,0
			c-0.1,0-0.2,0-0.3,0c0.7,0.7,1.4,1.4,2,2.1c0.7,0.7,1.4,1.4,2.1,2.2l0.7-0.5V82.4z"/>
		<path d="M411.1,75.5h-4.5v18.7h-4.9V75.5h-2.2v-4h11.5V75.5z"/>
		<path d="M437.2,75.5h-5.4v18.7h-4.9V84h-8c-0.9,0-1.6,0.2-2.1,0.7c-0.5,0.4-0.7,1-0.7,1.8c0,1.2,0.5,2.3,1.6,3.4
			c0.1,0.1,0.5,0.5,1.2,1.1c0.7,0.6,1.7,1.4,3,2.4l-3.8,2.9c-4.6-3.7-6.9-6.9-6.9-9.6c0-1,0.2-1.9,0.5-2.8c0.3-0.8,0.8-1.5,1.4-2.1
			c0.6-0.6,1.4-1,2.3-1.4c0.9-0.3,1.9-0.5,3-0.5h8.5v-4.4h-17.1v-4h27.4V75.5z"/>
		<path d="M431,71.8l-2.7,2.1l-10.5-8.2l3.1-2.8L431,71.8z M433.6,63.8l-3.3,2.9l-3.3-2.9l3.3-2.9L433.6,63.8z"/>
	</g>
</g>
</svg>
