<?xml version="1.0" encoding="utf-8"?>
<!-- Generator: Adobe Illustrator 27.3.1, SVG Export Plug-In . SVG Version: 6.00 Build 0)  -->
<svg version="1.1" id="Layer_1" xmlns="http://www.w3.org/2000/svg" xmlns:xlink="http://www.w3.org/1999/xlink" x="0px" y="0px"
	 viewBox="0 0 512 272" style="enable-background:new 0 0 512 272;" xml:space="preserve">
<style type="text/css">
	.st0{fill:#FF9933;}
</style>
<g>
	<path class="st0" d="M65,28.7c0-1.2,0.8-1.4,1.5-1.7c8-3.2,15.8,1.2,19.2,10.7c0.7,2,1.1,4.1,1.7,6.2c0-0.7,0.1-1.5,0.1-2.4
		c0.4,0.3,0.4,0.7,0.4,1.1c0.1,2.2,0.8,4.3,2.1,5.8c2.9,3.4,3.3,7.7,3.2,12.3C93.1,66.6,91.6,72,89,76.9c-1.6,3-3.9,5.2-5.6,8
		c0,0-0.1,0-0.3,0.1c0.7-2.8,1-5.5,1.1-8.4c0.1-2.8,0-5.6-0.4-8.7c-0.3,1.8-0.2,3.4-0.3,4.9c-0.1,3.1-0.2,6.3-1.8,8.9
		c-2.3,4-5.3,7.2-8.8,9.4c-2.4,1.5-4.8,3.4-7.6,4c-0.4,0.1-0.7,0.4-1,0.8c-1.2,1.6-2.5,3.2-3.8,4.7c-0.4,0.5-0.5,0.8-0.1,1.3
		c2.6,3.3,4.8,7,6.4,11.2c0.2,0.6,0.7,0.6,1.1,0.7c4.4,0.5,8.8,1.1,13.1,2.7c3.5,1.3,7.1,2.1,10.5,3.9c0.1,0.1,0.3,0.2,0.6,0.4
		c-4.9-1-9.5-2-14.2-2.5c-4.8-0.5-9.5-0.8-14.3-0.7c-4.7,0.1-9.5,0.3-14.2,1c-4.7,0.7-9.5,1.1-14.1,2.4c1.7-1.2,3.4-2.3,5.2-2.8
		c4-1.3,8-3,12.1-3.7c0.6-0.1,1.2-0.3,1.9-0.3c0.9-0.1,0.8-0.5,0.4-1.2c-1.4-2.3-3.2-4.2-5-6.1c-1.1-1.1-2.6-2-2.5-4.2
		c0-0.3-0.2-0.5-0.5-0.3c-0.1,0.1-0.2,0.1-0.3,0.2c-6.7,4.4-13.1,9.3-19.6,14.1c-1,0.7-2.3,0.5-3.1,1.6c-0.3,0.4-0.7,0.9-1.5,1.1
		c0.6-1.1,1.1-2.1,1.6-3c0.3-0.7,0.7-1.3,1-2c0.3-0.4,0.3-1.4,1.1-0.8c0,0,0.2-0.1,0.3-0.2c1-1.8,1.9-3.6,2.9-5.5
		c-0.2-0.1-0.3-0.2-0.3-0.1c-2.8,2.3-6.1,3.3-8.7,6c-0.4,0.4-0.8,0.5-1-0.3c-0.4-2.5-1-4.9-0.8-7.5c0.1-1.3,0.5-2.6,1.2-3.5
		c1.8-2.1,3.5-4.4,5.6-5.9c2.4-1.7,4-4.2,5.9-6.4c0.9-1.1,1.7-2.5,2.2-4c0.5-1.6,0.4-2.2-0.8-3c-0.6-0.4-0.6-0.9-0.4-1.6
		c0.6-2,1.6-3.8,2.5-5.7c2.1-4,4.3-7.9,6.7-11.7c0.2-0.2,0.4-0.6,0.5-0.6c1.2,0.1,1.4-1,1.7-1.9c2.2-6.9,6.5-11.2,11.8-14
		c3-1.6,6.2-2.6,9.3-3.8c0.8-0.3,1.2,0.1,1.3,1.1c0.3,1.9,0.2,3.8,0.3,5.8c0.4-0.1,0.3-0.6,0.4-0.9c0.7-4.6-0.1-8.6-2.9-11.8
		c-2-2.3-4.2-4.2-7.1-4.6c-0.1,0-0.3-0.1-0.4-0.1c-0.3-0.1-0.6-0.2-0.6-0.7c0-0.5,0.4-0.4,0.7-0.5c2.1-0.1,4.1-0.1,6.1,0.5
		c0.7,0.2,1.4,0.4,2.2,0.6c0.1-0.8-0.4-0.9-0.7-1c-3.4-1.5-6.7-1.9-10.1-0.2c-0.2,0.1-0.5,0.5-0.8,0.1c-0.2-0.3,0.1-0.6,0.3-0.8
		c0.7-1.1,1.6-2.1,2.8-2.4c2.5-0.7,5-1.2,7.5-0.9C64,28.3,64.4,28.9,65,28.7c-0.3,0.7-0.1,1.1,0.5,1.3c0.5,0.1,0.9,0.2,1.4,0.3
		c0.7,0,1.4,0.1,1.9-0.8c0.1-0.2,0.1-0.6-0.1-0.7c-0.7-0.5-1.3-0.3-2,0.1C66.1,29.2,65.5,29.4,65,28.7z M61.4,113.7
		C61.4,113.7,61.4,113.6,61.4,113.7c0.7-0.1,1.4-0.1,2.1-0.1c0.2,0,0.6,0.2,0.7-0.2c0.1-0.3-0.2-0.6-0.3-0.8
		c-1.6-2.6-3.4-4.8-5.3-7.1c-0.5-0.6-1.1-1.1-1.9-1.4c-1.5-0.6-2-1.9-1.4-3.8c0.1-0.5,0.3-0.9,0.5-1.4c0.1-0.2,0.3-0.5,0-0.7
		c-0.2-0.2-0.4,0-0.6,0.2c-1,1-2,2.1-2.8,3.3c-0.5,0.7-0.5,1.2-0.1,1.9c1.5,2.4,3.1,4.8,4.2,7.6c0.1,0.2,0.3,0.7,0.6,0.3
		c0.6-1,0.6-0.3,0.8,0.3c0.7,2,0.7,2,2.4,1.8C60.6,113.7,61,113.7,61.4,113.7z"/>
</g>
<g>
	<path class="st0" d="M67.6,145.3H35.7v-18.1h31.9V145.3z M35.7,157.7h30.4c0.8-1.2,1.5-2.4,1.9-3.9c0.5-1.4,0.7-3,0.7-4.9
		c0-3-0.6-5.6-1.8-7.7c-1.2-2.1-2.8-3.8-4.8-5V135h15.3c1.5,2.2,2.6,4.3,3.4,6.4c0.7,2.1,1.1,4.6,1.2,7.5c0,1.6-0.1,3.2-0.4,4.7
		c-0.3,1.5-0.7,2.9-1.2,4.1h27.5v18.1H93c1.1,2.7,1.9,5.5,2.5,8.5c0.6,3,0.9,6.1,0.9,9.3c0,4.9-0.6,9.5-1.9,13.8
		c-1.3,4.3-3,8-5.2,11.2c-2.2,3.2-4.8,5.7-7.8,7.5c-3,1.8-6.2,2.8-9.6,2.8c-3.4,0-6.6-0.9-9.6-2.8c-3-1.8-5.6-4.3-7.8-7.5
		c-2.2-3.2-4-6.9-5.2-11.2c-1.3-4.3-1.9-8.9-1.9-13.8c0-3.3,0.3-6.4,0.9-9.3c0.6-3,1.4-5.8,2.5-8.5h-15V157.7z M71.8,176.7
		c-1.7,0-3.2,0.4-4.6,1.3c-1.4,0.8-2.6,2-3.6,3.5c-1,1.5-1.8,3.3-2.4,5.4c-0.6,2.1-0.9,4.3-0.9,6.7c0,2.4,0.3,4.7,0.9,6.7
		c0.6,2,1.4,3.8,2.4,5.3c1,1.5,2.2,2.7,3.6,3.5c1.4,0.8,2.9,1.3,4.6,1.3c1.6,0,3.1-0.4,4.5-1.3c1.4-0.8,2.6-2,3.6-3.5
		c1-1.5,1.8-3.3,2.4-5.3c0.6-2,0.9-4.3,0.9-6.7c0-2.4-0.3-4.7-0.9-6.7c-0.6-2.1-1.4-3.9-2.4-5.4c-1-1.5-2.2-2.7-3.6-3.5
		C75,177.1,73.4,176.7,71.8,176.7z M97.5,90c2.2,2,4,4.2,5.5,6.5c1.4,2.3,2.6,4.7,3.4,7.1c0.8,2.4,1.4,4.8,1.8,7.1
		c0.3,2.4,0.5,4.6,0.5,6.7c0,3-0.4,6.1-1.1,9.4c-0.7,3.3-1.8,6.3-3.4,9c-1.6,2.7-3.6,5-6,6.8c-2.5,1.8-5.4,2.7-8.9,2.7h-27v-18.1
		h24.7c1.4,0,2.7-0.3,3.7-1c1-0.7,1.9-1.6,2.6-2.6c0.7-1.1,1.2-2.3,1.5-3.6c0.3-1.3,0.5-2.6,0.5-3.9c0-1.4-0.1-2.7-0.4-3.9
		c-0.3-1.2-0.7-2.2-1.1-3.2c-0.5-1-1-1.9-1.6-2.7c-0.6-0.8-1.3-1.6-1.9-2.3L97.5,90z"/>
	<path class="st0" d="M175.7,184.8c0.8,3.1,1.7,6,2.9,8.8c1.2,2.7,2.4,5.1,3.8,7.2c1.4,2,2.9,3.7,4.5,4.9c1.6,1.2,3.2,1.8,4.9,1.8
		c1.8,0,3.4-0.4,4.9-1.1c1.4-0.8,2.7-2,3.6-3.7c1-1.7,1.7-3.9,2.3-6.6c0.5-2.7,0.8-5.9,0.8-9.8c0-5.5-0.7-10.6-2-15.2
		c-1.3-4.6-3.1-8.7-5.3-12.2c-2.2-3.5-4.6-6.4-7.3-8.8c-2.7-2.3-5.5-3.9-8.2-4.9l2-17.9c2.6,0.8,5.3,2,8,3.6
		c2.7,1.6,5.4,3.5,7.9,5.8c2.6,2.3,5,5.1,7.3,8.3c2.3,3.2,4.3,6.9,6,11.1c1.7,4.2,3.1,8.9,4,14.1c1,5.2,1.5,11,1.5,17.3
		c0,7.6-0.7,14-2,19.3c-1.4,5.3-3.1,9.6-5.4,12.8c-2.2,3.3-4.8,5.6-7.6,7.1c-2.9,1.5-5.8,2.2-8.8,2.2c-3.1,0-5.8-0.7-8.1-2.2
		c-2.3-1.5-4.3-3.3-5.9-5.5c-1.7-2.2-3-4.5-4.1-6.9c-1.1-2.4-2-4.6-2.7-6.6h-0.3c-0.7,1.9-1.7,4.1-2.9,6.6c-1.2,2.4-2.7,4.8-4.5,6.9
		c-1.8,2.2-3.9,4-6.3,5.5c-2.4,1.5-5.1,2.2-8.2,2.2c-2.6,0-4.9-0.5-6.9-1.4c-2-0.9-3.7-2.1-5.2-3.7c-1.5-1.5-2.7-3.3-3.7-5.2
		c-1-2-1.8-4-2.4-6.1c-0.6-2.1-1-4.2-1.3-6.3c-0.2-2.1-0.4-4-0.4-5.8c0-4,0.4-7.6,1.2-10.8c0.8-3.2,1.8-6.2,3-8.9
		c1.2-2.7,2.5-5.2,3.9-7.5c1.4-2.3,2.7-4.5,3.9-6.5c1.2-2.1,2.2-4.1,3-6.1c0.8-2,1.2-4.1,1.2-6.2c0-1.3-0.2-2.4-0.4-3.5
		c-0.3-1.1-0.7-2-1.2-2.9c-0.5-0.8-1.2-1.5-1.9-2c-0.7-0.5-1.6-0.7-2.5-0.7c-2.3,0-4.1,1.1-5.2,3.2c-1.2,2.2-1.7,5-1.7,8.7
		c0,1,0,2,0.1,3c0.1,1,0.2,2.1,0.3,3.1l-13.1,2.9c-0.2-1.4-0.3-2.6-0.4-3.8c-0.1-1.2-0.2-2.5-0.2-4.1c0-4.2,0.4-8.1,1.3-11.9
		c0.9-3.8,2.2-7.1,3.9-9.9c1.8-2.8,4-5.1,6.6-6.8c2.7-1.7,5.8-2.5,9.4-2.5c3.3,0,6.1,0.8,8.5,2.4c2.4,1.6,4.4,3.6,5.9,6
		c1.5,2.4,2.7,5.2,3.4,8.1c0.7,3,1.1,5.8,1.1,8.6c0,3.8-0.4,7.2-1.2,10.4c-0.8,3.1-1.8,6-3,8.7c-1.2,2.7-2.5,5.1-3.9,7.4
		c-1.4,2.3-2.7,4.5-3.9,6.6c-1.2,2.1-2.2,4.2-3,6.3c-0.8,2.1-1.2,4.2-1.2,6.4c0,2.9,0.8,5.2,2.4,6.8c1.6,1.7,3.6,2.5,6.2,2.5
		c1.7,0,3.3-0.6,4.9-1.8c1.6-1.2,3.1-2.8,4.5-4.9c1.4-2,2.7-4.4,3.8-7.2c1.1-2.7,2.1-5.6,2.9-8.8H175.7z M242.1,207.4
		c1.8,0,3.5-0.6,4.9-1.7c1.5-1.2,2.7-2.7,3.7-4.7c1-1.9,1.7-4.2,2.3-6.7c0.5-2.5,0.8-5.2,0.8-8.1c0-5.5-0.7-10.6-2-15.2
		c-1.3-4.6-3.1-8.7-5.3-12.2c-2.2-3.5-4.6-6.4-7.3-8.8c-2.7-2.3-5.5-3.9-8.2-4.9l2-17.9c2.6,0.8,5.3,2,8,3.6
		c2.7,1.6,5.4,3.5,7.9,5.8c2.6,2.3,5,5.1,7.3,8.4c2.3,3.2,4.3,6.9,6,11.1c1.7,4.2,3.1,8.9,4,14c1,5.2,1.5,10.9,1.5,17.2
		c0,7.1-0.7,13.3-2.1,18.5c-1.4,5.2-3.3,9.5-5.6,12.9c-2.3,3.4-5,5.9-8.1,7.5s-6.2,2.4-9.5,2.4c-2.5,0-4.9-0.7-7.3-2
		c-2.4-1.4-4.6-3.1-6.6-5.2c-2-2.1-3.8-4.5-5.4-7.2c-1.6-2.7-2.8-5.3-3.8-7.9l9-12.9c0.8,1.7,1.8,3.4,2.9,5c1.1,1.7,2.2,3.1,3.4,4.5
		c1.2,1.3,2.4,2.4,3.7,3.2C239.4,207,240.8,207.4,242.1,207.4z"/>
	<path class="st0" d="M366.5,160.2c0,3.7-0.4,7-1.1,10c-0.7,3-1.7,5.7-2.9,8.1c-1.3,2.4-2.7,4.6-4.4,6.5s-3.5,3.5-5.5,5
		c-2,1.4-4,2.6-6.2,3.6c-2.1,1-4.3,1.8-6.4,2.5c1,2.6,1.4,5.6,1.4,9c0,3.2-0.4,6.2-1.2,9.1c-0.8,2.9-1.9,5.4-3.4,7.6
		c-1.5,2.2-3.2,3.9-5.3,5.2c-2.1,1.3-4.4,2-6.9,2s-4.8-0.7-6.9-2c-2.1-1.3-3.8-3.1-5.3-5.2c-1.5-2.2-2.6-4.7-3.4-7.6
		c-0.8-2.9-1.2-5.9-1.2-9.1c0-3.4,0.5-6.4,1.4-9c-2.3-0.7-4.5-1.5-6.8-2.4c-2.3-0.9-4.5-2-6.7-3.3c-2.1-1.3-4.2-2.8-6-4.6
		c-1.9-1.8-3.5-3.9-4.9-6.3c-1.4-2.4-2.5-5.3-3.3-8.4c-0.8-3.2-1.2-6.8-1.2-10.8c0-4.8,0.8-9.2,2.3-13.4c1.5-4.2,3.6-7.8,6.2-10.9
		c2.6-3.1,5.6-5.5,9-7.3c3.4-1.8,7-2.7,10.9-2.7c1.7,0,3.3,0.2,5.1,0.6c1.7,0.4,3.4,1,5,1.8c1.6,0.8,3.1,1.9,4.5,3.2
		c1.4,1.3,2.6,2.9,3.7,4.7c1.1,1.8,1.9,4,2.5,6.5c0.6,2.5,0.9,5.3,0.9,8.4c0,3-0.4,5.8-1.2,8.4s-1.9,4.7-3.2,6.5s-3,3.2-4.9,4.2
		c-1.9,1-3.9,1.5-6,1.5c-1.9,0-3.7-0.5-5.5-1.4c-1.8-0.9-3.5-2.2-4.9-4c-1.4-1.7-2.6-3.8-3.5-6.3c-0.9-2.5-1.4-5.3-1.4-8.5
		c0-1.5,0.1-3,0.4-4.6c0.2-1.5,0.6-3,1.1-4.4h-0.4c-0.7,0.5-1.4,1.2-2.2,2.3c-0.8,1.1-1.5,2.4-2.1,3.9c-0.7,1.6-1.2,3.3-1.6,5.2
		c-0.4,1.9-0.6,4-0.6,6.3c0,3.5,0.7,6.4,2,8.7c1.3,2.3,3.2,4.2,5.8,5.7c2.6,1.6,5.8,2.8,9.6,3.9c3.8,1,8.2,2,13.2,3
		c5-1,9.3-2.1,12.8-3.2c3.5-1,6.4-2.4,8.7-3.9c2.3-1.5,3.9-3.5,4.9-5.7c1-2.3,1.6-5.1,1.6-8.5c0-2-0.3-4-0.9-5.7
		c-0.6-1.8-1.6-3.3-2.9-4.7s-3.1-2.4-5.2-3.2c-2.1-0.8-4.8-1.1-7.9-1.1v-18.1h22.1c1.4,0,2.7-0.3,3.7-1c1-0.7,1.9-1.6,2.6-2.6
		c0.7-1.1,1.2-2.3,1.5-3.6c0.3-1.3,0.5-2.6,0.5-3.9c0-1.4-0.1-2.7-0.4-3.9c-0.3-1.2-0.7-2.2-1.1-3.2c-0.5-1-1-1.9-1.6-2.7
		c-0.6-0.8-1.3-1.6-1.9-2.3l7.4-14c2.2,2,4,4.2,5.5,6.5c1.4,2.3,2.6,4.7,3.4,7.1c0.8,2.4,1.4,4.8,1.8,7.1c0.3,2.4,0.5,4.6,0.5,6.7
		c0,2.8-0.3,5.7-0.9,8.7c-0.6,3-1.5,5.8-2.8,8.4c-1.3,2.6-3,4.9-5,6.8c-2.1,1.9-4.5,3.1-7.4,3.7c1,2.4,1.8,4.9,2.3,7.5
		C366.3,155,366.5,157.6,366.5,160.2z M310.9,150.2c0,1.6,0.4,3,1.2,4.2c0.8,1.2,1.8,1.8,3,1.8c1.1,0,2.1-0.6,2.9-1.7
		c0.8-1.1,1.2-2.6,1.2-4.3c0-1.5-0.4-3-1.1-4.4c-0.8-1.4-1.8-2.4-3-3.1c-1.3,0.7-2.4,1.8-3.1,3.2
		C311.3,147.3,310.9,148.7,310.9,150.2z M324.7,211.3c0.5,0,1.1-0.1,1.6-0.4c0.5-0.3,1-0.7,1.5-1.2c0.4-0.6,0.8-1.2,1.1-2.1
		c0.3-0.8,0.4-1.8,0.4-3c0-1-0.1-2-0.4-2.9c-0.3-0.9-0.6-1.6-1.1-2.3c-0.4-0.7-0.9-1.2-1.5-1.6c-0.5-0.4-1.1-0.6-1.6-0.7
		c-0.5,0.1-1.1,0.4-1.6,0.7c-0.5,0.4-1,0.9-1.5,1.5c-0.4,0.6-0.8,1.4-1.1,2.3c-0.3,0.9-0.4,1.9-0.4,2.9c0,1.2,0.1,2.2,0.4,3
		c0.3,0.8,0.6,1.5,1.1,2.1c0.4,0.6,0.9,1,1.5,1.2C323.6,211.2,324.1,211.3,324.7,211.3z M387.7,207.4c1.8,0,3.5-0.6,4.9-1.7
		c1.5-1.2,2.7-2.7,3.7-4.7c1-1.9,1.7-4.2,2.3-6.7c0.5-2.5,0.8-5.2,0.8-8.1c0-4.7-0.5-9.1-1.5-13.2c-1-4.1-2.3-7.8-4-11
		c-1.7-3.3-3.6-6.1-5.8-8.6c-2.2-2.4-4.4-4.4-6.8-6l3.4-17.6c2.3,1.2,4.6,2.7,7,4.5c2.3,1.8,4.5,3.9,6.6,6.3c2.1,2.4,4,5.2,5.9,8.3
		c1.8,3.1,3.4,6.6,4.7,10.4c1.3,3.9,2.4,8.1,3.1,12.8c0.8,4.7,1.1,9.7,1.1,15.2c0,7.1-0.7,13.3-2.1,18.5c-1.4,5.2-3.3,9.5-5.6,12.9
		c-2.3,3.4-5,5.9-8.1,7.5c-3.1,1.6-6.2,2.4-9.5,2.4c-2.5,0-4.9-0.7-7.3-2c-2.4-1.4-4.6-3.1-6.6-5.2c-2-2.1-3.8-4.5-5.4-7.2
		c-1.6-2.7-2.8-5.3-3.8-7.9l9-12.9c0.8,1.7,1.8,3.4,2.9,5c1.1,1.7,2.2,3.1,3.4,4.5c1.2,1.3,2.4,2.4,3.7,3.2
		C385,207,386.4,207.4,387.7,207.4z"/>
	<path class="st0" d="M452.1,145.3c-2,0-3.7,0.3-5.1,0.9c-1.4,0.6-2.5,1.5-3.4,2.5c-0.8,1.1-1.5,2.2-1.8,3.6
		c-0.4,1.3-0.6,2.7-0.6,4.1c0,1.5,0.2,3,0.6,4.3c0.4,1.4,1,2.6,1.8,3.6c0.8,1.1,1.7,1.9,2.9,2.5c1.1,0.6,2.4,0.9,3.9,0.9h19.3v18.7
		h-13.5c-2,0-4,0.3-5.9,1c-2,0.7-3.8,1.7-5.4,3.2c-1.6,1.4-2.9,3.3-3.9,5.6c-1,2.3-1.5,5.1-1.5,8.4c0,1.9,0.2,3.6,0.5,5.1
		c0.4,1.5,0.9,3,1.6,4.3c0.7,1.4,1.5,2.7,2.6,4c1,1.3,2.2,2.7,3.6,4.1l-8,15.5c-1.7-1.5-3.3-3.3-5-5.3c-1.6-2-3.1-4.3-4.3-6.9
		s-2.3-5.5-3.1-8.8c-0.8-3.2-1.2-6.8-1.2-10.8c0-1.9,0.1-4.1,0.4-6.5c0.3-2.4,0.8-4.7,1.6-7.1c0.8-2.4,1.9-4.7,3.2-7
		c1.4-2.3,3.1-4.3,5.2-6.2c-3.3-3.3-5.6-6.9-7-10.7c-1.4-3.8-2.1-8-2.1-12.5c0-4,0.5-7.8,1.6-11.3c1-3.5,2.6-6.5,4.6-9.1
		s4.6-4.6,7.7-6.1c3-1.5,6.6-2.2,10.6-2.2h44v18.1H452.1z"/>
</g>
<g>
	<path d="M131.9,119.2c-0.6,0-1.1-0.1-1.6-0.2c-0.4-0.2-0.8-0.4-1.2-0.6c-0.3-0.3-0.6-0.6-0.9-0.9c-0.2-0.3-0.5-0.7-0.7-1
		c-0.2-0.4-0.4-0.7-0.5-1c-0.2-0.3-0.3-0.6-0.5-0.9c-0.2-0.3-0.4-0.5-0.6-0.6c-0.2-0.2-0.5-0.2-0.8-0.2c-0.3,0-0.5,0.1-0.7,0.2
		c-0.2,0.1-0.3,0.3-0.5,0.4c-0.1,0.2-0.2,0.3-0.3,0.5c0,0.2-0.1,0.4-0.1,0.5c0,0.2,0,0.4,0.1,0.7c0,0.2,0.1,0.4,0.3,0.6
		c0.1,0.2,0.3,0.4,0.5,0.6c0.2,0.2,0.5,0.5,0.8,0.7l-1.4,1.8c-0.5-0.3-1-0.7-1.3-1.1c-0.3-0.4-0.6-0.8-0.8-1.1
		c-0.2-0.4-0.3-0.8-0.4-1.1c-0.1-0.4-0.1-0.7-0.1-1.1c0-0.5,0.1-1,0.2-1.4c0.2-0.5,0.4-0.9,0.7-1.3c0.3-0.4,0.7-0.7,1.2-0.9
		c0.5-0.2,1.1-0.3,1.8-0.3c0.5,0,1,0.1,1.4,0.2c0.4,0.2,0.8,0.4,1.1,0.6c0.3,0.3,0.6,0.6,0.8,0.9c0.2,0.3,0.4,0.7,0.6,1
		s0.4,0.7,0.6,1c0.2,0.3,0.4,0.6,0.6,0.9c0.2,0.3,0.4,0.5,0.7,0.6c0.3,0.2,0.6,0.2,0.9,0.2c0.3,0,0.7-0.1,0.9-0.2
		c0.3-0.2,0.5-0.4,0.7-0.6c0.2-0.3,0.3-0.5,0.4-0.9c0.1-0.3,0.1-0.7,0.1-1c0-0.6-0.1-1.2-0.4-1.8c-0.2-0.5-0.5-1-0.9-1.4
		s-0.8-0.7-1.3-1c-0.5-0.3-1-0.5-1.4-0.6l0.3-2.1c0.5,0.1,0.9,0.2,1.4,0.4c0.5,0.2,0.9,0.4,1.4,0.7c0.5,0.3,0.9,0.6,1.3,1
		c0.4,0.4,0.8,0.8,1.1,1.3c0.3,0.5,0.5,1,0.7,1.6c0.2,0.6,0.3,1.3,0.3,2c0,0.8-0.1,1.6-0.3,2.2c-0.2,0.6-0.6,1.1-1,1.5
		c-0.4,0.4-0.9,0.7-1.4,0.9C133.1,119.1,132.5,119.2,131.9,119.2z M130.9,109.5h-9.7v-2.1h9.7V109.5z M134.5,103
		c0.4,0.2,0.7,0.5,1,0.8c0.3,0.3,0.5,0.5,0.6,0.8c0.1,0.3,0.3,0.6,0.3,0.8c0.1,0.3,0.1,0.5,0.1,0.8c0,0.4-0.1,0.7-0.2,1.1
		c-0.1,0.4-0.3,0.7-0.6,1.1c-0.3,0.3-0.6,0.6-1.1,0.8c-0.4,0.2-1,0.3-1.6,0.3h-4.8v-2.1h4.3c0.3,0,0.5,0,0.7-0.1
		c0.2-0.1,0.3-0.2,0.5-0.3c0.1-0.1,0.2-0.3,0.3-0.4c0.1-0.2,0.1-0.3,0.1-0.5c0-0.2,0-0.3-0.1-0.5c0-0.1-0.1-0.3-0.2-0.4
		c-0.1-0.1-0.2-0.2-0.3-0.3c-0.1-0.1-0.2-0.2-0.3-0.3L134.5,103z"/>
	<path d="M158,116.7c0.3,0,0.6-0.1,0.9-0.2c0.3-0.1,0.5-0.3,0.6-0.5c0.2-0.2,0.3-0.5,0.4-0.8c0.1-0.3,0.1-0.6,0.1-0.9
		c0-0.6-0.1-1.2-0.4-1.8c-0.2-0.5-0.5-1-0.9-1.4c-0.4-0.4-0.8-0.8-1.3-1c-0.5-0.3-1-0.5-1.4-0.6l0.3-2.1c0.5,0.1,0.9,0.2,1.4,0.4
		c0.5,0.2,0.9,0.4,1.4,0.7c0.5,0.3,0.9,0.6,1.3,1c0.4,0.4,0.8,0.8,1.1,1.3c0.3,0.5,0.5,1,0.7,1.6c0.2,0.6,0.3,1.3,0.3,2
		c0,0.8-0.1,1.6-0.4,2.2c-0.2,0.6-0.6,1.1-1,1.5c-0.4,0.4-0.9,0.7-1.5,0.9c-0.6,0.2-1.2,0.3-1.8,0.3c-0.4,0-0.8-0.1-1.1-0.2
		c-0.3-0.1-0.7-0.2-1-0.4c-0.3-0.2-0.6-0.4-0.8-0.6c-0.2-0.2-0.4-0.5-0.6-0.7c-0.2,0.3-0.4,0.6-0.7,0.9c-0.3,0.2-0.5,0.4-0.9,0.6
		c-0.3,0.2-0.6,0.3-1,0.3c-0.3,0.1-0.7,0.1-1,0.1c-0.5,0-1-0.1-1.4-0.3c-0.4-0.2-0.8-0.4-1-0.6c-0.3-0.3-0.5-0.5-0.7-0.8
		s-0.4-0.5-0.5-0.8h-0.1c-0.2,0.3-0.4,0.6-0.6,0.9c-0.2,0.3-0.5,0.6-0.8,0.8c-0.3,0.2-0.7,0.4-1.1,0.6c-0.4,0.2-0.9,0.2-1.5,0.2
		c-0.6,0-1.2-0.1-1.7-0.4c-0.5-0.2-0.9-0.5-1.2-0.9c-0.3-0.4-0.6-0.8-0.7-1.2c-0.2-0.5-0.2-0.9-0.2-1.4c0-0.5,0.1-0.9,0.2-1.4
		c0.2-0.5,0.4-0.9,0.7-1.3c0.3-0.4,0.7-0.7,1.1-0.9c0.4-0.2,0.9-0.4,1.4-0.4c0.5,0,0.9,0.1,1.3,0.2c0.4,0.2,0.6,0.4,0.9,0.6
		c0.2,0.2,0.4,0.5,0.5,0.8c0.1,0.3,0.2,0.6,0.2,0.9c0,0.3,0,0.5-0.1,0.8c-0.1,0.3-0.2,0.5-0.4,0.7s-0.4,0.4-0.6,0.6
		c-0.2,0.2-0.5,0.3-0.8,0.4l-0.8-1.4c0.2-0.1,0.4-0.3,0.5-0.4s0.1-0.3,0.1-0.4c0-0.2-0.1-0.4-0.2-0.5c-0.2-0.1-0.3-0.2-0.5-0.2
		c-0.1,0-0.2,0-0.4,0.1c-0.1,0.1-0.3,0.2-0.4,0.3c-0.1,0.1-0.2,0.3-0.3,0.5c-0.1,0.2-0.1,0.4-0.1,0.7c0,0.2,0,0.4,0.1,0.6
		c0.1,0.2,0.2,0.5,0.3,0.7c0.2,0.2,0.4,0.4,0.6,0.5c0.3,0.1,0.6,0.2,1,0.2c0.4,0,0.8-0.1,1.1-0.3c0.3-0.2,0.6-0.4,0.9-0.7
		c0.3-0.3,0.5-0.6,0.7-0.9c0.2-0.3,0.3-0.7,0.5-1h1.2c0.1,0.4,0.3,0.7,0.5,1c0.2,0.3,0.4,0.6,0.7,0.8c0.2,0.2,0.5,0.4,0.8,0.6
		c0.3,0.1,0.6,0.2,0.9,0.2c0.3,0,0.6,0,0.9-0.1c0.3-0.1,0.5-0.2,0.6-0.4c0.2-0.2,0.3-0.5,0.4-0.8c0.1-0.3,0.1-0.7,0.1-1.1
		c0-0.6-0.1-1.2-0.4-1.8c-0.2-0.5-0.5-1-0.9-1.4c-0.4-0.4-0.8-0.8-1.3-1c-0.5-0.3-1-0.5-1.4-0.6l0.3-2.1c0.4,0.1,0.9,0.2,1.3,0.4
		c0.5,0.2,0.9,0.4,1.3,0.6c0.4,0.3,0.8,0.5,1.2,0.9c0.4,0.3,0.7,0.7,1,1.2c0.3,0.4,0.6,0.9,0.8,1.5c0.2,0.5,0.3,1.1,0.4,1.8
		c0.1,0.4,0.2,0.7,0.4,1.1c0.2,0.4,0.4,0.7,0.6,1c0.2,0.3,0.5,0.5,0.9,0.7C157.1,116.6,157.5,116.7,158,116.7z M148.8,109.5h-9.7
		v-2.1h9.7V109.5z M153.3,103c0.4,0.2,0.7,0.5,1,0.8c0.3,0.3,0.5,0.5,0.6,0.8c0.1,0.3,0.3,0.6,0.3,0.8c0.1,0.3,0.1,0.5,0.1,0.8
		c0,0.4-0.1,0.7-0.2,1.1c-0.1,0.4-0.3,0.7-0.6,1.1c-0.3,0.3-0.6,0.6-1.1,0.8c-0.4,0.2-1,0.3-1.6,0.3h-4.8v-2.1h4.3
		c0.3,0,0.5,0,0.7-0.1c0.2-0.1,0.3-0.2,0.5-0.3c0.1-0.1,0.2-0.3,0.3-0.4c0.1-0.2,0.1-0.3,0.1-0.5c0-0.2,0-0.3-0.1-0.5
		c0-0.1-0.1-0.3-0.2-0.4c-0.1-0.1-0.2-0.2-0.3-0.3c-0.1-0.1-0.2-0.2-0.3-0.3L153.3,103z"/>
	<path d="M172.3,121.1c-0.2,0.3-0.5,0.5-0.8,0.8c-0.3,0.3-0.7,0.5-1.1,0.7c-0.4,0.2-0.8,0.4-1.3,0.5c-0.5,0.1-1,0.2-1.5,0.2
		c-0.6,0-1.1-0.1-1.6-0.2c-0.5-0.1-0.9-0.3-1.3-0.5c-0.4-0.2-0.7-0.5-0.9-0.8c-0.2-0.3-0.3-0.7-0.3-1.1c0-0.3,0.1-0.6,0.2-0.9
		s0.3-0.5,0.5-0.8c0-0.1-0.1-0.2-0.1-0.4c0-0.2,0-0.4,0-0.5c0-0.6,0.1-1.3,0.3-1.9c0.2-0.6,0.6-1.2,1.1-1.8l1.1,0.8
		c-0.2,0.3-0.4,0.5-0.5,0.7c-0.1,0.2-0.3,0.5-0.3,0.7c-0.1,0.2-0.1,0.4-0.2,0.6c0,0.2-0.1,0.4-0.1,0.6c0,0,0,0.1,0,0.1
		c0,0,0,0.1,0,0.1c0.2-0.2,0.5-0.3,0.9-0.4c0.4-0.1,0.7-0.1,1.1-0.1c0.4,0,0.8,0,1.1,0.1c0.3,0.1,0.6,0.2,0.8,0.4
		c0.2,0.2,0.4,0.4,0.5,0.6c0.1,0.2,0.2,0.5,0.2,0.7c0,0.2-0.1,0.5-0.2,0.7c-0.1,0.2-0.3,0.4-0.5,0.6c-0.2,0.2-0.5,0.3-0.8,0.4
		c-0.3,0.1-0.6,0.2-1,0.2c-0.6,0-1.1-0.1-1.5-0.3c-0.4-0.2-0.8-0.4-1-0.7c0,0.1-0.1,0.1-0.1,0.2c0,0.1,0,0.1,0,0.2
		c0,0.2,0.1,0.4,0.2,0.6c0.2,0.2,0.4,0.3,0.6,0.4c0.3,0.1,0.5,0.2,0.9,0.2c0.3,0,0.6,0.1,0.9,0c0.3,0,0.5-0.1,0.8-0.1
		c0.3-0.1,0.6-0.1,0.9-0.3c0.3-0.1,0.6-0.3,0.9-0.5s0.7-0.5,1-0.9L172.3,121.1z M167.6,119.9c0.1,0,0.2,0,0.4,0
		c0.1,0,0.2-0.1,0.3-0.1c0.1,0,0.2-0.1,0.2-0.2c0.1-0.1,0.1-0.1,0.1-0.2c0-0.1,0-0.2-0.1-0.3c-0.1-0.1-0.2-0.1-0.3-0.2
		c-0.1,0-0.2-0.1-0.4-0.1c-0.1,0-0.3,0-0.4,0c-0.2,0-0.4,0-0.7,0.1c-0.2,0.1-0.5,0.2-0.7,0.3c0.1,0.2,0.4,0.4,0.6,0.5
		C166.9,119.8,167.2,119.9,167.6,119.9z"/>
	<path d="M202.3,109.6c-0.7,0-1.2,0.1-1.7,0.3c-0.5,0.2-0.9,0.5-1.3,0.8c-0.4,0.4-0.6,0.8-0.8,1.2c-0.2,0.5-0.3,1-0.3,1.5
		c0,0.2,0,0.5,0,0.9c0,0.4,0,0.9,0,1.4c0,0.5-0.1,0.9-0.2,1.3c-0.1,0.4-0.4,0.8-0.6,1.1c-0.3,0.3-0.6,0.5-1,0.7
		c-0.4,0.2-0.8,0.3-1.3,0.3c-0.5,0-1-0.1-1.4-0.3c-0.4-0.2-0.7-0.4-1-0.7c-0.3-0.3-0.5-0.7-0.6-1.1c-0.1-0.4-0.2-0.9-0.2-1.3
		c0-0.2,0-0.4,0-0.6c0-0.3,0-0.5,0.1-0.8c0-0.3,0-0.6,0.1-0.9c0-0.3,0.1-0.6,0.1-0.9c0-0.3,0-0.6,0.1-0.8c0-0.3,0-0.5,0-0.6
		c0-0.3-0.1-0.6-0.2-0.8c-0.1-0.2-0.3-0.3-0.6-0.3c-0.3,0-0.5,0.1-0.6,0.3c-0.1,0.2-0.2,0.5-0.2,0.8c0,0.2,0,0.4,0,0.6
		c0,0.2,0,0.5,0,0.7c0,0.3,0,0.5,0,0.8c0,0.2,0,0.5,0,0.6c0,0.4,0,0.8-0.1,1.2c-0.1,0.4-0.2,0.8-0.3,1.2c-0.2,0.4-0.4,0.8-0.6,1.1
		c-0.3,0.4-0.6,0.7-1,0.9c-0.4,0.3-0.9,0.5-1.5,0.6c-0.6,0.2-1.2,0.2-2,0.2c-0.9,0-1.7-0.2-2.4-0.5c-0.7-0.3-1.2-0.8-1.7-1.3
		c-0.4-0.6-0.8-1.2-1-1.9c-0.2-0.7-0.3-1.5-0.3-2.4c0-0.9,0.1-1.7,0.3-2.4c0.2-0.7,0.5-1.3,1-1.8c0.4-0.5,0.9-0.9,1.5-1.2
		c0.6-0.3,1.2-0.4,1.9-0.4c0.4,0,0.8,0.1,1.2,0.2c0.4,0.2,0.7,0.4,1,0.7c0.3,0.3,0.5,0.6,0.6,1c0.1,0.4,0.2,0.8,0.2,1.2
		c0,0.5-0.1,0.9-0.3,1.3c-0.2,0.4-0.4,0.7-0.7,0.9c-0.3,0.3-0.6,0.5-1,0.6c-0.4,0.1-0.7,0.2-1.1,0.2c-0.5,0-0.9-0.1-1.3-0.4
		c-0.4-0.2-0.8-0.6-1.1-1.1l0,0c0,0.1,0,0.1,0,0.1s0,0.1,0,0.1c0,0.7,0.1,1.3,0.2,1.8c0.1,0.6,0.4,1,0.6,1.4c0.3,0.4,0.6,0.7,1,0.9
		c0.4,0.2,0.8,0.3,1.3,0.3c1,0,1.8-0.3,2.3-0.8c0.5-0.6,0.8-1.4,0.8-2.6c0-0.3,0-0.5,0-0.7c0-0.2,0-0.4,0-0.6c0-0.2,0-0.4,0-0.6
		c0-0.2,0-0.4,0-0.7c0-0.5,0.1-0.9,0.2-1.3c0.1-0.4,0.4-0.8,0.6-1.1c0.3-0.3,0.6-0.5,1-0.7c0.4-0.2,0.9-0.3,1.4-0.3
		c0.5,0,1,0.1,1.3,0.3c0.4,0.2,0.7,0.4,1,0.7c0.3,0.3,0.5,0.7,0.6,1.1c0.1,0.4,0.2,0.9,0.2,1.3c0,0.3,0,0.7,0,1.1
		c0,0.4-0.1,0.8-0.1,1.3c0,0.4-0.1,0.8-0.1,1.3c0,0.4,0,0.8,0,1.1c0,0.3,0.1,0.6,0.2,0.8c0.1,0.2,0.3,0.3,0.6,0.3s0.5-0.1,0.6-0.3
		s0.2-0.5,0.2-0.8c0-0.2,0-0.4,0-0.6c0-0.2,0-0.4,0-0.6c0-0.2,0-0.4,0-0.5c0-0.2,0-0.3,0-0.3c0-0.9,0.2-1.7,0.5-2.5
		c0.3-0.7,0.7-1.4,1.3-1.9c0.6-0.5,1.2-1,2-1.3c0.8-0.3,1.7-0.5,2.6-0.5c0.6,0,1.2,0.1,1.8,0.2c0.6,0.2,1.1,0.4,1.6,0.6
		c0.5,0.3,0.9,0.6,1.3,1c0.4,0.4,0.7,0.8,1,1.2c0.3,0.5,0.5,0.9,0.7,1.5c0.2,0.5,0.2,1.1,0.2,1.6c0,0.8-0.1,1.6-0.4,2.3
		s-0.6,1.3-1.1,1.8s-1,0.9-1.6,1.2s-1.3,0.4-2.1,0.4c-0.8,0-1.5-0.1-2-0.4c-0.6-0.2-1.1-0.6-1.5-1c-0.4-0.4-0.7-0.9-0.9-1.4
		c-0.2-0.5-0.3-1.1-0.3-1.6c0-0.5,0.1-1,0.3-1.5c0.2-0.5,0.4-0.9,0.7-1.2c0.3-0.3,0.7-0.6,1.2-0.8c0.4-0.2,0.9-0.3,1.5-0.3
		c0.4,0,0.8,0.1,1.1,0.2c0.3,0.1,0.6,0.3,0.8,0.5c0.2,0.2,0.4,0.5,0.5,0.7c0.1,0.3,0.2,0.6,0.2,0.8c0,0.4-0.1,0.7-0.2,0.9
		c-0.1,0.2-0.3,0.4-0.4,0.6c-0.2,0.2-0.4,0.3-0.6,0.3c-0.2,0.1-0.4,0.1-0.5,0.1c-0.2,0-0.4,0-0.6-0.1c-0.2-0.1-0.4-0.2-0.5-0.3
		c-0.1-0.1-0.3-0.3-0.4-0.5c-0.1-0.2-0.1-0.4-0.1-0.6c0-0.2,0-0.4,0.1-0.6c0.1-0.2,0.2-0.4,0.4-0.5l0,0c-0.1,0-0.2,0.1-0.4,0.2
		c-0.2,0.1-0.3,0.2-0.4,0.4c-0.1,0.2-0.3,0.4-0.4,0.6c-0.1,0.2-0.1,0.5-0.1,0.7c0,0.3,0.1,0.6,0.2,0.9c0.1,0.3,0.3,0.5,0.5,0.7
		c0.2,0.2,0.5,0.4,0.8,0.5c0.3,0.1,0.7,0.2,1.1,0.2c0.4,0,0.7-0.1,1.1-0.2c0.3-0.2,0.7-0.4,0.9-0.7c0.3-0.3,0.5-0.7,0.7-1.1
		c0.2-0.4,0.3-0.9,0.3-1.4c0-0.5-0.1-1-0.3-1.5c-0.2-0.5-0.5-0.9-0.8-1.2c-0.4-0.4-0.8-0.6-1.3-0.9
		C203.5,109.7,202.9,109.6,202.3,109.6z M184.2,111.2c0.1,0,0.2,0,0.3-0.1c0.1,0,0.2-0.1,0.3-0.2c0.1-0.1,0.2-0.2,0.2-0.3
		c0.1-0.1,0.1-0.2,0.1-0.4c0-0.3-0.1-0.6-0.3-0.7s-0.4-0.2-0.7-0.2c-0.1,0-0.3,0-0.4,0.1c-0.1,0.1-0.3,0.1-0.4,0.2
		c0,0.1,0,0.1,0,0.2c0,0.1,0,0.1,0,0.2c0,0.2,0,0.4,0.1,0.5c0.1,0.1,0.1,0.3,0.2,0.4c0.1,0.1,0.2,0.2,0.3,0.2
		C184,111.2,184.1,111.2,184.2,111.2z"/>
	<path d="M224.6,113.2c0,0.6-0.1,1.2-0.2,1.7c-0.2,0.5-0.4,1-0.7,1.5c-0.3,0.4-0.6,0.8-1,1.2c-0.4,0.3-0.8,0.6-1.3,0.9
		c-0.5,0.2-1,0.4-1.5,0.5c-0.5,0.1-1.1,0.2-1.6,0.2c-0.6,0-1.1-0.1-1.6-0.2c-0.5-0.1-1-0.3-1.5-0.5c-0.5-0.2-0.9-0.5-1.3-0.9
		c-0.4-0.3-0.7-0.7-1-1.2c-0.3-0.4-0.5-0.9-0.7-1.5c-0.2-0.5-0.2-1.1-0.2-1.7c0-0.6,0.1-1.2,0.3-1.7c0.2-0.5,0.4-1,0.7-1.5
		c-0.3-0.1-0.5-0.2-0.8-0.4c-0.3-0.2-0.5-0.4-0.7-0.6c-0.2-0.2-0.4-0.5-0.5-0.8c-0.1-0.3-0.2-0.6-0.2-1c0-0.4,0.1-0.8,0.3-1.2
		c0.2-0.4,0.5-0.7,0.9-1c0.4-0.3,0.8-0.5,1.4-0.7c0.5-0.2,1.1-0.3,1.8-0.3c0.9,0,1.8,0.1,2.7,0.4c0.8,0.3,1.6,0.6,2.3,1.1
		c0.7,0.4,1.4,1,1.9,1.6c0.6,0.6,1.1,1.2,1.5,1.9c0.4,0.7,0.7,1.4,0.9,2.1C224.5,111.8,224.6,112.5,224.6,113.2z M214.4,108.5
		c0.2-0.1,0.5-0.3,0.7-0.4c0.3-0.1,0.6-0.3,0.9-0.4c0.3-0.1,0.7-0.2,1-0.3c0.4-0.1,0.8-0.1,1.2-0.1c0.2,0,0.4,0,0.5,0
		c0.2,0,0.3,0,0.5,0.1v-0.1c-0.3-0.2-0.6-0.3-0.9-0.5c-0.3-0.2-0.7-0.3-1-0.4c-0.4-0.1-0.7-0.2-1.1-0.3c-0.4-0.1-0.8-0.1-1.2-0.1
		c-0.3,0-0.6,0-0.9,0.1c-0.3,0.1-0.5,0.2-0.6,0.3c-0.2,0.1-0.3,0.2-0.4,0.4c-0.1,0.1-0.1,0.3-0.1,0.4c0,0.2,0,0.3,0.1,0.4
		c0.1,0.1,0.2,0.3,0.3,0.4c0.1,0.1,0.3,0.2,0.5,0.3C214.1,108.4,214.3,108.4,214.4,108.5z M222.2,113.2c0-0.6-0.1-1.1-0.3-1.5
		c-0.2-0.5-0.5-0.8-0.8-1.2c-0.4-0.3-0.8-0.6-1.3-0.8c-0.5-0.2-1-0.3-1.6-0.3c-0.6,0-1.1,0.1-1.6,0.3c-0.5,0.2-0.9,0.4-1.2,0.8
		c-0.4,0.3-0.6,0.7-0.8,1.2c-0.2,0.5-0.3,1-0.3,1.5c0,0.6,0.1,1.1,0.3,1.5c0.2,0.5,0.5,0.9,0.8,1.2c0.4,0.3,0.8,0.6,1.2,0.8
		c0.5,0.2,1,0.3,1.6,0.3c0.6,0,1.1-0.1,1.6-0.3c0.5-0.2,0.9-0.5,1.3-0.8c0.4-0.3,0.6-0.7,0.8-1.2
		C222.1,114.3,222.2,113.8,222.2,113.2z"/>
	<path d="M237.6,119.2c-0.6,0-1.1-0.1-1.6-0.2c-0.4-0.2-0.8-0.4-1.2-0.6c-0.3-0.3-0.6-0.6-0.9-0.9c-0.2-0.3-0.5-0.7-0.7-1
		s-0.4-0.7-0.5-1c-0.2-0.3-0.3-0.6-0.5-0.9c-0.2-0.3-0.4-0.5-0.6-0.6c-0.2-0.2-0.5-0.2-0.8-0.2c-0.3,0-0.5,0.1-0.7,0.2
		c-0.2,0.1-0.3,0.3-0.5,0.4c-0.1,0.2-0.2,0.3-0.3,0.5c0,0.2-0.1,0.4-0.1,0.5c0,0.2,0,0.4,0.1,0.7c0,0.2,0.1,0.4,0.3,0.6
		c0.1,0.2,0.3,0.4,0.5,0.6c0.2,0.2,0.5,0.5,0.8,0.7l-1.4,1.8c-0.5-0.3-1-0.7-1.3-1.1c-0.3-0.4-0.6-0.8-0.8-1.1
		c-0.2-0.4-0.3-0.8-0.4-1.1c-0.1-0.4-0.1-0.7-0.1-1.1c0-0.5,0.1-1,0.2-1.4c0.2-0.5,0.4-0.9,0.7-1.3c0.3-0.4,0.7-0.7,1.2-0.9
		c0.5-0.2,1.1-0.3,1.8-0.3c0.5,0,1,0.1,1.4,0.2c0.4,0.2,0.8,0.4,1.1,0.6c0.3,0.3,0.6,0.6,0.8,0.9c0.2,0.3,0.4,0.7,0.6,1
		s0.4,0.7,0.6,1c0.2,0.3,0.4,0.6,0.6,0.9c0.2,0.3,0.4,0.5,0.7,0.6c0.3,0.2,0.6,0.2,0.9,0.2c0.3,0,0.7-0.1,0.9-0.2
		c0.3-0.2,0.5-0.4,0.7-0.6c0.2-0.3,0.3-0.5,0.4-0.9c0.1-0.3,0.1-0.7,0.1-1c0-0.6-0.1-1.2-0.4-1.8c-0.2-0.5-0.5-1-0.9-1.4
		s-0.8-0.7-1.3-1c-0.5-0.3-1-0.5-1.4-0.6l0.3-2.1c0.5,0.1,0.9,0.2,1.4,0.4c0.5,0.2,0.9,0.4,1.4,0.7c0.5,0.3,0.9,0.6,1.3,1
		c0.4,0.4,0.8,0.8,1.1,1.3c0.3,0.5,0.5,1,0.7,1.6c0.2,0.6,0.3,1.3,0.3,2c0,0.8-0.1,1.6-0.3,2.2c-0.2,0.6-0.6,1.1-1,1.5
		c-0.4,0.4-0.9,0.7-1.4,0.9C238.8,119.1,238.2,119.2,237.6,119.2z M236.6,109.5h-9.7v-2.1h9.7V109.5z M240.1,103
		c0.4,0.2,0.7,0.5,1,0.8c0.3,0.3,0.5,0.5,0.6,0.8c0.1,0.3,0.3,0.6,0.3,0.8c0.1,0.3,0.1,0.5,0.1,0.8c0,0.4-0.1,0.7-0.2,1.1
		c-0.1,0.4-0.3,0.7-0.6,1.1c-0.3,0.3-0.6,0.6-1.1,0.8c-0.4,0.2-1,0.3-1.6,0.3h-4.8v-2.1h4.3c0.3,0,0.5,0,0.7-0.1
		c0.2-0.1,0.3-0.2,0.5-0.3c0.1-0.1,0.2-0.3,0.3-0.4c0.1-0.2,0.1-0.3,0.1-0.5c0-0.2,0-0.3-0.1-0.5c0-0.1-0.1-0.3-0.2-0.4
		c-0.1-0.1-0.2-0.2-0.3-0.3c-0.1-0.1-0.2-0.2-0.3-0.3L240.1,103z"/>
	<path d="M268.9,116.7c0.3,0,0.6-0.1,0.9-0.2c0.3-0.1,0.5-0.3,0.6-0.5c0.2-0.2,0.3-0.5,0.4-0.8c0.1-0.3,0.1-0.6,0.1-0.9
		c0-0.6-0.1-1.2-0.4-1.8c-0.2-0.5-0.5-1-0.9-1.4c-0.4-0.4-0.8-0.8-1.3-1c-0.5-0.3-1-0.5-1.4-0.6l0.3-2.1c0.5,0.1,0.9,0.2,1.4,0.4
		c0.5,0.2,0.9,0.4,1.4,0.7c0.5,0.3,0.9,0.6,1.3,1c0.4,0.4,0.8,0.8,1.1,1.3c0.3,0.5,0.5,1,0.7,1.6c0.2,0.6,0.3,1.3,0.3,2
		c0,0.8-0.1,1.6-0.4,2.2c-0.2,0.6-0.6,1.1-1,1.5c-0.4,0.4-0.9,0.7-1.5,0.9c-0.6,0.2-1.2,0.3-1.8,0.3c-0.4,0-0.8-0.1-1.1-0.2
		c-0.3-0.1-0.7-0.2-1-0.4c-0.3-0.2-0.6-0.4-0.8-0.6c-0.2-0.2-0.4-0.5-0.6-0.7c-0.2,0.3-0.4,0.6-0.7,0.9c-0.3,0.2-0.5,0.4-0.9,0.6
		s-0.6,0.3-1,0.3c-0.3,0.1-0.7,0.1-1,0.1c-0.5,0-1-0.1-1.4-0.3c-0.4-0.2-0.8-0.4-1-0.6c-0.3-0.3-0.5-0.5-0.7-0.8
		c-0.2-0.3-0.4-0.5-0.5-0.8H258c-0.2,0.3-0.4,0.6-0.6,0.9c-0.2,0.3-0.5,0.6-0.8,0.8c-0.3,0.2-0.7,0.4-1.1,0.6
		c-0.4,0.2-0.9,0.2-1.5,0.2c-0.6,0-1.2-0.1-1.7-0.4c-0.5-0.2-0.9-0.5-1.2-0.9c-0.3-0.4-0.6-0.8-0.7-1.2c-0.2-0.5-0.2-0.9-0.2-1.4
		c0-0.5,0.1-0.9,0.2-1.4c0.2-0.5,0.4-0.9,0.7-1.3c0.3-0.4,0.7-0.7,1.1-0.9c0.4-0.2,0.9-0.4,1.4-0.4c0.5,0,0.9,0.1,1.3,0.2
		c0.4,0.2,0.6,0.4,0.9,0.6c0.2,0.2,0.4,0.5,0.5,0.8c0.1,0.3,0.2,0.6,0.2,0.9c0,0.3,0,0.5-0.1,0.8c-0.1,0.3-0.2,0.5-0.4,0.7
		s-0.4,0.4-0.6,0.6c-0.2,0.2-0.5,0.3-0.8,0.4l-0.8-1.4c0.2-0.1,0.4-0.3,0.5-0.4s0.1-0.3,0.1-0.4c0-0.2-0.1-0.4-0.2-0.5
		c-0.2-0.1-0.3-0.2-0.5-0.2c-0.1,0-0.2,0-0.4,0.1c-0.1,0.1-0.3,0.2-0.4,0.3c-0.1,0.1-0.2,0.3-0.3,0.5c-0.1,0.2-0.1,0.4-0.1,0.7
		c0,0.2,0,0.4,0.1,0.6c0.1,0.2,0.2,0.5,0.3,0.7c0.2,0.2,0.4,0.4,0.6,0.5c0.3,0.1,0.6,0.2,1,0.2c0.4,0,0.8-0.1,1.1-0.3
		c0.3-0.2,0.6-0.4,0.9-0.7c0.3-0.3,0.5-0.6,0.7-0.9c0.2-0.3,0.3-0.7,0.5-1h1.2c0.1,0.4,0.3,0.7,0.5,1c0.2,0.3,0.4,0.6,0.7,0.8
		c0.2,0.2,0.5,0.4,0.8,0.6c0.3,0.1,0.6,0.2,0.9,0.2c0.3,0,0.6,0,0.9-0.1c0.3-0.1,0.5-0.2,0.6-0.4c0.2-0.2,0.3-0.5,0.4-0.8
		c0.1-0.3,0.1-0.7,0.1-1.1c0-0.6-0.1-1.2-0.4-1.8c-0.2-0.5-0.5-1-0.9-1.4c-0.4-0.4-0.8-0.8-1.3-1c-0.5-0.3-1-0.5-1.4-0.6l0.3-2.1
		c0.4,0.1,0.9,0.2,1.3,0.4c0.5,0.2,0.9,0.4,1.3,0.6c0.4,0.3,0.8,0.5,1.2,0.9c0.4,0.3,0.7,0.7,1,1.2c0.3,0.4,0.6,0.9,0.8,1.5
		c0.2,0.5,0.3,1.1,0.4,1.8c0.1,0.4,0.2,0.7,0.4,1.1c0.2,0.4,0.4,0.7,0.6,1c0.2,0.3,0.5,0.5,0.9,0.7
		C268,116.6,268.4,116.7,268.9,116.7z M259.7,109.5H250v-2.1h9.7V109.5z M264.2,103c0.4,0.2,0.7,0.5,1,0.8c0.3,0.3,0.5,0.5,0.6,0.8
		c0.1,0.3,0.3,0.6,0.3,0.8c0.1,0.3,0.1,0.5,0.1,0.8c0,0.4-0.1,0.7-0.2,1.1c-0.1,0.4-0.3,0.7-0.6,1.1c-0.3,0.3-0.6,0.6-1.1,0.8
		c-0.4,0.2-1,0.3-1.6,0.3H258v-2.1h4.3c0.3,0,0.5,0,0.7-0.1c0.2-0.1,0.3-0.2,0.5-0.3c0.1-0.1,0.2-0.3,0.3-0.4
		c0.1-0.2,0.1-0.3,0.1-0.5c0-0.2,0-0.3-0.1-0.5c0-0.1-0.1-0.3-0.2-0.4c-0.1-0.1-0.2-0.2-0.3-0.3c-0.1-0.1-0.2-0.2-0.3-0.3L264.2,103
		z M272.9,109.5h-5.6v-2.1h5.6V109.5z M275.1,109.5h-5.6v-2.1h5.6V109.5z M273.4,109.5v-2.1h5c0.5,0,1,0.1,1.6,0.2
		c0.5,0.1,1,0.3,1.5,0.5c0.5,0.2,0.9,0.5,1.3,0.8s0.8,0.7,1.1,1.2c0.3,0.5,0.6,1,0.7,1.6c0.2,0.6,0.3,1.2,0.3,1.9
		c0,0.8-0.1,1.5-0.4,2.2c-0.3,0.7-0.7,1.3-1.2,1.8c-0.5,0.5-1.1,0.9-1.7,1.2s-1.4,0.4-2.2,0.4c-0.7,0-1.4-0.1-1.9-0.3
		c-0.6-0.2-1.1-0.5-1.5-0.9c-0.4-0.4-0.7-0.8-0.9-1.3c-0.2-0.5-0.3-1-0.3-1.6c0-0.5,0.1-1,0.3-1.4c0.2-0.5,0.4-0.9,0.7-1.2
		c0.3-0.3,0.7-0.6,1.2-0.8c0.4-0.2,0.9-0.3,1.5-0.3c0.4,0,0.8,0.1,1.1,0.2c0.3,0.1,0.6,0.3,0.8,0.5c0.2,0.2,0.4,0.5,0.5,0.8
		c0.1,0.3,0.2,0.6,0.2,0.8c0,0.4-0.1,0.6-0.2,0.9c-0.1,0.2-0.3,0.4-0.4,0.6c-0.2,0.1-0.4,0.3-0.6,0.3c-0.2,0.1-0.4,0.1-0.5,0.1
		c-0.2,0-0.4,0-0.6-0.1c-0.2-0.1-0.4-0.2-0.5-0.3c-0.1-0.1-0.3-0.3-0.4-0.5c-0.1-0.2-0.1-0.4-0.1-0.6c0-0.2,0-0.4,0.1-0.6
		c0.1-0.2,0.2-0.4,0.4-0.5l0,0c-0.1,0-0.2,0.1-0.4,0.2c-0.2,0.1-0.3,0.2-0.4,0.4c-0.1,0.2-0.3,0.3-0.4,0.5c-0.1,0.2-0.1,0.4-0.1,0.7
		c0,0.3,0.1,0.6,0.2,0.9c0.1,0.3,0.3,0.5,0.5,0.7c0.2,0.2,0.5,0.4,0.8,0.5c0.3,0.1,0.6,0.2,1,0.2c0.4,0,0.8-0.1,1.2-0.2
		c0.4-0.2,0.7-0.4,1-0.7c0.3-0.3,0.5-0.6,0.7-1.1c0.2-0.4,0.3-0.9,0.3-1.4c0-0.5-0.1-1-0.3-1.5c-0.2-0.5-0.4-0.9-0.8-1.3
		c-0.3-0.4-0.8-0.7-1.3-0.9c-0.5-0.2-1.1-0.3-1.7-0.3H273.4z"/>
	<path d="M288,114.6c0.4,0.4,0.9,0.7,1.3,1c0.5,0.3,0.9,0.6,1.4,0.8c0.5,0.2,1,0.4,1.6,0.5c0.6,0.1,1.1,0.2,1.8,0.2
		c0.8,0,1.4-0.1,2-0.2c0.6-0.1,1-0.3,1.4-0.5c0.4-0.2,0.6-0.4,0.8-0.7c0.2-0.3,0.3-0.5,0.3-0.8c0-0.1,0-0.2-0.1-0.3
		c0-0.1-0.1-0.2-0.2-0.3c-0.3,0.3-0.6,0.5-0.9,0.7c-0.3,0.2-0.6,0.3-1,0.4c-0.3,0.1-0.7,0.2-1,0.2c-0.3,0-0.7,0.1-1,0.1
		c-0.5,0-1-0.1-1.4-0.2c-0.5-0.2-0.9-0.4-1.2-0.6c-0.3-0.3-0.6-0.6-0.8-0.9c-0.2-0.3-0.3-0.7-0.3-1.1c0-0.4,0.1-0.8,0.3-1.1
		c0.2-0.3,0.5-0.6,0.9-0.9c0.4-0.2,0.8-0.4,1.2-0.6c0.4-0.1,0.9-0.2,1.4-0.2c0.5,0,0.9,0,1.4,0.1c0.5,0.1,0.9,0.2,1.3,0.4
		c0-0.3-0.1-0.5-0.3-0.7c-0.2-0.2-0.4-0.4-0.6-0.6c-0.2-0.2-0.5-0.4-0.8-0.5c-0.3-0.1-0.6-0.3-0.9-0.4c-0.3-0.1-0.6-0.2-0.9-0.2
		c-0.3-0.1-0.5-0.1-0.7-0.1v-0.3l4-0.1c0.8,0.5,1.4,1,1.9,1.7c0.4,0.6,0.6,1.4,0.6,2.2c0,0.1,0,0.1,0,0.2s0,0.1,0,0.2
		c0.3,0.3,0.6,0.5,0.8,0.8c0.2,0.3,0.4,0.6,0.5,0.9c0.1,0.3,0.2,0.6,0.3,0.8c0.1,0.3,0.1,0.5,0.1,0.7c0,0.6-0.1,1.1-0.3,1.5
		c-0.2,0.4-0.5,0.8-0.9,1.1c-0.4,0.3-0.8,0.6-1.2,0.8c-0.5,0.2-1,0.4-1.5,0.5c-0.5,0.1-1,0.2-1.5,0.2c-0.5,0-1,0.1-1.4,0.1
		c-0.8,0-1.5-0.1-2.2-0.2c-0.7-0.1-1.4-0.3-2-0.6c-0.6-0.2-1.3-0.5-1.8-0.9c-0.6-0.3-1.1-0.7-1.6-1.1L288,114.6z M297.7,109.5H288
		v-2.1h9.7V109.5z M299.1,103c0.4,0.2,0.7,0.5,1,0.8c0.3,0.3,0.5,0.5,0.6,0.8c0.1,0.3,0.3,0.6,0.3,0.8c0.1,0.3,0.1,0.5,0.1,0.8
		c0,0.4-0.1,0.7-0.2,1.1c-0.1,0.4-0.3,0.7-0.6,1.1c-0.3,0.3-0.6,0.6-1.1,0.8c-0.4,0.2-1,0.3-1.6,0.3h-4.8v-2.1h4.3
		c0.3,0,0.5,0,0.7-0.1c0.2-0.1,0.3-0.2,0.5-0.3c0.1-0.1,0.2-0.3,0.3-0.4c0.1-0.2,0.1-0.3,0.1-0.5c0-0.2,0-0.3-0.1-0.5
		c0-0.1-0.1-0.3-0.2-0.4c-0.1-0.1-0.2-0.2-0.3-0.3c-0.1-0.1-0.2-0.2-0.3-0.3L299.1,103z M294.4,112.1c-0.2,0-0.3,0-0.5,0
		c-0.2,0-0.3,0.1-0.4,0.1c-0.1,0.1-0.2,0.1-0.3,0.2c-0.1,0.1-0.1,0.2-0.1,0.3c0,0.1,0,0.2,0.1,0.3c0,0.1,0.1,0.2,0.2,0.3
		c0.1,0.1,0.2,0.1,0.4,0.2c0.2,0,0.4,0.1,0.6,0.1c0.2,0,0.4,0,0.6-0.1c0.2,0,0.4-0.1,0.6-0.2c0.2-0.1,0.4-0.2,0.5-0.3
		c0.2-0.1,0.3-0.2,0.3-0.3c-0.1-0.1-0.2-0.2-0.4-0.3c-0.2-0.1-0.3-0.2-0.5-0.2c-0.2-0.1-0.4-0.1-0.6-0.1
		C294.8,112.1,294.6,112.1,294.4,112.1z M305.6,116.7c0.3,0,0.6-0.1,0.9-0.2c0.3-0.1,0.5-0.3,0.6-0.5c0.2-0.2,0.3-0.5,0.4-0.8
		c0.1-0.3,0.1-0.6,0.1-0.9c0-0.6-0.1-1.2-0.4-1.8c-0.2-0.5-0.5-1-0.9-1.4c-0.4-0.4-0.8-0.8-1.3-1c-0.5-0.3-1-0.5-1.4-0.6l0.3-2.1
		c0.5,0.1,0.9,0.2,1.4,0.4c0.5,0.2,0.9,0.4,1.4,0.7c0.5,0.3,0.9,0.6,1.3,1c0.4,0.4,0.8,0.8,1.1,1.3c0.3,0.5,0.5,1,0.7,1.6
		c0.2,0.6,0.3,1.3,0.3,2c0,0.8-0.1,1.6-0.4,2.2c-0.2,0.6-0.6,1.1-1,1.5c-0.4,0.4-0.9,0.7-1.4,0.9c-0.5,0.2-1.1,0.3-1.7,0.3
		c-0.4,0-0.9-0.1-1.3-0.2c-0.4-0.2-0.8-0.4-1.2-0.6s-0.7-0.5-0.9-0.8c-0.3-0.3-0.5-0.6-0.7-0.9l1.6-1.5c0.1,0.2,0.3,0.4,0.5,0.6
		c0.2,0.2,0.4,0.4,0.6,0.5c0.2,0.2,0.4,0.3,0.7,0.4C305.2,116.7,305.4,116.7,305.6,116.7z"/>
	<path d="M322.1,109.5h-9.7v-2.1h9.7V109.5z M318.4,109.5c-0.4,0-0.8,0.1-1.1,0.3s-0.6,0.5-0.9,0.8c-0.2,0.3-0.4,0.7-0.6,1.2
		c-0.2,0.4-0.3,0.9-0.4,1.4c-0.1,0.5-0.2,1-0.2,1.6c0,0.5-0.1,1.1-0.1,1.6c0,0.5,0,1,0.1,1.5c0,0.5,0.1,0.9,0.1,1.2l-2.5,0.2
		c-0.1-0.4-0.1-0.9-0.1-1.3c0-0.5-0.1-0.9-0.1-1.4c0-0.7,0-1.4,0.1-2.2c0.1-0.7,0.2-1.4,0.4-2.1c0.2-0.7,0.4-1.3,0.7-1.9
		c0.3-0.6,0.6-1.1,1.1-1.5c0.4-0.4,0.9-0.8,1.5-1c0.6-0.3,1.2-0.4,2-0.4s1.4,0.1,2,0.4c0.6,0.3,1.1,0.6,1.5,1c0.4,0.4,0.8,1,1.1,1.5
		c0.3,0.6,0.5,1.2,0.7,1.9c0.2,0.7,0.3,1.4,0.4,2.1s0.1,1.4,0.1,2.2c0,0.5,0,1-0.1,1.4c0,0.5-0.1,0.9-0.1,1.3l-2.5-0.2
		c0.1-0.4,0.1-0.8,0.1-1.2c0-0.5,0.1-0.9,0.1-1.5c0-0.5,0-1-0.1-1.6c0-0.5-0.1-1.1-0.2-1.6c-0.1-0.5-0.2-1-0.4-1.4
		c-0.2-0.4-0.4-0.8-0.6-1.2c-0.2-0.3-0.5-0.6-0.8-0.8S318.8,109.5,318.4,109.5z M322.5,103c0.4,0.2,0.7,0.5,1,0.8
		c0.3,0.3,0.5,0.5,0.6,0.8c0.1,0.3,0.3,0.6,0.3,0.8c0.1,0.3,0.1,0.5,0.1,0.8c0,0.4-0.1,0.7-0.2,1.1c-0.1,0.4-0.3,0.7-0.6,1.1
		c-0.3,0.3-0.6,0.6-1.1,0.8c-0.4,0.2-1,0.3-1.6,0.3h-1.8v-2.1h1.3c0.3,0,0.5,0,0.7-0.1c0.2-0.1,0.3-0.2,0.5-0.3
		c0.1-0.1,0.2-0.3,0.3-0.4c0.1-0.2,0.1-0.3,0.1-0.5c0-0.2,0-0.3-0.1-0.5c0-0.1-0.1-0.3-0.2-0.4c-0.1-0.1-0.2-0.2-0.3-0.3
		c-0.1-0.1-0.2-0.2-0.3-0.3L322.5,103z"/>
	<path d="M341.9,111.2c0,0.4-0.1,0.8-0.2,1.2c-0.1,0.4-0.3,0.7-0.5,0.9c-0.2,0.3-0.5,0.5-0.8,0.8s-0.6,0.4-1,0.6
		c-0.3,0.2-0.7,0.3-1.1,0.4c-0.4,0.1-0.8,0.2-1.1,0.3c0.2,0.3,0.3,0.7,0.3,1.1c0,0.4-0.1,0.7-0.2,1.1c-0.1,0.3-0.3,0.6-0.6,0.9
		c-0.3,0.3-0.6,0.5-0.9,0.6c-0.4,0.2-0.8,0.2-1.2,0.2c-0.4,0-0.9-0.1-1.2-0.2c-0.4-0.2-0.7-0.4-0.9-0.6c-0.3-0.3-0.5-0.6-0.6-0.9
		c-0.1-0.3-0.2-0.7-0.2-1.1c0-0.4,0.1-0.7,0.2-1.1c-0.4-0.1-0.8-0.2-1.2-0.3c-0.4-0.1-0.8-0.2-1.2-0.4c-0.4-0.2-0.7-0.3-1.1-0.5
		c-0.3-0.2-0.6-0.5-0.9-0.7c-0.2-0.3-0.4-0.6-0.6-1c-0.1-0.4-0.2-0.8-0.2-1.3c0-0.6,0.1-1.1,0.4-1.6c0.3-0.5,0.6-0.9,1.1-1.3
		c0.5-0.4,1-0.6,1.6-0.9c0.6-0.2,1.2-0.3,1.9-0.3c0.3,0,0.6,0,0.9,0.1c0.3,0,0.6,0.1,0.9,0.2c0.3,0.1,0.6,0.2,0.8,0.4
		c0.2,0.2,0.5,0.3,0.7,0.6c0.2,0.2,0.3,0.5,0.4,0.8c0.1,0.3,0.2,0.6,0.2,1c0,0.4-0.1,0.7-0.2,1c-0.1,0.3-0.3,0.5-0.6,0.8
		c-0.2,0.2-0.5,0.4-0.9,0.5c-0.3,0.1-0.7,0.2-1.1,0.2c-0.3,0-0.7-0.1-1-0.2c-0.3-0.1-0.6-0.3-0.9-0.5c-0.3-0.2-0.5-0.4-0.6-0.7
		c-0.2-0.3-0.2-0.6-0.2-1c0-0.2,0-0.4,0.1-0.5c0-0.2,0.1-0.4,0.2-0.5h-0.1c-0.1,0.1-0.3,0.1-0.4,0.3c-0.1,0.1-0.3,0.3-0.4,0.5
		c-0.1,0.2-0.2,0.4-0.3,0.6c-0.1,0.2-0.1,0.5-0.1,0.7c0,0.4,0.1,0.7,0.3,1c0.2,0.3,0.6,0.5,1,0.7c0.5,0.2,1,0.3,1.7,0.5
		c0.7,0.1,1.4,0.2,2.3,0.4c0.9-0.1,1.6-0.2,2.3-0.4c0.6-0.1,1.1-0.3,1.5-0.5c0.4-0.2,0.7-0.4,0.9-0.7c0.2-0.3,0.3-0.6,0.3-1
		c0-0.2-0.1-0.5-0.2-0.7c-0.1-0.2-0.3-0.4-0.5-0.5c-0.2-0.2-0.5-0.3-0.9-0.4c-0.4-0.1-0.8-0.1-1.4-0.1v-2.1h3.9c0.3,0,0.5,0,0.7-0.1
		c0.2-0.1,0.3-0.2,0.5-0.3c0.1-0.1,0.2-0.3,0.3-0.4c0.1-0.2,0.1-0.3,0.1-0.5c0-0.2,0-0.3-0.1-0.5c0-0.1-0.1-0.3-0.2-0.4
		c-0.1-0.1-0.2-0.2-0.3-0.3c-0.1-0.1-0.2-0.2-0.3-0.3l1.3-1.6c0.4,0.2,0.7,0.5,1,0.8c0.3,0.3,0.5,0.5,0.6,0.8
		c0.1,0.3,0.3,0.6,0.3,0.8c0.1,0.3,0.1,0.5,0.1,0.8c0,0.3-0.1,0.7-0.2,1c-0.1,0.4-0.3,0.7-0.5,1c-0.2,0.3-0.5,0.6-0.9,0.8
		c-0.4,0.2-0.8,0.4-1.3,0.4c0.2,0.3,0.3,0.6,0.4,0.9C341.9,110.6,341.9,110.9,341.9,111.2z M332.1,110c0,0.2,0.1,0.3,0.2,0.5
		c0.1,0.1,0.3,0.2,0.5,0.2c0.2,0,0.4-0.1,0.5-0.2c0.1-0.1,0.2-0.3,0.2-0.5c0-0.2-0.1-0.3-0.2-0.5c-0.1-0.2-0.3-0.3-0.5-0.4
		c-0.2,0.1-0.4,0.2-0.5,0.4C332.2,109.7,332.1,109.9,332.1,110z M334.6,117.2c0.1,0,0.2,0,0.3,0c0.1,0,0.2-0.1,0.3-0.1
		c0.1-0.1,0.1-0.1,0.2-0.2c0-0.1,0.1-0.2,0.1-0.4c0-0.1,0-0.2-0.1-0.3c0-0.1-0.1-0.2-0.2-0.3c-0.1-0.1-0.2-0.1-0.3-0.2
		c-0.1,0-0.2-0.1-0.3-0.1c-0.1,0-0.2,0-0.3,0.1c-0.1,0-0.2,0.1-0.3,0.2c-0.1,0.1-0.1,0.2-0.2,0.3c0,0.1-0.1,0.2-0.1,0.3
		c0,0.1,0,0.3,0.1,0.4c0,0.1,0.1,0.2,0.2,0.2c0.1,0.1,0.2,0.1,0.3,0.1C334.4,117.2,334.5,117.2,334.6,117.2z M345.7,116.7
		c0.3,0,0.6-0.1,0.9-0.2c0.3-0.1,0.5-0.3,0.6-0.5c0.2-0.2,0.3-0.5,0.4-0.8c0.1-0.3,0.1-0.6,0.1-0.9c0-0.6-0.1-1.1-0.3-1.5
		c-0.2-0.5-0.4-0.9-0.7-1.3c-0.3-0.4-0.6-0.7-1-1s-0.8-0.5-1.2-0.7l0.6-2.1c0.4,0.1,0.8,0.3,1.2,0.5c0.4,0.2,0.8,0.5,1.2,0.7
		c0.4,0.3,0.7,0.6,1,1c0.3,0.4,0.6,0.8,0.8,1.2c0.2,0.5,0.4,0.9,0.6,1.5c0.1,0.5,0.2,1.1,0.2,1.8c0,0.8-0.1,1.6-0.4,2.2
		c-0.2,0.6-0.6,1.1-1,1.5c-0.4,0.4-0.9,0.7-1.4,0.9c-0.5,0.2-1.1,0.3-1.7,0.3c-0.4,0-0.9-0.1-1.3-0.2c-0.4-0.2-0.8-0.4-1.2-0.6
		s-0.7-0.5-0.9-0.8c-0.3-0.3-0.5-0.6-0.7-0.9l1.6-1.5c0.1,0.2,0.3,0.4,0.5,0.6c0.2,0.2,0.4,0.4,0.6,0.5c0.2,0.2,0.4,0.3,0.7,0.4
		C345.2,116.7,345.4,116.7,345.7,116.7z"/>
</g>
</svg>
