<?xml version="1.0" encoding="utf-8"?>
<!-- Generator: Adobe Illustrator 27.3.1, SVG Export Plug-In . SVG Version: 6.00 Build 0)  -->
<svg version="1.1" id="Layer_1" xmlns="http://www.w3.org/2000/svg" xmlns:xlink="http://www.w3.org/1999/xlink" x="0px" y="0px"
	 viewBox="0 0 512 272" style="enable-background:new 0 0 512 272;" xml:space="preserve">
<style type="text/css">
	.st0{fill:#FF9933;}
	.st1{fill:none;}
	.st2{font-family:'Latha-Bold';}
	.st3{font-size:20.4436px;}
</style>
<g>
	<g>
		<path class="st0" d="M77.7,23.2c0-1,0.8-1.2,1.5-1.4c8-2.6,15.8,1,19.2,8.7c0.7,1.6,1.1,3.4,1.7,5.1c0-0.6,0.1-1.2,0.1-1.9
			c0.4,0.3,0.4,0.6,0.4,0.9c0.1,1.8,0.8,3.5,2.1,4.7c2.9,2.8,3.3,6.3,3.2,10c-0.1,4.8-1.6,9.2-4.1,13.2c-1.6,2.4-3.9,4.2-5.6,6.5
			c0,0-0.1,0-0.3,0c0.7-2.3,1-4.5,1.1-6.8c0.1-2.3,0-4.6-0.4-7.1c-0.3,1.5-0.2,2.8-0.3,4c-0.1,2.5-0.2,5.1-1.8,7.3
			c-2.3,3.2-5.3,5.9-8.8,7.7c-2.4,1.2-4.8,2.8-7.6,3.2c-0.4,0.1-0.7,0.3-1,0.6c-1.2,1.3-2.5,2.6-3.7,3.9c-0.4,0.4-0.5,0.7-0.1,1.1
			c2.6,2.7,4.8,5.7,6.3,9.2c0.2,0.5,0.7,0.5,1.1,0.6c4.4,0.4,8.8,0.9,13.1,2.2c3.5,1.1,7.1,1.7,10.4,3.2c0.1,0.1,0.3,0.1,0.6,0.3
			c-4.8-0.9-9.5-1.6-14.2-2c-4.7-0.4-9.5-0.7-14.3-0.6c-4.7,0.1-9.4,0.3-14.1,0.8c-4.7,0.6-9.4,0.9-14.1,1.9c1.6-1,3.3-1.9,5.2-2.3
			c4-1,7.9-2.5,12.1-3c0.6-0.1,1.2-0.2,1.9-0.3c0.9-0.1,0.8-0.4,0.4-1c-1.4-1.9-3.2-3.4-5-5c-1.1-0.9-2.6-1.6-2.5-3.5
			c0-0.3-0.2-0.4-0.5-0.2c-0.1,0-0.2,0.1-0.3,0.2C52.6,87,46.2,91.1,39.7,95c-1,0.6-2.3,0.4-3.1,1.3c-0.3,0.4-0.7,0.7-1.5,0.9
			c0.6-0.9,1.1-1.7,1.6-2.4c0.3-0.5,0.7-1.1,1-1.6c0.3-0.3,0.3-1.1,1.1-0.6c0,0,0.2-0.1,0.3-0.2c1-1.5,1.9-3,2.9-4.5
			c-0.2-0.1-0.3-0.1-0.3-0.1c-2.8,1.9-6.1,2.7-8.7,4.9c-0.4,0.3-0.8,0.4-1-0.3c-0.4-2-1-4-0.7-6.1c0.1-1.1,0.5-2.1,1.2-2.8
			c1.8-1.7,3.5-3.6,5.6-4.8c2.4-1.4,4-3.4,5.8-5.3c0.9-0.9,1.7-2,2.2-3.2c0.5-1.3,0.4-1.8-0.8-2.5c-0.6-0.3-0.6-0.7-0.4-1.3
			c0.6-1.6,1.6-3.1,2.5-4.6c2.1-3.3,4.3-6.4,6.7-9.5c0.2-0.2,0.4-0.5,0.5-0.5c1.2,0.1,1.4-0.8,1.7-1.6c2.2-5.6,6.5-9.2,11.8-11.4
			c3-1.3,6.2-2.1,9.3-3.1c0.8-0.3,1.2,0.1,1.3,0.9c0.3,1.6,0.2,3.1,0.3,4.7c0.4-0.1,0.3-0.5,0.4-0.7c0.7-3.7-0.1-7-2.9-9.6
			c-2-1.9-4.2-3.4-7.1-3.7c-0.1,0-0.3-0.1-0.4-0.1c-0.3-0.1-0.6-0.2-0.6-0.5c0-0.4,0.4-0.4,0.7-0.4c2-0.1,4.1-0.1,6.1,0.4
			c0.7,0.2,1.4,0.3,2.2,0.5c0.1-0.6-0.4-0.7-0.7-0.8c-3.3-1.2-6.7-1.6-10.1-0.2c-0.2,0.1-0.5,0.4-0.8,0.1c-0.2-0.3,0.1-0.5,0.3-0.7
			c0.7-0.9,1.6-1.7,2.8-2c2.5-0.5,5-0.9,7.5-0.8C76.7,22.9,77.2,23.3,77.7,23.2c-0.3,0.6-0.1,0.9,0.5,1c0.5,0.1,0.9,0.2,1.4,0.2
			c0.7,0,1.4,0.1,1.9-0.6c0.1-0.2,0.1-0.5-0.1-0.6c-0.7-0.4-1.3-0.3-2,0.1C78.9,23.6,78.3,23.8,77.7,23.2z M74.1,92.5
			C74.1,92.5,74.1,92.5,74.1,92.5c0.7-0.1,1.4,0,2.1-0.1c0.2,0,0.6,0.2,0.7-0.2c0.1-0.3-0.2-0.5-0.3-0.7c-1.6-2.1-3.4-4-5.3-5.8
			c-0.5-0.5-1.1-0.9-1.9-1.1c-1.5-0.5-2-1.6-1.4-3.1c0.1-0.4,0.3-0.8,0.5-1.1c0.1-0.2,0.3-0.4,0-0.6c-0.2-0.2-0.4,0-0.6,0.2
			c-1,0.8-1.9,1.7-2.8,2.7c-0.5,0.6-0.5,1-0.1,1.5c1.5,2,3.1,3.9,4.2,6.2c0.1,0.2,0.3,0.6,0.5,0.2c0.6-0.8,0.6-0.2,0.8,0.2
			c0.7,1.6,0.7,1.6,2.4,1.5C73.4,92.5,73.7,92.5,74.1,92.5z"/>
	</g>
	<g>
		<path class="st0" d="M110.4,100.1v14.3H93.8v16.5h3.6c3.8,0,7.4,0.5,10.9,1.6c3.5,1.1,6.6,2.6,9.3,4.7c2.7,2,4.9,4.5,6.6,7.5
			c1.6,3,2.5,6.3,2.5,10c0,4.2-0.7,8-2.1,11.5c-1.4,3.5-3.4,6.5-6,9.1c-2.6,2.6-5.7,4.6-9.4,6.2c-3.7,1.6-7.8,2.5-12.3,2.9v-14.6
			c3.7-0.5,6.4-2.1,8.3-4.7c1.9-2.6,2.8-5.7,2.8-9.4c0-3.5-1.2-6.1-3.7-7.8c-2.4-1.7-5.9-2.5-10.4-2.5v3.8c0,2.3-0.1,4.8-0.4,7.5
			c-0.3,2.7-0.8,5.3-1.6,7.9c-0.8,2.6-1.9,5.1-3.3,7.5c-1.4,2.4-3.4,4.5-5.8,6.4c-2.4,1.8-5.4,3.3-8.9,4.4
			c-3.5,1.1-7.7,1.6-12.6,1.6c-3,0-6-0.5-8.8-1.4s-5.5-2.2-7.9-3.8c-2.5-1.6-4.7-3.4-6.7-5.5c-2-2.1-3.8-4.3-5.2-6.7
			c-1.5-2.3-2.6-4.7-3.4-7.2c-0.8-2.4-1.2-4.8-1.2-7.1c0-2.3,0.3-4.5,0.8-6.7c0.5-2.2,1.4-4.1,2.6-5.9c1.2-1.8,2.8-3.3,4.7-4.6
			c1.9-1.3,4.3-2.2,7-2.7v-32.8H110.4z M75.7,145.2H54.6c-1,0-2,0.1-2.9,0.3c-0.9,0.2-1.8,0.6-2.5,1.2c-0.7,0.6-1.3,1.4-1.7,2.3
			c-0.4,1-0.7,2.2-0.7,3.7c0,1.8,0.4,3.8,1.3,5.7c0.9,2,2.1,3.8,3.5,5.5c1.4,1.7,3,3,4.8,4.1c1.8,1.1,3.6,1.6,5.3,1.6
			c2.6,0,4.8-0.5,6.6-1.5c1.8-1,3.2-2.3,4.3-4c1.1-1.7,1.9-3.7,2.3-6c0.5-2.3,0.7-4.7,0.7-7.3V145.2z M75.7,130.8v-16.5H61.3v16.5
			H75.7z"/>
		<path class="st0" d="M144.2,100.1h18.1v68.6h45.7v-68.6H226v113.1h-18.1V183h-63.8V100.1z"/>
		<path class="st0" d="M257.7,205.2l27.8-25v-65.8h-21.5V183H246v-82.9h71.2v14.3h-13.6V183l-35.8,32.4L257.7,205.2z M269,79.1
			c0-1.4,0.3-2.7,0.8-3.9c0.5-1.2,1.3-2.3,2.2-3.2c0.9-0.9,2-1.7,3.2-2.2c1.2-0.5,2.5-0.8,3.9-0.8c1.4,0,2.7,0.3,3.9,0.8
			c1.2,0.5,2.3,1.3,3.2,2.2c0.9,0.9,1.6,2,2.2,3.2c0.5,1.2,0.8,2.5,0.8,3.9c0,1.4-0.3,2.8-0.8,4c-0.5,1.2-1.2,2.3-2.2,3.2
			c-0.9,0.9-2,1.6-3.2,2.2c-1.2,0.5-2.6,0.8-4,0.8c-1.4,0-2.7-0.3-4-0.8c-1.2-0.5-2.3-1.3-3.2-2.2c-0.9-0.9-1.6-2-2.2-3.2
			C269.3,81.8,269,80.5,269,79.1z"/>
		<path class="st0" d="M426.6,99.9c6.5,0,12.2,1.2,17,3.4c4.8,2.2,8.8,5.2,11.9,8.9c3.2,3.7,5.5,8.1,7.1,13.1
			c1.5,5,2.3,10.3,2.3,15.9c0,6-0.8,11.6-2.4,16.9c-1.6,5.3-4,9.9-7.1,13.8c-3.1,3.9-7,7-11.7,9.3c-0.7,0.4-1.4,0.7-2.2,1
			c-0.7,3.4-1.5,6.6-2.4,9.7h38.8v-91.7H496v106h-62.9c-3.3,6-7.5,11.1-12.6,15.3c-5.5,4.6-12.1,8-19.8,10.3
			c-7.7,2.3-16.6,3.5-26.7,3.5c-3.6,0-7.1-0.3-10.6-0.8c-3.5-0.5-6.8-1.3-10-2.3s-6.2-2.3-8.9-3.8c-2.7-1.5-5.1-3.3-7.1-5.4
			c-2-2.1-3.6-4.4-4.7-7c-1.1-2.6-1.7-5.4-1.7-8.6c0-2.5,0.6-4.7,1.7-6.7c1.1-1.9,2.7-3.5,4.8-4.9c2-1.3,4.4-2.3,7.3-3
			c2.8-0.7,5.9-1,9.3-1h65.9c0.8-2.5,1.5-5,2.2-7.7c-8.2-0.9-14.5-4-19-9.2c-5.4-6.3-8.5-16.1-9.1-29.2c-0.2-2.8-0.3-5.6-0.5-8.3
			c-0.2-2.7-0.5-5.2-0.9-7.6c-0.5-2.4-1.1-4.6-2-6.6s-2.1-3.7-3.6-5.2c-1.5-1.4-3.4-2.6-5.6-3.4s-5-1.2-8.3-1.2
			c-3.3,0-6.2,0.6-8.8,1.8c-2.6,1.2-4.8,2.8-6.7,4.8c-1.9,2-3.4,4.4-4.5,7.1c-1.1,2.7-1.9,5.6-2.4,8.6c0.3,0,0.8-0.1,1.5-0.2
			c0.6-0.1,1.3-0.1,2-0.1c0.7,0,1.4,0,2.1-0.1c0.7,0,1.2,0,1.6,0c4.4,0,8.2,0.8,11.3,2.3c3.1,1.6,5.7,3.5,7.7,5.9
			c2,2.4,3.4,5.1,4.3,8c0.9,2.9,1.4,5.8,1.4,8.5c0,3.1-0.6,6.1-1.7,9c-1.1,2.9-2.7,5.5-4.8,7.8c-2.1,2.3-4.6,4.1-7.5,5.5
			c-2.9,1.4-6.2,2.1-9.9,2.1c-4.2,0-8-0.9-11.3-2.8c-3.3-1.8-6.2-4.4-8.5-7.7c-2.3-3.3-4.1-7.1-5.4-11.6s-1.9-9.3-1.9-14.5
			c0-3.9,0.3-7.9,1-11.8c0.7-4,1.8-7.8,3.2-11.4c1.5-3.6,3.3-7,5.6-10.2c2.3-3.2,5-5.9,8.1-8.2c3.1-2.3,6.8-4.2,10.8-5.5
			c4.1-1.3,8.6-2,13.7-2c6.3,0,11.8,0.9,16.4,2.7c4.7,1.8,8.6,4.5,11.7,8.1c3.1,3.6,5.5,8.2,7.1,13.7c1.6,5.5,2.5,12,2.8,19.4
			c0.1,4.9,0.6,9.1,1.3,12.5c0.7,3.5,1.8,6.3,3.1,8.4c1.3,2.2,3,3.8,4.9,4.7c2,1,4.3,1.5,6.9,1.5c2.3,0,4.4-0.4,6.2-1.1
			c1.8-0.7,3.4-1.7,4.7-3c1.3-1.3,2.4-2.8,3.3-4.6c0.9-1.8,1.6-3.6,2.2-5.7c0.6-2,1-4.1,1.2-6.3c0.2-2.2,0.3-4.4,0.3-6.5
			c0-3.2-0.3-6.4-1-9.7c-0.7-3.3-1.8-6.3-3.3-9c-1.5-2.7-3.5-4.9-6-6.6c-2.5-1.7-5.6-2.6-9.3-2.7V99.9z M354.7,206.1
			c-1.3,0-2.2,0.1-3,0.3c-0.7,0.2-1.3,0.4-1.7,0.8c-0.4,0.3-0.7,0.7-0.8,1.2c-0.1,0.5-0.2,1-0.2,1.5c0,1.5,0.8,2.9,2.3,4.2
			c1.5,1.3,3.5,2.4,5.9,3.3c2.4,0.9,5.1,1.6,8.2,2.2c3,0.5,6.1,0.8,9.2,0.8c5.7,0,10.7-0.4,15-1.3c4.4-0.9,8.2-2.1,11.5-3.7
			c3.3-1.6,6.1-3.6,8.4-6c1-1,2-2.2,2.9-3.3H354.7z M350.3,151.4c0,2.1,0.2,4.2,0.4,6.3c0.2,2.2,0.7,4.1,1.3,5.9
			c0.6,1.8,1.5,3.2,2.6,4.4c1.1,1.1,2.5,1.7,4.3,1.7c1.2,0,2.2-0.3,3.1-0.8s1.6-1.3,2.2-2.2c0.6-0.9,1-1.9,1.3-3
			c0.3-1.1,0.4-2.2,0.4-3.4c0-0.9-0.1-2-0.3-3.2c-0.2-1.2-0.6-2.3-1.3-3.4c-0.6-1-1.5-1.9-2.6-2.7c-1.1-0.7-2.6-1.1-4.3-1.1
			c-1.3,0-2.6,0.1-3.8,0.3C352.3,150.5,351.3,150.9,350.3,151.4z"/>
	</g>
	<rect x="46" y="222.3" class="st1" width="283.6" height="25.5"/>
	<text transform="matrix(1.0889 0 0 1 45.9551 235.5117)" class="st2 st3">எஙகள ஊர கதைகள</text>
</g>
</svg>
