<?xml version="1.0" encoding="utf-8"?>
<!-- Generator: Adobe Illustrator 27.3.1, SVG Export Plug-In . SVG Version: 6.00 Build 0)  -->
<svg version="1.1" id="Layer_1" xmlns="http://www.w3.org/2000/svg" xmlns:xlink="http://www.w3.org/1999/xlink" x="0px" y="0px"
	 viewBox="0 0 512 272" style="enable-background:new 0 0 512 272;" xml:space="preserve">
<style type="text/css">
	.st0{fill:#FF9933;}
</style>
<g>
	<g>
		<path class="st0" d="M72.2,245.5c-1,0-2-0.5-3-1.4c-0.6-0.6-1.1-0.9-1.5-0.9c-0.4,0-1,0.3-1.7,0.9c-1.4,1-2.6,1.5-3.7,1.5
			c-3,0-4.5-1.5-4.5-4.4c0-1.3,0.6-2.5,1.8-3.6c1.2-1,2.6-1.6,4.3-1.6c2.2,0,3.4,0.9,3.4,2.6c0,0.7-0.3,1.3-0.9,1.7
			c-0.6,0.4-1.2,0.7-2,0.7c-1,0-1.5-0.3-1.5-1c0.7,0,1.1-0.4,1.1-1.1c0-0.8-0.4-1.1-1.2-1.1c-0.4,0-0.8,0.2-1.1,0.6
			c-0.3,0.4-0.5,0.8-0.5,1.3c0,1.8,0.9,2.7,2.8,2.7c0.8,0,1.8-0.6,2.9-1.7c0.7-0.7,1.3-1.1,1.6-1.1c0.6,0,1.1,0.4,1.4,1.2l0.2,0.7
			c0.3,0.7,0.9,1,1.7,1c2.7,0,4.1-1.7,4.1-5.2c0-1.5-0.8-2.7-2.5-3.7c-1.7-1-3.7-1.5-6.1-1.5h-2.8c-2.1,0-3.5-0.3-4.4-1
			c-0.9-0.7-1.3-1.9-1.3-3.7c0-0.9,0.6-1.9,1.8-3c1.7-1.6,4-2.5,6.9-2.5c0.9,0,1.5-0.1,1.8-0.2c0.4-0.2,0.6-0.6,0.6-1.1
			c0-0.2-0.1-0.5-0.3-0.7c-0.2-0.2-0.5-0.4-0.9-0.4c-0.2,0-0.3,0.1-0.4,0.1c-0.2,0-0.3-0.1-0.5-0.2c-0.1-0.1-0.1-0.3-0.1-0.4
			c0-0.6,0.4-0.9,1.1-0.9c0.8,0,1.4,0.3,2.1,0.8c0.7,0.6,1,1.3,1,2.2c0,1.4-1,2.4-3.1,3c-2.9,0.8-5,2-6.2,3.6
			c-0.2,0.3-0.3,0.5-0.3,0.6c0,0.5,0.3,0.8,0.8,1.1c0.5,0.3,1.1,0.4,1.8,0.4l2.5,0c3.6,0,6.5,0.7,8.6,2.2c2.1,1.5,3.2,3.4,3.2,5.9
			c0,0.8-0.1,1.6-0.4,2.4c0.8,1.2,2,1.8,3.8,1.8c1.3,0,2.4-0.6,3.3-1.8c0.9-1.2,1.4-2.6,1.4-4.2c0-1.3-0.3-2.3-0.9-3.2
			c-0.6-0.9-1.3-1.3-2.2-1.3c-0.3,0-0.5,0.1-0.8,0.2c-0.2,0.1-0.4,0.4-0.6,0.9c-0.2,0.4-0.3,0.7-0.4,0.7c-0.5,0-0.9-0.2-1.3-0.5
			c-0.4-0.3-0.6-0.8-0.6-1.3c0-0.5,0.3-0.9,0.8-1.2c0.5-0.3,1.2-0.5,2-0.5c1.9,0,3.6,0.7,5.1,2.2c1.4,1.5,2.2,3.4,2.2,5.6
			c0,2.1-0.8,3.8-2.3,5.3c-1.5,1.5-3.4,2.2-5.6,2.2c-1.4,0-2.7-0.4-3.8-1.1c-0.7-0.4-1.1-0.9-1.4-1.5l-0.4,0.4
			C75.6,244.7,74,245.5,72.2,245.5z"/>
		<path class="st0" d="M95.4,250.3c-0.9,0-1.7-0.4-2.3-1.3c-0.6-0.9-0.9-2.1-0.9-3.5c0-1.5,0.7-3.2,2.2-5.1c1.4-1.8,2.6-2.7,3.6-2.7
			l0.6,1c1.6,2.3,3.4,3.4,5.4,3.4c1.4,0,2.7-0.4,3.7-1.1c1.3-1,2-2.4,2-4.3c0-1.3-0.7-2.4-2.2-3.3c-1.5-0.9-3.3-1.3-5.3-1.3H100
			c-2.4,0-4-0.4-4.9-1.1c-0.9-0.7-1.3-1.9-1.3-3.6c0-1.1,0.8-2.3,2.4-3.5c1.6-1.3,3.7-1.9,6.2-1.9c1,0,1.6-0.1,2-0.3
			c0.3-0.2,0.5-0.5,0.5-1c0-0.7-0.3-1.1-1-1.1c-0.2,0-0.4,0-0.5,0.1c-0.3,0-0.5-0.2-0.5-0.6c0-0.6,0.4-0.9,1.1-0.9
			c0.8,0,1.5,0.3,2.2,0.9c0.6,0.6,1,1.3,1,2.2c0,1.3-1,2.3-3.1,3c-2.9,0.8-5,2-6.2,3.6c-0.1,0.2-0.2,0.5-0.2,0.8
			c0,0.9,1.5,1.3,4.6,1.3c3.4,0,6,0.7,8,2.2c2,1.5,3,3.4,3,5.9c0,2.2-0.9,4.1-2.6,5.5c-1.7,1.4-3.9,2.1-6.7,2.1
			c-1.3,0-2.7-0.6-4.3-1.7c-1.3-1.1-2.1-2-2.4-2.9c-0.4,0-0.7,0.3-1,1c-0.3,0.6-0.5,1.3-0.5,1.9c0,1.5,0.1,2.5,0.3,3
			c0.4,0.7,1.1,1,2.2,1c0,0.8-0.3,1.3-1,1.7C96.7,250.1,96.1,250.3,95.4,250.3z"/>
		<path class="st0" d="M143.2,245.5c-1.1,0-2.4-0.6-3.9-1.8c-0.9-0.7-1.6-1.1-2-1.1c-0.6,0-1.2,0.4-1.9,1.3
			c-0.8,1.1-1.6,1.6-2.3,1.6c-1.5,0-2.8-0.7-3.9-2.1c-1.1-1.4-1.6-2.9-1.6-4.4c0-0.7,0.1-1.6,0.3-2.7h-2.6c-2,0-2.9-0.7-2.9-2.1
			c0-0.4,0.2-0.8,0.7-1.1c0.5-0.3,1-0.5,1.5-0.5c0.3,0.8,0.8,1.3,1.3,1.5c0.5,0.2,1.6,0.3,3.3,0.3c0.2-0.3,0.4-0.6,0.8-1l0.2-0.3
			c2.4-2.5,5.6-3.7,9.4-3.7c2.1,0,3.8,0.3,5.3,0.8c1.4,0.5,2.2,1.2,2.2,2c0,1-0.9,1.4-2.6,1.4c-0.5,0-1-0.1-1.4-0.2
			c0-1.5-1.3-2.2-3.9-2.2c-3.2,0-5.4,1-6.5,3.1l3.7,0l20.1,0.1c0.6-0.4,0.8-1.2,0.8-2.2c0-0.7-0.2-1.3-0.5-1.8
			c-0.3-0.5-0.7-0.8-1.2-0.8c-0.7,0-1.1,0.5-1.1,1.6c0,0.7,0.3,1.1,0.8,1.3l-1,1.3c-0.9,0-1.8-0.2-2.6-0.7c-0.8-0.4-1.1-1.1-1.1-1.9
			c0-1,0.6-1.8,1.7-2.5c1.1-0.7,2.4-1,3.8-1c3.4,0,5,1.2,5,3.7c0,1-0.9,2.1-2.6,3.3c2.2,0.7,3.3,2,3.3,3.9c0,1.3-0.6,2.4-1.8,3.2
			c-1.2,0.9-2.6,1.3-4.2,1.3c-1.4,0-2.7-0.3-3.7-1c-1-0.7-1.5-1.5-1.5-2.5c0-1.5,0.6-2.6,1.8-3.4h-3.5c0.4,0.7,0.6,1.7,0.6,3
			c0,1.6-0.6,3-1.9,4.2C146.2,244.8,144.8,245.5,143.2,245.5z M142.4,242.4c0.8,0,1.7-0.5,2.6-1.4c0.9-0.9,1.3-1.9,1.3-3.1
			c0-1.2-0.4-1.8-1.2-1.8c-0.8,0-1.3,0.5-1.3,1.4c0,0.6,0.2,0.9,0.7,0.9c0.2,0,0.4-0.1,0.7-0.3v0.2c0,1.5-0.7,2.2-2.1,2.2
			c-2.2,0-3.3-1-3.3-3c0-0.6,0.2-1.1,0.5-1.4l-8.7,0.1l-0.1,1.3c0,2.8,0.8,4.2,2.5,4.2c0.7,0,1.3-0.6,1.9-1.9
			c0.5-1.2,1.1-1.8,1.6-1.8c0.8,0,1.5,0.7,2,2C140.1,241.7,141,242.4,142.4,242.4z M136.1,229.1l-0.5-0.8c-1.1-1.5-1.7-2.6-1.7-3.4
			c0-0.5,0.2-1,0.6-1.4c0.4-0.4,0.8-0.7,1.4-0.7c0.6,0,1.1,0.2,1.6,0.6c0.4,0.4,0.6,0.9,0.6,1.5C138,225.7,137.4,227.2,136.1,229.1z
			 M140.7,229.1c-1.6-1.5-2.4-2.8-2.4-4.1c0-1.5,0.7-2.2,2.1-2.2c1.3,0,2,0.7,2,2.2C142.4,226,141.9,227.3,140.7,229.1z
			 M156.3,241.2c1.1,0,1.6-0.7,1.6-2.2c0-1.6-0.7-2.4-2-2.4h-0.2c-0.8,0.7-1.1,1.4-1.1,2.1c0,0.7,0.2,1.3,0.5,1.7
			C155.5,241,155.9,241.2,156.3,241.2z"/>
		<path class="st0" d="M172.7,245.5c-3.2,0-5.8-0.8-7.6-2.4c-1.3-1.3-2-2.7-2-4.2c0-2.2,0.9-3.7,2.8-4.5c-1.5-0.7-2.3-1.7-2.3-3.1
			c0-1.4,0.7-2.6,2.1-3.4c1.4-0.8,3.3-1.3,5.7-1.3c3.9,0,6.8,0.9,8.6,2.7c1.9,1.8,2.8,4,2.8,6.7c0,2.9-0.9,5.3-2.7,7
			C178.3,244.6,175.8,245.5,172.7,245.5z M172.7,243.5c2.1,0,3.7-0.8,4.7-2.3c1-1.6,1.5-3.2,1.5-5c0-2.3-0.6-4.2-1.8-5.7
			c-1.2-1.5-2.9-2.2-5.3-2.2c-2.9,0-4.3,1.1-4.3,3.2c0,0.4,0.1,0.9,0.4,1.3c0.3,0.4,0.6,0.6,1,0.6c0.9,0,1.4-0.5,1.4-1.5
			c0-1-0.3-1.5-0.9-1.5c0.6-0.5,1.2-0.8,1.7-0.8c0.7,0,1.2,0.2,1.6,0.7c0.4,0.4,0.6,1,0.6,1.6c0,0.8-0.5,1.5-1.4,2.1
			c-0.9,0.6-2.1,0.9-3.4,0.9c-1,0.8-1.4,1.9-1.4,3.4c0,1.4,0.5,2.6,1.6,3.6C169.8,243,171.1,243.5,172.7,243.5z"/>
		<path class="st0" d="M207.2,245.5c-1,0-2-0.5-3-1.4c-0.6-0.6-1.1-0.9-1.5-0.9c-0.4,0-1,0.3-1.7,0.9c-1.4,1-2.6,1.5-3.7,1.5
			c-3,0-4.5-1.5-4.5-4.4c0-1.3,0.6-2.5,1.8-3.6c1.2-1,2.6-1.6,4.3-1.6c2.2,0,3.4,0.9,3.4,2.6c0,0.7-0.3,1.3-0.9,1.7
			c-0.6,0.4-1.2,0.7-2,0.7c-1,0-1.5-0.3-1.5-1c0.7,0,1.1-0.4,1.1-1.1c0-0.8-0.4-1.1-1.2-1.1c-0.4,0-0.8,0.2-1.1,0.6
			c-0.3,0.4-0.5,0.8-0.5,1.3c0,1.8,0.9,2.7,2.8,2.7c0.8,0,1.8-0.6,2.9-1.7c0.7-0.7,1.3-1.1,1.6-1.1c0.6,0,1.1,0.4,1.4,1.2l0.2,0.7
			c0.3,0.7,0.9,1,1.7,1c2.7,0,4.1-1.7,4.1-5.2c0-1.5-0.8-2.7-2.5-3.7c-1.7-1-3.7-1.5-6.1-1.5h-1.8c-2.7,0-4.5-0.3-5.4-1
			c-0.9-0.7-1.3-1.9-1.3-3.7c0-0.9,0.6-1.9,1.8-3c1.7-1.6,4-2.5,6.9-2.5c0.9,0,1.5-0.1,1.8-0.2c0.4-0.2,0.6-0.6,0.6-1.1
			c0-0.2-0.1-0.5-0.3-0.7c-0.2-0.2-0.5-0.4-0.9-0.4c-0.2,0-0.3,0.1-0.4,0.1c-0.2,0-0.3-0.1-0.5-0.2c-0.1-0.1-0.1-0.3-0.1-0.4
			c0-0.6,0.4-0.9,1.1-0.9c0.8,0,1.4,0.3,2.1,0.8c0.7,0.6,1,1.3,1,2.2c0,1.4-1,2.4-3.1,3c-2.9,0.8-5,2-6.2,3.6
			c-0.1,0.2-0.2,0.5-0.2,0.8c0,0.3,0.2,0.6,0.7,0.9c0.5,0.3,1.1,0.4,1.8,0.4l2.5,0.1c3.6,0,6.5,0.7,8.6,2.2c2.1,1.5,3.2,3.4,3.2,5.9
			c0,0.9-0.2,1.7-0.5,2.5c0.9,1.1,1.9,1.7,3.1,1.7c0.9,0,1.6-0.4,2.1-1.1c0.4-0.4,0.6-0.9,0.6-1.4c0-0.7-0.5-2-1.6-3.7
			c-0.4-0.7-0.6-1.2-0.6-1.5c0-0.5,0.2-0.9,0.6-1.2c0.4-0.3,0.9-0.5,1.5-0.5c0.4,0,0.7,0.1,0.9,0.3c0.3,0.2,0.4,0.4,0.4,0.6
			c0,0.7,0.3,1.7,0.8,3c0.6,1.3,0.9,2.3,0.9,3c0.3,0.6,0.6,1.1,1.1,1.5c0.7,0.6,1.5,0.9,2.4,0.9c0.9,0,1.8-0.5,2.6-1.5
			c0.9-1.2,1.4-2.6,1.4-4.4c0-1.3-0.3-2.3-1-3.2c-0.6-0.9-1.4-1.3-2.2-1.3c-0.7,0-1.1,0.3-1.2,0.9c-0.1,0.1-0.2,0.3-0.3,0.5
			s-0.2,0.4-0.2,0.4c-0.5,0-0.9-0.2-1.3-0.5c-0.4-0.3-0.6-0.8-0.6-1.3c0-0.9,0.6-1.4,1.8-1.7c0.4-0.1,0.7-0.1,1.1-0.1
			c2.7,0,4.7,1.2,6,3.5c0.8,1.3,1.1,2.9,1.1,4.5c0,2.1-0.7,3.8-2,5.3c-1.3,1.5-2.9,2.2-4.8,2.2c-0.9,0-1.8-0.2-2.7-0.7
			c-0.9-0.5-1.5-1.1-2.1-2c-0.5,0.8-1.1,1.5-1.8,2c-0.7,0.5-1.5,0.7-2.3,0.7c-2,0-3.6-1-4.8-2.9C211,244.5,209.2,245.5,207.2,245.5z
			"/>
		<path class="st0" d="M247.8,232c-1.4,0-2.6-0.5-3.6-1.4c-1-1-1.5-2.1-1.5-3.5c0-1.3,0.5-2.4,1.4-3.2c1.7-1.5,3.9-2.3,6.6-2.3
			c1,0,1.6-0.1,2-0.3c0.4-0.2,0.5-0.5,0.5-1.1c0-0.8-0.3-1.2-1-1.2h-0.3l-0.3,0.2c-0.4,0-0.5-0.2-0.5-0.6c0-0.6,0.4-0.9,1.1-0.9
			c0.8,0,1.5,0.3,2.2,0.9c0.6,0.6,1,1.3,1,2.3c0,1.4-1,2.5-3.1,3.1c-1.7,0.4-3.2,1-4.6,1.8c-1.4,0.8-2.1,1.6-2.1,2.5
			c0,0.5,0.2,0.9,0.7,1.2c0.5,0.3,1,0.5,1.6,0.5l1.6,0c3.5,0.1,6.3,0.9,8.4,2.3c2.2,1.5,3.3,3.6,3.3,6.4c0,1.8-0.7,3.4-2.2,4.8
			c-1.4,1.3-3,2-4.8,2c-1.2,0-2.5-0.6-3.8-1.9c-0.8-0.7-1.4-1.1-1.8-1.1c-0.5,0-1.1,0.4-1.8,1.3c-0.8,1.1-1.7,1.7-2.6,1.7
			c-1,0-2-0.5-3.1-1.4c-1-0.9-1.5-2.2-1.5-3.7c0-2.4,1.4-4,4.3-4.9l-3.6,0.4c-1.9,0.3-2.8,1.2-2.8,2.9c-1.9-1.1-2.8-2.2-2.8-3.1
			c0-1.4,0.9-2.1,2.6-2.1l8.6,0.3c1.1,0,1.7,0.4,1.7,1.1c0,0.4-0.4,0.7-1.3,1c-1.8,0.6-2.7,1.7-2.7,3.4c0,1.8,0.6,2.8,1.8,2.8
			c0.7,0,1.3-0.7,1.8-2c0.5-1.2,1.1-1.7,1.6-1.7c0.5,0,1.1,0.6,1.7,1.8c0.8,1.7,1.7,2.6,2.9,2.6c0.5,0,1-0.2,1.5-0.5
			c0.5-0.4,1-0.8,1.3-1.4c0.3-0.6,0.5-1.5,0.5-2.8c0-4-2.7-6-8-6H247.8z"/>
		<path class="st0" d="M260.4,255.6c-0.9,0-1.7-0.3-2.3-1c-0.6-0.7-1-1.5-1-2.4c0-1.6,0.9-2.8,2.6-3.5h-0.3
			c-2.3,0.2-3.5,0.7-3.5,1.6l0,0.9c-0.5-0.2-1-0.6-1.5-1.1s-0.7-1-0.7-1.3c0-0.9,0.5-1.4,1.6-1.4h6.3c0.8,0,1.2,0.3,1.2,1
			c0,0.3-0.1,0.7-0.3,1l-0.5-0.4l-0.2,0c-0.5,0-0.9,0.2-1.3,0.7c-0.3,0.5-0.5,1-0.5,1.7c0,1.3,0.4,1.9,1.1,1.9c0.5,0,1-0.5,1.4-1.5
			c0.4-0.7,0.7-1.1,1-1.1c0.4,0,0.8,0.4,1.3,1.2c0.6,1,1.2,1.5,1.9,1.5c0.8,0,1.5-0.5,2.1-1.5c0.6-1,0.8-2.2,0.8-3.6
			c0-1.7-0.4-3.2-1.2-4.4c-0.8-1.3-1.8-1.9-2.9-1.9c-0.4,0-0.7,0.1-1.1,0.2c-0.4,0.1-0.6,0.2-0.8,0.2c-0.3,0-0.5-0.1-0.5-0.4
			c0-0.5,0.2-1.1,0.6-1.7c0.4-0.7,1.1-1,1.9-1c0.8,0,1.7,0.4,2.6,1.2c2.8,2.4,4.2,5.4,4.2,8.8c0,1.7-0.5,3.2-1.6,4.5
			c-1.1,1.2-2.3,1.8-3.8,1.8c-0.7,0-1.4-0.4-2.4-1.1l-0.7-0.6c-0.2-0.1-0.4-0.2-0.5-0.2c-0.3,0-0.7,0.3-1.1,0.9
			C261.6,255.2,261,255.6,260.4,255.6z"/>
		<path class="st0" d="M295.4,240.2c0.2,0.4,0.5,0.8,1,1.2c0.8,0.6,1.7,0.9,2.9,0.9c1.3,0,2.4-0.6,3.3-1.8c0.9-1.2,1.4-2.6,1.4-4.2
			c0-1.3-0.3-2.3-0.9-3.2c-0.6-0.9-1.4-1.3-2.2-1.3c-0.3,0-0.5,0.1-0.7,0.2c-0.2,0.1-0.4,0.4-0.6,0.9c-0.2,0.4-0.3,0.7-0.3,0.7
			c-0.5,0-1-0.2-1.3-0.5c-0.4-0.3-0.6-0.8-0.6-1.3c0-0.5,0.3-0.9,0.8-1.2c0.6-0.3,1.2-0.5,1.9-0.5c1.9,0,3.6,0.7,5,2.2
			c1.4,1.5,2.2,3.4,2.2,5.6c0,2.1-0.8,3.8-2.3,5.3c-1.5,1.5-3.4,2.2-5.6,2.2c-1.4,0-2.7-0.4-3.8-1.1c-0.7-0.5-1.2-1.1-1.4-1.7
			c-0.2,0.2-0.4,0.5-0.6,0.7c-1.4,1.5-2.9,2.3-4.6,2.3c-1.3,0-2.5-0.7-3.8-2.2c-0.7-0.8-1.2-1.1-1.5-1.1c-0.4,0-0.9,0.4-1.6,1.3
			c-1.1,1.4-2.3,2.1-3.4,2.1c-1.1,0-2.2-0.7-3.4-2c-1.2-1.3-1.8-3-1.8-5.1c0-2.3,0.6-4.3,1.8-6c1.2-1.6,2.8-2.5,4.6-2.5
			c2.7,0,4.1,1.3,4.1,3.8c0,2.7-1.3,4.1-4,4.1c-1.5,0-2.2-0.7-2.2-2.2c0-1,0.3-1.5,1-1.5l0,0.3c0,0.6,0.3,0.9,1,0.9
			c0.6,0,0.9-0.4,0.9-1.1c0-1.1-0.5-1.7-1.4-1.7c-0.7,0-1.3,0.4-1.8,1.3c-0.5,0.8-0.7,1.8-0.7,2.9c0,1.3,0.3,2.5,1,3.5
			c0.7,1,1.5,1.5,2.6,1.5c1,0,1.9-0.7,2.5-2c0.4-0.8,0.7-1.2,1.1-1.2c0.4,0,0.9,0.5,1.4,1.6c0.8,1.8,1.9,2.7,3.2,2.7
			c2.3,0,3.5-2.1,3.5-6.3c0-1.2-0.2-2.3-0.7-3.1c-0.5-0.9-1.2-1.3-2.1-1.3c-0.6,0-1.1,0.3-1.3,0.8l-0.1,0.4
			c-0.1,0.4-0.2,0.6-0.4,0.6c-1.2,0-1.8-0.6-1.8-1.8c0-1.1,0.6-1.7,1.9-1.8l0.5-0.1c1,0,2.1,0.3,3.3,0.8c2.8,1.3,4.2,3.7,4.2,7.2
			C295.7,238.8,295.6,239.5,295.4,240.2z M279.6,229.5l0-0.2c0-0.3-0.3-0.7-0.8-1.2c-0.8-0.6-1.2-1.3-1.2-1.9c0-1.1,0.7-1.6,2.1-1.6
			c0.6,0,1.1-0.2,1.6-0.7l0.1,0c0.2,0.1,0.2,0.3,0.2,0.5c0,0.5-0.1,1-0.4,1.7c-0.3,0.6-0.4,1.3-0.4,1.9c0,0.6-0.1,1-0.2,1.2
			C280.3,229.4,280,229.5,279.6,229.5z"/>
		<path class="st0" d="M283.4,254.8c-0.7,0-1.3-0.4-1.8-1.1c-0.5-0.7-0.8-1.6-0.8-2.6c0-1.1,0.4-2.1,1.1-2.8
			c0.7-0.7,1.8-1.1,3.1-1.1c1.5,0,2.6,0.8,3.4,2.3c0.2-0.7,0.7-1.2,1.4-1.7c0.7-0.4,1.4-0.6,2.3-0.6c1.1,0,2,0.3,2.7,1
			c0.7,0.7,1,1.6,1,2.7c0,1.1-0.3,2-1,2.7c-0.7,0.7-1.5,1-2.5,1c-1,0-1.5-0.5-1.5-1.4c0.6,0,1.1-0.2,1.6-0.5
			c0.5-0.4,0.8-0.9,0.8-1.7c0-1.3-0.5-2-1.6-2c-0.7,0-1.2,0.2-1.7,0.6c-0.4,0.4-0.7,1-0.7,1.7c0,0.7-0.3,1.1-1,1.1c-0.7,0-1-0.7-1-2
			c0-0.9-0.5-1.4-1.6-1.4c-0.6,0-1.1,0.2-1.5,0.7c-0.4,0.5-0.6,1.1-0.6,1.9c0,1.2,0.5,1.7,1.4,1.7
			C284.7,254.4,284.2,254.8,283.4,254.8z"/>
	</g>
	<path class="st0" d="M69.4,161.7c-3.3,0.3-4.9,1.7-4.9,4.2c0,4.4,7,6.6,21.1,6.6c15.7,0,23.5-3.3,23.5-10c0-5.4-2.9-9-8.7-10.8
		c-3.4-1-9.1-1.6-17.1-1.7c-9.8-0.1-18.3-1.2-25.4-3.3c-10.8-3.1-16.2-7.9-16.2-14.3c0-8.6,4.5-14.6,13.6-17.8
		c6.5-2.3,16.4-3.5,29.6-3.5c10.7,0,20,1.9,27.9,5.8c9.3,4.8,13.9,11.4,13.9,19.9h-32v-4c3.5,0,5.3-1.2,5.3-3.7c0-3-2.1-5.2-6.2-6.6
		c-3.1-1.2-6.7-1.7-10.7-1.7c-16.4,0-24.7,3.8-24.7,11.4c0,6.6,7,10,21.1,10c13.1,0,24,1.4,32.9,4.2c12.7,4.2,19,11,19,20.3
		c0,7.6-3.1,13.6-9.4,18c-2.4,1.7-8.8,4.9-19.4,9.4c-8.4,3.6-14.2,7.5-17.3,11.7c-2.3-3.7-7.4-7.1-15.4-10.1
		c-11.2-4.3-17.6-6.9-19.4-7.9c-6.2-3.7-9.2-8.6-9.2-14.5c0-4.9,2.2-9.9,6.6-14.9h21.7V161.7z"/>
	<path class="st0" d="M213.1,112.9h11.5c8.9,0,15.9,5.4,20.9,16.1c3.8,8.2,5.6,17.1,5.6,26.8c0,13.1-2.3,22.9-6.8,29.6
		c-2.6,3.8-7.2,7.5-13.6,10.8c-5.6,2.9-9,5.9-10.2,8.9c-1.3-3.5-4.6-6.7-10.2-9.6c-6.4-3.5-10.4-6.2-12.1-8.2
		c-1.8,2.2-6,5.1-12.8,8.7c-5.9,3-9.2,6.1-10,9.1c-1.5-3-5.5-5.8-11.9-8.4c-7.9-3.1-13.1-5.8-15.6-8c-5.3-4.4-7.9-10.9-7.9-19.4
		c0-5.9,1.9-11.3,5.8-16.1c3.9-4.8,9-7.8,15.3-9.1c5.5-0.9,11-1.9,16.6-3c6.8-2,10.2-5.4,10.2-10.3c0-6.4-3.4-9.6-10.2-9.6
		c-3.3,0-6.1,0.7-8.4,2.2c-2.3,1.5-3.5,3.5-3.5,6.2c0,2.8,1.3,4.2,3.8,4.2c1.4,0,2.1-0.5,2.3-1.4h3.4v4.5H144v-2.4
		c-0.4-6.5,2.4-12.1,8.3-16.6c5.5-4.2,12-6.3,19.5-6.3c17.4,0,26.1,6.9,26.1,20.8c0,5.6-3.1,9.7-9.3,12.2
		c-5.8,1.6-11.5,3.3-17.2,4.9c-6.2,2-9.3,5.1-9.3,9.3c0,3.1,2.1,5.6,6.2,7.3c3.3,1.4,6.8,2.1,10.7,2.1c10.2,0,16.4-5.9,18.6-17.7
		h4.7c0,11.5,6.2,17.3,18.6,17.3c6,0,10.7-2.1,14.1-6.3c2.9-3.8,4.3-8.6,4.3-14.3c0-5.4-1.1-10.1-3.4-14.2
		c-2.6-4.8-6.2-7.2-10.7-7.2c-4.1,0-6.2,1.3-6.2,3.8h-6.2L213.1,112.9z M266.6,111.1c17.8,0,30,4.5,36.5,13.6
		c6.3,8.6,9.4,17.9,9.4,27.8c0,7-1.8,14.1-5.3,21.2c-3.5,7.5-8.3,13.4-14.5,17.8c-3.4,1.9-6.8,3.7-10.2,5.4
		c-4.4,2.4-7.1,5.2-8.1,8.2c-1.4-2.9-4.8-5.6-10.2-8c-6.4-3-10-5-10.9-5.8c-4.1-4-6.2-9.7-6.2-17.3c0-7.1,1.3-14.6,4-22.4
		c1.8,4,4.1,7.6,7,10.8c3.4,4.2,10,6.3,19.8,6.3c5.9,0,11.5-2.4,16.9-7.1c5.3-4.7,8-9.7,8-15c0-6.5-2.4-11.8-7.3-15.7
		c-4.9-4-11.6-5.9-20.1-5.9c-2.4,0-3.6,1-3.6,3.1h-5.3L266.6,111.1z"/>
	<path class="st0" d="M429.6,154.8c0,8-2.4,15.4-7.1,22s-11.1,11.8-19.1,15.6c-4.8,1.7-9.5,3.4-14.3,5.1c-6,2.2-9.6,4.7-10.7,7.5
		c-1.1-2.8-5-5.4-11.7-7.9c-9.8-3.6-15-5.5-15.6-5.8c-15.7-8.6-23.5-20.8-23.5-36.6c0-12.6,5.2-23,15.6-31.3
		c9.8-7.9,21.5-11.9,35.2-11.9c13.7,0,25.5,4,35.6,11.9C424.4,131.9,429.6,142.4,429.6,154.8z M429.4,75.1
		c-0.3,0.6-3.9,8.3-10.9,23.3c-1.4,2.9-3.1,4.2-5.3,3.8c-2-0.3-3-1.5-3-3.3c0-1.6,1.2-2.8,3.6-3.5c-1.9-2-4-3-6.4-3
		c-5.1,0-10.4,2.8-15.8,8.4c-7.4,7.7-12.6,12.4-15.4,14.2c-5.6,3.3-11.7,4.7-18.1,4.4c-8.4-0.6-16.1-4-23-10.3
		c1.6-3.6,4.4-9.3,8.3-17c1-2,2.3-3,3.8-3c1.6,0,2.7,0.8,3.2,2.4c0.4,1.6-0.6,2.7-3,3.1c0.5,5.2,5.2,8.5,14.1,9.8
		c5.4,0.8,9.7,0.1,12.8-2.3c2.6-2,6.2-5.9,10.8-11.9c4.6-5.9,8.4-10.1,11.6-12.6c5.3-3.8,11.5-5.8,18.6-5.8
		C418.4,71.9,423.2,73,429.4,75.1z M408.7,143.8c0-7.3-3-13.3-9-17.8c-6-4.5-13.1-6.8-21.3-6.8c-8.2,0-15.1,2.2-20.9,6.6
		c-6.3,4.7-9.4,10.7-9.4,18s3.1,13.5,9.4,18.5c5.9,4.7,12.9,7,20.9,7c8.2,0,15.3-2.4,21.3-7.3C405.7,157.3,408.7,151.2,408.7,143.8z
		 M445.1,111.1c17.8,0,30,4.5,36.5,13.6c6.3,8.6,9.4,17.9,9.4,27.8c0,7-1.8,14.1-5.3,21.2c-3.6,7.6-8.5,13.5-14.5,17.8
		c-3.4,1.9-6.8,3.7-10.2,5.4c-4.4,2.4-7.1,5.2-8.1,8.2c-1.4-2.9-5-5.7-10.9-8.5c-5.9-2.7-9.3-4.5-10.2-5.3c-4.1-4-6.2-9.7-6.2-17.3
		c0-7.1,1.3-14.6,4-22.4c1.8,4,4.1,7.6,7,10.8c3.4,4.2,10,6.3,19.8,6.3c5.9,0,11.5-2.4,16.9-7.1c5.3-4.7,8-9.7,8-15
		c0-6.5-2.4-11.8-7.3-15.7c-4.9-4-11.6-5.9-20.1-5.9c-2.4,0-3.6,1-3.6,3.1h-5.3L445.1,111.1z"/>
	<path class="st0" d="M430.8,237.6c0,2-0.5,4.5-1.5,7.5c-0.6,1.5-2.6,2.6-6,3.4c-3.4,0.8-6.1,3-8.3,6.7c-2.5-3.7-5.6-6.1-9.4-7
		c-3.8-0.9-5.6-2.1-5.5-3.5c-0.3-0.6-0.1-1.6,0.6-3.1c4.3-3.4,6.4-6.1,6.4-8c0-3.4-1.1-6.4-3.2-9.2c-2.1-2.7-5-4.1-8.5-4.1
		c-3.5,0-6.6,1.3-9.1,3.8c-2.6,2.5-3.9,5.4-3.9,8.7c0,1.3,0.3,2.4,0.9,3.5H372c0.6-1,0.9-2.2,0.9-3.5c0-3.3-1.3-6.2-3.9-8.7
		c-2.6-2.5-5.6-3.8-9.1-3.8c-3.5,0-6.3,1.4-8.4,4.1c-2.1,2.7-3.1,5.8-3.1,9.2c0,2.7,0.6,4.7,1.7,6c1.1,1.3,2.8,3.2,4.9,5.5
		c0.5,0.5,0.8,0.9,0.8,1.2c-0.9,2.4-3.2,3.8-6.9,4.1c-3.7,0.3-6.4,2-8.2,5.2c-2.3-3.1-5.1-5.1-8.7-5.9c-3.5-0.8-5.8-2.9-6.8-6.3
		c-0.5-1.6-0.8-3.5-0.8-5.7c0-7.6,2.9-13.9,8.7-18.9c5.8-5.1,12.8-7.6,21.1-7.6c11.9,0,19.8,3.3,23.5,10c3.5-6.6,11.2-10,23.2-10
		c8.3,0,15.3,2.5,21.1,7.6C427.9,223.8,430.8,230.1,430.8,237.6z"/>
	<g>
		<path class="st0" d="M82.8,18.7c0-1.2,0.9-1.4,1.6-1.7c8.5-3.2,16.9,1.2,20.5,10.7c0.8,2,1.2,4.1,1.8,6.2c0-0.7,0.1-1.5,0.1-2.4
			c0.4,0.3,0.4,0.7,0.4,1.1c0.1,2.2,0.9,4.3,2.2,5.8c3.1,3.4,3.5,7.7,3.4,12.3c-0.1,5.9-1.7,11.3-4.5,16.1c-1.7,3-4.2,5.2-6,8
			c0,0-0.1,0-0.3,0.1c0.7-2.8,1.1-5.5,1.2-8.4c0.1-2.8,0-5.6-0.5-8.7c-0.4,1.8-0.2,3.4-0.3,4.9c-0.1,3.1-0.2,6.3-1.9,8.9
			c-2.5,4-5.7,7.2-9.4,9.4c-2.6,1.5-5.2,3.4-8.2,4c-0.4,0.1-0.8,0.4-1.1,0.8c-1.3,1.6-2.7,3.2-4,4.7c-0.4,0.5-0.5,0.8-0.1,1.3
			c2.8,3.3,5.1,7,6.8,11.2c0.2,0.6,0.7,0.6,1.2,0.7c4.7,0.5,9.4,1.1,14,2.7c3.7,1.3,7.6,2.1,11.2,3.9c0.1,0.1,0.3,0.2,0.6,0.4
			c-5.2-1-10.2-2-15.2-2.5c-5.1-0.5-10.2-0.8-15.3-0.7c-5.1,0.1-10.1,0.3-15.2,1c-5,0.7-10.1,1.1-15.1,2.4c1.8-1.2,3.6-2.3,5.5-2.8
			c4.3-1.3,8.5-3,13-3.7c0.7-0.1,1.3-0.3,2-0.3c1-0.1,0.8-0.5,0.4-1.2c-1.5-2.3-3.4-4.2-5.3-6.1c-1.2-1.1-2.8-2-2.6-4.2
			c0-0.3-0.2-0.5-0.5-0.3c-0.1,0.1-0.2,0.1-0.3,0.2c-7.2,4.4-14.1,9.3-21,14.1c-1.1,0.7-2.4,0.5-3.3,1.6c-0.4,0.4-0.8,0.9-1.6,1.1
			c0.6-1.1,1.2-2.1,1.7-3c0.4-0.7,0.7-1.3,1.1-2c0.3-0.4,0.3-1.4,1.2-0.8c0,0,0.2-0.1,0.3-0.2c1-1.8,2.1-3.6,3.1-5.5
			c-0.2-0.1-0.3-0.2-0.4-0.1c-3,2.3-6.6,3.3-9.3,6c-0.4,0.4-0.9,0.5-1-0.3c-0.5-2.5-1.1-4.9-0.8-7.4c0.1-1.3,0.5-2.6,1.3-3.4
			c1.9-2.1,3.7-4.4,6-5.9c2.5-1.7,4.3-4.2,6.3-6.4c1-1.1,1.8-2.5,2.3-4c0.6-1.6,0.4-2.2-0.9-3c-0.7-0.4-0.7-0.9-0.5-1.6
			c0.7-2,1.7-3.8,2.7-5.7c2.2-4,4.6-7.9,7.2-11.7c0.2-0.2,0.4-0.6,0.6-0.6c1.3,0.1,1.5-1,1.8-1.9c2.4-6.9,6.9-11.2,12.7-14
			c3.2-1.6,6.6-2.6,10-3.8c0.8-0.3,1.2,0.1,1.4,1.1c0.3,1.9,0.2,3.8,0.3,5.8c0.5-0.1,0.4-0.6,0.4-0.9c0.8-4.6-0.1-8.6-3.1-11.8
			c-2.2-2.3-4.5-4.2-7.6-4.6c-0.2,0-0.3-0.1-0.5-0.1c-0.3-0.1-0.7-0.2-0.7-0.7c0-0.5,0.5-0.4,0.8-0.5c2.2-0.1,4.4-0.1,6.5,0.5
			c0.8,0.2,1.5,0.4,2.3,0.6c0.1-0.8-0.4-0.9-0.7-1c-3.6-1.5-7.2-1.9-10.8-0.2c-0.3,0.1-0.6,0.5-0.8,0.1c-0.2-0.3,0.1-0.6,0.3-0.8
			c0.8-1.1,1.7-2.1,3-2.4c2.6-0.7,5.3-1.2,8.1-0.9C81.6,18.3,82.1,18.9,82.8,18.7c-0.4,0.7-0.1,1.1,0.5,1.3c0.5,0.1,1,0.2,1.5,0.3
			c0.7,0,1.5,0.1,2-0.8c0.1-0.2,0.1-0.6-0.2-0.7c-0.7-0.5-1.4-0.3-2.1,0.1C84,19.2,83.3,19.4,82.8,18.7z M78.9,103.6
			C78.9,103.6,78.9,103.6,78.9,103.6c0.8-0.1,1.5-0.1,2.3-0.1c0.3,0,0.6,0.2,0.7-0.2c0.1-0.3-0.2-0.6-0.4-0.8
			c-1.7-2.6-3.6-4.8-5.7-7.1c-0.6-0.6-1.2-1.1-2-1.4c-1.6-0.6-2.1-1.9-1.5-3.8c0.1-0.5,0.3-0.9,0.5-1.4c0.1-0.2,0.3-0.5,0-0.7
			c-0.2-0.2-0.5,0-0.6,0.2c-1.1,1-2.1,2.1-3,3.3c-0.5,0.7-0.5,1.2-0.1,1.9c1.6,2.4,3.3,4.8,4.5,7.6c0.1,0.2,0.3,0.7,0.6,0.3
			c0.6-1,0.7-0.3,0.9,0.3c0.7,2,0.7,2,2.6,1.8C78.1,103.6,78.5,103.6,78.9,103.6z"/>
	</g>
</g>
</svg>
